<svg width="16" height="16" viewBox="0 0 16 16" fill="none" xmlns="http://www.w3.org/2000/svg">
    <path d="M6 11.7266L6 4.2733C6.00055 4.14145 6.04019 4.01272 6.1139 3.9034C6.18761 3.79408 6.29208 3.70907 6.4141 3.65912C6.53612 3.60917 6.67021 3.59652 6.79942 3.62278C6.92863 3.64903 7.04715 3.71301 7.14 3.80663L10.86 7.52663C10.9225 7.58861 10.9721 7.66234 11.0059 7.74358C11.0398 7.82482 11.0572 7.91196 11.0572 7.99996C11.0572 8.08797 11.0398 8.17511 11.0059 8.25635C10.9721 8.33759 10.9225 8.41132 10.86 8.4733L7.14 12.1933C7.04715 12.2869 6.92863 12.3509 6.79942 12.3771C6.67021 12.4034 6.53612 12.3908 6.4141 12.3408C6.29208 12.2909 6.18761 12.2058 6.1139 12.0965C6.04019 11.9872 6.00055 11.8585 6 11.7266Z"
          fill="#583A2D"/>
</svg>
