<svg width="16" height="16" viewBox="0 0 16 16" fill="none" xmlns="http://www.w3.org/2000/svg">
    <path d="M10 11.7266L10 4.2733C9.99945 4.14145 9.95981 4.01272 9.8861 3.9034C9.81239 3.79408 9.70792 3.70907 9.5859 3.65912C9.46388 3.60917 9.32979 3.59652 9.20058 3.62278C9.07137 3.64903 8.95285 3.71301 8.86 3.80663L5.14 7.52663C5.07751 7.58861 5.02792 7.66234 4.99407 7.74358C4.96023 7.82482 4.9428 7.91196 4.9428 7.99996C4.9428 8.08797 4.96023 8.17511 4.99407 8.25635C5.02792 8.33759 5.07751 8.41132 5.14 8.4733L8.86 12.1933C8.95285 12.2869 9.07137 12.3509 9.20058 12.3771C9.32979 12.4034 9.46388 12.3908 9.5859 12.3408C9.70792 12.2909 9.81239 12.2058 9.8861 12.0965C9.95981 11.9872 9.99945 11.8585 10 11.7266Z"
          fill="#583A2D"/>
</svg>
