<svg width="16" height="16" viewBox="0 0 16 16" fill="none" xmlns="http://www.w3.org/2000/svg">
<path d="M7.02914 12.3034C6.80486 11.0896 5.57137 9.98615 4.45001 9.39765C3.02963 8.66201 1.45973 7.15397 1.12332 5.46202C1.04856 5.05742 1.19808 4.50569 1.38497 4.13788C-0.297067 5.42523 -0.521338 8.47811 1.12332 10.9793C2.54371 13.1126 4.74904 14.2528 6.58059 13.9218C6.99176 13.4068 7.14127 12.8919 7.02914 12.3034Z" fill="#FCE6D2"/>
<path d="M11.3651 12.9287C11.9258 11.6414 11.4398 9.8023 10.6923 8.55173C9.79518 7.0069 9.2345 4.54253 9.98207 2.74024C10.169 2.26207 10.6549 1.85748 11.1034 1.60001C8.63644 1.8207 6.50586 4.6161 6.50586 8.03678C6.50586 10.9793 7.92625 13.4437 9.90731 14.2161C10.6549 13.9586 11.1034 13.554 11.3651 12.9287Z" fill="#FCE6D2"/>
<path d="M6.05722 8C6.05722 6.93334 6.24412 5.86667 6.6179 4.91035C5.38441 3.88046 3.96402 3.4023 2.69315 3.62299C2.24461 4.13793 2.05771 4.65288 2.16985 5.27816C2.39412 6.52874 3.77713 7.85288 4.97324 8.44138C5.34703 8.62529 5.72082 8.88276 6.0946 9.17701C6.05722 8.77242 6.05722 8.4046 6.05722 8Z" fill="#FCE6D2"/>
<path d="M16 8.00004C16 5.13107 14.617 2.66671 12.6733 1.85751C12.6733 1.85751 12.6733 1.85751 12.6359 1.85751C11.8884 2.0782 11.4024 2.4828 11.1034 3.14487C10.5427 4.50579 11.0286 6.60234 11.7762 7.92647C12.5985 9.32417 13.2714 11.6046 12.4864 13.4069C12.3369 13.8115 11.8884 14.1058 11.5519 14.4C14.0189 14.069 16 11.3104 16 8.00004Z" fill="#FCE6D2"/>
</svg>
