<svg width="16" height="11" viewBox="0 0 16 11" fill="none" xmlns="http://www.w3.org/2000/svg">
    <path fill-rule="evenodd" clip-rule="evenodd"
          d="M2 -2.03848e-05C0.895431 -2.03848e-05 0 0.895408 0 1.99998V8.66665C0 9.77122 0.895431 10.6666 2 10.6666H14C15.1046 10.6666 16 9.77122 16 8.66665V1.99998C16 0.89541 15.1046 -2.03848e-05 14 -2.03848e-05H2ZM1.33333 1.99998C1.33333 1.63179 1.63181 1.33331 2 1.33331H14C14.3682 1.33331 14.6667 1.63179 14.6667 1.99998V2.33331H1.33333V1.99998ZM1.33333 3.66665V8.66665C1.33333 9.03483 1.63181 9.33331 2 9.33331H14C14.3682 9.33331 14.6667 9.03484 14.6667 8.66665V3.66665H1.33333ZM4.33333 8.33331H2.33333V6.99998H4.33333V8.33331ZM6.66667 5.33331H13.6667V4.66665H6.66667V5.33331Z"
          fill="#583A2D"/>
</svg>
