<svg width="24" height="24" viewBox="0 0 24 24" fill="none" xmlns="http://www.w3.org/2000/svg">
<g clip-path="url(#clip0_135_522)">
<path d="M7 24C8.10457 24 9 23.1046 9 22C9 20.8954 8.10457 20 7 20C5.89543 20 5 20.8954 5 22C5 23.1046 5.89543 24 7 24Z" fill="#FCE6D2"/>
<path d="M17 24C18.1046 24 19 23.1046 19 22C19 20.8954 18.1046 20 17 20C15.8954 20 15 20.8954 15 22C15 23.1046 15.8954 24 17 24Z" fill="#FCE6D2"/>
<path d="M22.984 6.018C22.2801 5.34489 21.3377 4.97875 20.364 5H5.654L5.391 2.938C5.2955 2.12869 4.90638 1.38256 4.2974 0.841037C3.68842 0.299518 2.90192 0.000261877 2.087 0L1.5 0C1.10218 0 0.720644 0.158035 0.43934 0.43934C0.158035 0.720644 0 1.10218 0 1.5C0 1.89782 0.158035 2.27936 0.43934 2.56066C0.720644 2.84196 1.10218 3 1.5 3H2.087C2.16881 3.00088 2.24739 3.03202 2.30759 3.08742C2.36779 3.14282 2.40534 3.21855 2.413 3.3L3.913 15.059C4.00761 15.8689 4.39637 16.6159 5.00547 17.1581C5.61456 17.7003 6.40156 17.9999 7.217 18H17.339C18.5431 17.9993 19.7136 17.6035 20.671 16.8733C21.6285 16.1432 22.3198 15.119 22.639 13.958L23.885 9.427C24.0511 8.82996 24.0552 8.19945 23.8968 7.6003C23.7385 7.00116 23.4234 6.45501 22.984 6.018ZM19.75 13.163C19.6036 13.6903 19.2887 14.1553 18.8534 14.4869C18.4181 14.8186 17.8863 14.9988 17.339 15H7.217C7.13523 14.9993 7.05665 14.9682 6.99657 14.9128C6.93648 14.8573 6.89921 14.7815 6.892 14.7L6.037 8H20.514C20.5912 7.99942 20.6676 8.01674 20.737 8.05061C20.8064 8.08448 20.867 8.13396 20.9141 8.19519C20.9612 8.25642 20.9934 8.32772 21.0083 8.40351C21.0233 8.47929 21.0204 8.5575 21 8.632L19.75 13.163Z" fill="#FCE6D2"/>
</g>
<defs>
<clipPath id="clip0_135_522">
<rect width="24" height="24" fill="white"/>
</clipPath>
</defs>
</svg>
