<svg width="17" height="17" viewBox="0 0 17 17" fill="none" xmlns="http://www.w3.org/2000/svg">
    <path d="M12.2917 2H4.70834C3.21332 2.0018 2.0018 3.21332 2 4.70834V12.2917C2.0018 13.7867 3.21332 14.9982 4.70834 15H12.2917C13.7867 14.9982 14.9982 13.7867 15 12.2917V4.70834C14.9982 3.21332 13.7867 2.0018 12.2917 2ZM12.8333 6.37613L7.82075 11.3887C7.39777 11.8119 6.71184 11.812 6.28868 11.389C6.28858 11.3889 6.28848 11.3888 6.28837 11.3887L4.16666 9.26756C3.9547 9.0556 3.9547 8.71196 4.16666 8.50003C4.37862 8.28809 4.72226 8.28806 4.93419 8.50003L7.05535 10.6212L12.0685 5.60859C12.2804 5.39739 12.6235 5.398 12.8347 5.60994C13.0459 5.8219 13.0453 6.16493 12.8333 6.37613Z"
          fill="#FCE6D2"/>
</svg>
