<svg width="17" height="17" viewBox="0 0 17 17" fill="none" xmlns="http://www.w3.org/2000/svg">
    <path d="M12.2917 2H4.70833C3.9903 2.00086 3.30193 2.28648 2.7942 2.7942C2.28648 3.30193 2.00086 3.9903 2 4.70833L2 12.2917C2.00086 13.0097 2.28648 13.6981 2.7942 14.2058C3.30193 14.7135 3.9903 14.9991 4.70833 15H12.2917C13.0097 14.9991 13.6981 14.7135 14.2058 14.2058C14.7135 13.6981 14.9991 13.0097 15 12.2917V4.70833C14.9991 3.9903 14.7135 3.30193 14.2058 2.7942C13.6981 2.28648 13.0097 2.00086 12.2917 2ZM13.9167 12.2917C13.9167 12.7226 13.7455 13.136 13.4407 13.4407C13.136 13.7455 12.7226 13.9167 12.2917 13.9167H4.70833C4.27736 13.9167 3.86403 13.7455 3.55928 13.4407C3.25454 13.136 3.08333 12.7226 3.08333 12.2917V4.70833C3.08333 4.27736 3.25454 3.86403 3.55928 3.55928C3.86403 3.25454 4.27736 3.08333 4.70833 3.08333H12.2917C12.7226 3.08333 13.136 3.25454 13.4407 3.55928C13.7455 3.86403 13.9167 4.27736 13.9167 4.70833V12.2917Z"
          fill="#583A2D"/>
    <path d="M7.05536 10.6227L4.93257 8.49994C4.83099 8.39839 4.69324 8.34134 4.54961 8.34134C4.40598 8.34134 4.26823 8.39839 4.16665 8.49994C4.0651 8.60152 4.00806 8.73927 4.00806 8.8829C4.00806 9.02653 4.0651 9.16428 4.16665 9.26585L6.28944 11.3886C6.39004 11.4893 6.50949 11.5691 6.64095 11.6236C6.77242 11.6781 6.91333 11.7061 7.05563 11.7061C7.19793 11.7061 7.33884 11.6781 7.4703 11.6236C7.60177 11.5691 7.72121 11.4893 7.82182 11.3886L12.8333 6.37715C12.9349 6.27557 12.9919 6.13782 12.9919 5.99419C12.9919 5.85056 12.9349 5.71281 12.8333 5.61123C12.7317 5.50968 12.594 5.45264 12.4504 5.45264C12.3067 5.45264 12.169 5.50968 12.0674 5.61123L7.05536 10.6227Z"
          fill="#583A2D"/>
</svg>
