<svg width="16" height="16" viewBox="0 0 16 16" fill="none" xmlns="http://www.w3.org/2000/svg">
<path d="M13.6322 12.0807C13.3835 11.9577 13.1217 11.8482 12.8482 11.7507C13.4099 11.3502 13.8721 10.8868 14.2392 10.3408C14.8097 9.49184 15.0554 8.66838 14.9896 7.82242C14.915 6.86847 14.2626 6.21751 13.3631 6.20401C13.0749 6.20401 12.775 6.26701 12.4532 6.393L12.4372 6.3975C11.9764 5.97002 11.4074 5.78403 10.8604 5.64604C10.5312 5.56354 10.1948 5.49904 9.85548 5.44505C9.82476 5.47955 9.79697 5.51555 9.76625 5.55004C9.58049 5.76303 9.39326 5.97752 9.21335 6.19801C9.12266 6.3075 9.04953 6.408 8.98224 6.50249C9.56147 6.55949 10.1378 6.65699 10.7009 6.80398C10.932 6.86398 11.1397 6.94047 11.3504 7.04247C10.9891 7.21496 10.5751 7.34245 10.0924 7.42794C9.62437 7.51194 9.16654 7.56294 8.7131 7.59594C8.53173 7.60944 8.35181 7.61993 8.17336 7.62743C8.01393 6.92847 8.37522 6.375 8.80818 5.84853C9.2192 5.34755 9.6624 4.87508 10.0646 4.36661C10.464 3.86263 10.7463 3.29566 10.7521 2.6222C10.7565 1.44626 9.64631 0.159324 8.49808 0.00483163C8.37522 -0.0116675 8.26698 0.0108314 8.20262 0.123326C8.1368 0.23732 8.16605 0.354314 8.25966 0.439809C8.39569 0.567303 8.54343 0.681297 8.68092 0.805791C9.59658 1.63825 9.69312 2.38221 8.97785 3.39916C8.62095 3.90613 8.21286 4.3726 7.82816 4.85858C7.4932 5.28156 7.23869 5.74803 7.11875 6.28351C7.01343 6.75148 7.07926 7.23296 7.27672 7.62144C7.07926 7.61094 6.88179 7.59444 6.68579 7.57344C6.10509 7.51344 5.53464 7.41295 4.98319 7.25995C4.80767 7.21196 4.60435 7.14746 4.39372 7.04247C4.76086 6.85948 5.12361 6.76798 5.40592 6.70798C5.78915 6.62699 6.17091 6.56699 6.55122 6.52349C6.55999 6.402 6.57901 6.2805 6.60534 6.16051C6.6697 5.87403 6.7677 5.59804 6.90081 5.32806C6.51173 5.35805 6.11826 5.40155 5.72186 5.46305C4.97881 5.58004 4.3908 5.75553 3.873 6.01352C3.59801 6.15001 3.31717 6.3165 3.12555 6.61949C2.81253 7.11446 2.62677 7.67693 2.57265 8.2919C2.46733 9.49034 2.76427 10.6648 3.36105 11.6487C2.97197 11.7717 2.61068 11.9127 2.27426 12.0807C1.8764 12.2772 1.31911 12.5442 1.12749 13.0122C0.80131 13.8101 1.12164 14.3081 1.853 14.7101C3.40201 15.5605 5.52147 15.9925 7.93348 15.9985V16C7.93933 16 7.94518 16 7.95103 16C7.95688 16 7.96273 16 7.96858 16V15.9985C10.3821 15.9925 12.5001 15.5605 14.0491 14.7101C14.7804 14.3096 15.1008 13.8101 14.7746 13.0122C14.5873 12.5442 14.03 12.2772 13.6322 12.0807ZM13.3748 7.38445C13.3791 7.38445 13.3952 7.38445 13.3996 7.38445C13.6556 7.39345 13.7755 7.50444 13.8136 7.76693C13.8648 8.11941 13.7697 8.45989 13.6805 8.71638C13.5386 9.13186 13.3397 9.51884 13.0778 9.89082C13.1159 9.71083 13.1436 9.53533 13.1612 9.36134C13.2358 8.61888 13.1846 8.00991 13.0003 7.45194C13.1305 7.41745 13.2548 7.38445 13.3748 7.38445ZM3.73697 8.00242C4.85594 8.53489 6.12557 8.78388 7.72285 8.78388C7.7287 8.78388 7.73455 8.78388 7.7404 8.78388C7.91739 8.78388 8.10169 8.78088 8.29623 8.77488C8.48492 8.76888 8.68092 8.75987 8.89155 8.74938C9.82915 8.69838 10.6556 8.53789 11.4206 8.2634C11.6224 8.19141 11.8184 8.10141 12.0042 7.99941C12.2792 9.16935 11.9033 10.8943 10.6322 12.0237C9.86572 12.7047 8.8857 13.0797 7.87351 13.0797C7.01929 13.0797 6.19578 12.8172 5.49222 12.3192C3.90225 11.1942 3.47222 9.31785 3.73697 8.00242ZM7.99637 14.8256C7.99052 14.8256 7.96712 14.8256 7.96127 14.8256C6.12264 14.8766 2.7394 14.0456 2.7511 13.5101C2.75695 13.2401 3.69747 12.9207 4.26793 12.7722C4.64092 13.1261 5.06657 13.4306 5.53756 13.6646C5.89885 13.8446 6.24844 13.9691 6.60534 14.0471C6.92713 14.1176 7.42884 14.2016 7.99491 14.2016C8.48346 14.2016 8.93397 14.1386 9.33037 14.0141C10.1597 13.7666 10.8823 13.3301 11.4996 12.7362C12.0378 12.8622 13.1524 13.2176 13.1583 13.5101C13.17 14.0471 9.835 14.8766 7.99637 14.8256Z" fill="#FCE6D2"/>
</svg>
