<svg width="16" height="16" viewBox="0 0 16 16" fill="none" xmlns="http://www.w3.org/2000/svg">
    <g clip-path="url(#clip0_143_3689)">
        <path d="M16 2.66667V4.00001C16 5.10001 15.1 6.00001 14 6.00001H12.6667C11.5667 6.00001 10.6667 5.10001 10.6667 4.00001V2.66667C10.6667 1.56667 11.5667 0.666673 12.6667 0.666673H14C15.1 0.666673 16 1.56667 16 2.66667ZM14 8.66667H11.3333C10.2333 8.66667 9.33334 9.56667 9.33334 10.6667V13.3333C9.33334 14.4333 10.2333 15.3333 11.3333 15.3333H14C15.1 15.3333 16 14.4333 16 13.3333V10.6667C16 9.56667 15.1 8.66667 14 8.66667ZM5.98001 0.686672C5.07334 -0.226661 3.58667 -0.219994 2.70001 0.666673L0.646673 2.60667C0.246673 2.98667 0.226673 3.62001 0.606673 4.02001C0.986673 4.42001 1.62001 4.44001 2.02001 4.06001L3.33334 2.82001V15C3.33334 15.5533 3.78001 16 4.33334 16C4.88667 16 5.33334 15.5533 5.33334 15V2.82001L6.64667 4.06001C6.84001 4.24001 7.08667 4.33334 7.33334 4.33334C7.60001 4.33334 7.86667 4.22667 8.06001 4.02001C8.44001 3.62001 8.42001 2.98667 8.02001 2.60667L5.98001 0.686672Z"
              fill="#D99768"/>
    </g>
    <defs>
        <clipPath id="clip0_143_3689">
            <rect width="16" height="16" fill="white"/>
        </clipPath>
    </defs>
</svg>
