<svg width="15" height="16" viewBox="0 0 15 16" fill="none" xmlns="http://www.w3.org/2000/svg">
    <path fill-rule="evenodd" clip-rule="evenodd"
          d="M7.33325 2.00272e-05L7.29219 6.97374e-06C6.81544 -0.000218272 6.04437 -0.000582516 5.3856 0.252789C5.03026 0.389459 4.67177 0.611827 4.40503 0.975568C4.13509 1.34366 3.99993 1.80097 3.99993 2.33335L1.33327 2.33335C0.660972 2.33335 -6.28233e-05 2.91622 -6.28233e-05 3.66668C-6.28233e-05 4.13844 0.251969 4.39026 0.422174 4.56033L0.4309 4.56905L0.902304 4.09764C0.73914 3.93448 0.666602 3.85345 0.666602 3.66668C0.666602 3.30757 1.00556 3.00001 1.33327 3.00001H1.62546L1.67068 3.40697L2.87222 14.2209C2.98476 15.2337 3.84089 16 4.85998 16H9.80652C10.8256 16 11.6817 15.2337 11.7943 14.2209L12.9958 3.40697L13.041 3.00001H13.3332C13.6609 3.00001 13.9999 3.30757 13.9999 3.66668C13.9999 3.85345 13.9274 3.93448 13.7642 4.09764L14.2356 4.56905L14.2443 4.56033C14.4145 4.39026 14.6666 4.13844 14.6666 3.66668C14.6666 2.91622 14.0055 2.33335 13.3332 2.33335L10.6666 2.33335C10.6666 1.80097 10.5314 1.34366 10.2615 0.975568C9.99473 0.611827 9.63624 0.389459 9.2809 0.252789C8.62213 -0.000582516 7.85106 -0.000218272 7.37431 6.97374e-06L7.33325 2.00272e-05ZM9.33325 2.33335C9.33325 2.0324 9.26008 1.8647 9.18627 1.76405C9.10926 1.65904 8.98859 1.56891 8.80226 1.49725C8.39696 1.34136 7.86063 1.33335 7.33325 1.33335C6.80587 1.33335 6.26954 1.34136 5.86424 1.49725C5.67792 1.56891 5.55724 1.65904 5.48024 1.76405C5.40642 1.8647 5.33326 2.0324 5.33326 2.33335H9.33325ZM4.19739 14.0736L3.07811 4.00001H11.5884L10.4691 14.0736C10.4316 14.4112 10.1462 14.6667 9.80652 14.6667H4.85998C4.52028 14.6667 4.23491 14.4112 4.19739 14.0736ZM5.50044 9.01849L5.33377 6.0185L5.99941 5.98152L6.16608 8.98151L5.50044 9.01849ZM8.66712 13.3143L9.00046 7.48098L9.66604 7.51902L9.3327 13.3523L8.66712 13.3143Z"
          fill="#583A2D"/>
</svg>
