<svg width="16" height="16" viewBox="0 0 16 16" fill="none" xmlns="http://www.w3.org/2000/svg">
    <g clip-path="url(#clip0_375_1274)">
        <path d="M10.6665 5.33334C10.5415 5.20836 10.3719 5.13815 10.1951 5.13815C10.0184 5.13815 9.84882 5.20836 9.7238 5.33334L7.9998 7.05734L6.2758 5.33334C6.15007 5.21191 5.98167 5.14471 5.80687 5.14623C5.63207 5.14775 5.46486 5.21786 5.34126 5.34146C5.21765 5.46507 5.14754 5.63228 5.14602 5.80708C5.1445 5.98187 5.2117 6.15028 5.33314 6.27601L7.05714 8.00001L5.33314 9.72401C5.2117 9.84975 5.1445 10.0181 5.14602 10.1929C5.14754 10.3677 5.21765 10.535 5.34126 10.6586C5.46486 10.7822 5.63207 10.8523 5.80687 10.8538C5.98167 10.8553 6.15007 10.7881 6.2758 10.6667L7.9998 8.94268L9.7238 10.6667C9.84954 10.7881 10.0179 10.8553 10.1927 10.8538C10.3675 10.8523 10.5347 10.7822 10.6583 10.6586C10.782 10.535 10.8521 10.3677 10.8536 10.1929C10.8551 10.0181 10.7879 9.84975 10.6665 9.72401L8.94247 8.00001L10.6665 6.27601C10.7915 6.15099 10.8617 5.98145 10.8617 5.80468C10.8617 5.6279 10.7915 5.45836 10.6665 5.33334Z"
              fill="#583A2D"/>
        <path d="M8 0C6.41775 0 4.87104 0.469192 3.55544 1.34824C2.23985 2.22729 1.21447 3.47672 0.608967 4.93853C0.00346629 6.40034 -0.15496 8.00887 0.153721 9.56072C0.462403 11.1126 1.22433 12.538 2.34315 13.6569C3.46197 14.7757 4.88743 15.5376 6.43928 15.8463C7.99113 16.155 9.59966 15.9965 11.0615 15.391C12.5233 14.7855 13.7727 13.7602 14.6518 12.4446C15.5308 11.129 16 9.58225 16 8C15.9977 5.87897 15.1541 3.84547 13.6543 2.34568C12.1545 0.845886 10.121 0.00229405 8 0ZM8 14.6667C6.68146 14.6667 5.39253 14.2757 4.2962 13.5431C3.19987 12.8106 2.34539 11.7694 1.84081 10.5512C1.33622 9.33305 1.2042 7.99261 1.46144 6.6994C1.71867 5.40619 2.35361 4.21831 3.28596 3.28596C4.21831 2.35361 5.4062 1.71867 6.6994 1.46143C7.99261 1.2042 9.33305 1.33622 10.5512 1.8408C11.7694 2.34539 12.8106 3.19987 13.5431 4.2962C14.2757 5.39253 14.6667 6.68146 14.6667 8C14.6647 9.76752 13.9617 11.4621 12.7119 12.7119C11.4621 13.9617 9.76752 14.6647 8 14.6667Z"
              fill="#583A2D"/>
    </g>
    <defs>
        <clipPath id="clip0_375_1274">
            <rect width="16" height="16" fill="white"/>
        </clipPath>
    </defs>
</svg>
