<svg width="60" height="60" viewBox="0 0 60 60" fill="none" xmlns="http://www.w3.org/2000/svg">
    <path d="M47.5 10.2158H42.25C41.6698 7.33345 40.1345 4.74357 37.9031 2.88269C35.6717 1.02181 32.8805 0.00371479 30 0H12.5C9.18601 0.00405531 6.00889 1.35074 3.66555 3.74466C1.3222 6.13857 0.00396964 9.38426 0 12.7698L0 35.7553C0.00628451 38.0427 0.763845 40.2618 2.15134 42.0571C3.53884 43.8524 5.47598 45.1201 7.6525 45.657C7.41691 46.9351 7.45717 48.2504 7.77048 49.511C8.08378 50.7716 8.66259 51.9471 9.46649 52.9556C10.2704 53.9641 11.28 54.7812 12.425 55.35C13.5699 55.9187 14.8225 56.2254 16.0954 56.2486C17.3683 56.2718 18.6309 56.0109 19.7949 55.4842C20.9589 54.9575 21.9964 54.1776 22.835 53.1991C23.6736 52.2205 24.2931 51.0667 24.6501 49.8184C25.0072 48.57 25.0934 47.257 24.9025 45.9711H35.1075C35.0432 46.3937 35.0089 46.8205 35.005 47.2481C35.005 49.6189 35.9269 51.8925 37.5678 53.5688C39.2088 55.2452 41.4344 56.187 43.755 56.187C46.0756 56.187 48.3012 55.2452 49.9422 53.5688C51.5831 51.8925 52.505 49.6189 52.505 47.2481C52.5022 46.7141 52.4511 46.1815 52.3525 45.657C54.5281 45.1191 56.4641 43.851 57.8506 42.0558C59.2371 40.2606 59.994 38.042 60 35.7553V22.9856C59.996 19.6001 58.6778 16.3544 56.3345 13.9605C53.9911 11.5666 50.814 10.2199 47.5 10.2158ZM55 22.9856V25.5395H42.5V15.3237H47.5C49.4891 15.3237 51.3968 16.1309 52.8033 17.5678C54.2098 19.0047 55 20.9535 55 22.9856ZM5 35.7553V12.7698C5 10.7377 5.79018 8.78889 7.1967 7.35201C8.60322 5.91513 10.5109 5.10791 12.5 5.10791H30C31.9891 5.10791 33.8968 5.91513 35.3033 7.35201C36.7098 8.78889 37.5 10.7377 37.5 12.7698V40.8632H10C8.67392 40.8632 7.40215 40.3251 6.46447 39.3672C5.52678 38.4093 5 37.11 5 35.7553ZM20 47.2481C20 48.2642 19.6049 49.2386 18.9017 49.957C18.1984 50.6754 17.2446 51.0791 16.25 51.0791C15.2554 51.0791 14.3016 50.6754 13.5983 49.957C12.8951 49.2386 12.5 48.2642 12.5 47.2481C12.5015 46.8116 12.5803 46.379 12.7325 45.9711H19.7675C19.9197 46.379 19.9985 46.8116 20 47.2481ZM43.75 51.0791C42.7554 51.0791 41.8016 50.6754 41.0984 49.957C40.3951 49.2386 40 48.2642 40 47.2481C40.0011 46.8116 40.0799 46.3789 40.2325 45.9711H47.2675C47.4201 46.3789 47.4989 46.8116 47.5 47.2481C47.5 48.2642 47.1049 49.2386 46.4016 49.957C45.6984 50.6754 44.7446 51.0791 43.75 51.0791ZM50 40.8632H42.5V30.6474H55V35.7553C55 37.11 54.4732 38.4093 53.5355 39.3672C52.5979 40.3251 51.3261 40.8632 50 40.8632Z"
          fill="#583A2D"/>
</svg>
