<svg width="16" height="16" viewBox="0 0 16 16" fill="none" xmlns="http://www.w3.org/2000/svg">
    <g clip-path="url(#clip0_375_718)">
        <path d="M12.3333 0.666748H3.66667C2.69453 0.667807 1.76252 1.05446 1.07511 1.74186C0.387707 2.42926 0.00105878 3.36128 0 4.33341L0 11.6667C0.00105878 12.6389 0.387707 13.5709 1.07511 14.2583C1.76252 14.9457 2.69453 15.3324 3.66667 15.3334H12.3333C13.3055 15.3324 14.2375 14.9457 14.9249 14.2583C15.6123 13.5709 15.9989 12.6389 16 11.6667V4.33341C15.9989 3.36128 15.6123 2.42926 14.9249 1.74186C14.2375 1.05446 13.3055 0.667807 12.3333 0.666748ZM12.3333 2.66675C12.7376 2.66809 13.1274 2.81778 13.4287 3.08741L9.09533 7.42075C8.80101 7.70186 8.40967 7.85872 8.00267 7.85872C7.59567 7.85872 7.20432 7.70186 6.91 7.42075L2.57667 3.08741C2.87656 2.819 3.2642 2.6694 3.66667 2.66675H12.3333ZM12.3333 13.3334H3.66667C3.22464 13.3334 2.80072 13.1578 2.48816 12.8453C2.17559 12.5327 2 12.1088 2 11.6667V5.34475L5.49267 8.83741C5.82184 9.16673 6.21267 9.42797 6.64283 9.6062C7.07299 9.78443 7.53405 9.87617 7.99967 9.87617C8.46529 9.87617 8.92635 9.78443 9.35651 9.6062C9.78666 9.42797 10.1775 9.16673 10.5067 8.83741L14 5.34475V11.6667C14 12.1088 13.8244 12.5327 13.5118 12.8453C13.1993 13.1578 12.7754 13.3334 12.3333 13.3334Z"
              fill="#FCE6D2"/>
    </g>
    <defs>
        <clipPath id="clip0_375_718">
            <rect width="16" height="16" fill="white"/>
        </clipPath>
    </defs>
</svg>
