<svg width="16" height="16" viewBox="0 0 16 16" fill="none" xmlns="http://www.w3.org/2000/svg">
    <path d="M6.47133 9.52867C6.732 9.78933 6.732 10.2107 6.47133 10.4713L2.276 14.6667H5.33333C5.702 14.6667 6 14.9653 6 15.3333C6 15.7013 5.702 16 5.33333 16H2C0.897333 16 0 15.1027 0 14V10.6667C0 10.2987 0.298 10 0.666667 10C1.03533 10 1.33333 10.2987 1.33333 10.6667V13.724L5.52867 9.52867C5.78933 9.268 6.21067 9.268 6.47133 9.52867ZM14 0H10.6667C10.298 0 10 0.298667 10 0.666667C10 1.03467 10.298 1.33333 10.6667 1.33333H13.724L9.52867 5.52867C9.268 5.78933 9.268 6.21067 9.52867 6.47133C9.65867 6.60133 9.82933 6.66667 10 6.66667C10.1707 6.66667 10.3413 6.60133 10.4713 6.47133L14.6667 2.276V5.33333C14.6667 5.70133 14.9647 6 15.3333 6C15.702 6 16 5.70133 16 5.33333V2C16 0.897333 15.1027 0 14 0Z"
          fill="#583A2D"/>
</svg>
