<svg width="17" height="16" viewBox="0 0 17 16" fill="none" xmlns="http://www.w3.org/2000/svg">
    <path d="M14.8775 5.24401L10.9434 1.25088C10.6346 0.937689 10.216 0.761797 9.77952 0.761902C9.34304 0.762006 8.92448 0.938098 8.61591 1.25144C8.30734 1.56478 8.13405 1.98971 8.13415 2.43273C8.13425 2.87576 8.30774 3.3006 8.61646 3.6138L11.2922 6.3297H1.64562C1.20917 6.3297 0.790604 6.50568 0.48199 6.81892C0.173377 7.13216 0 7.55701 0 8C0 8.44299 0.173377 8.86783 0.48199 9.18107C0.790604 9.49432 1.20917 9.67029 1.64562 9.67029H11.2922L8.61646 12.3862C8.30774 12.6994 8.13425 13.1242 8.13415 13.5673C8.13405 14.0103 8.30734 14.4352 8.61591 14.7486C8.92448 15.0619 9.34304 15.238 9.77952 15.2381C10.216 15.2382 10.6346 15.0623 10.9434 14.7491L14.8775 10.756C15.5963 10.0244 17 8.63732 17 7.99994C17 7.36256 15.5963 5.97564 14.8775 5.24401Z"
          fill="#FCE6D2"/>
</svg>
