<svg width="16" height="16" viewBox="0 0 16 16" fill="none" xmlns="http://www.w3.org/2000/svg">
    <g clip-path="url(#clip0_143_3691)">
        <path d="M15.873 10.582V13.2275C15.873 14.3188 14.9801 15.2116 13.8889 15.2116H11.2434C10.1521 15.2116 9.25923 14.3188 9.25923 13.2275V10.582C9.25923 9.49074 10.1521 8.59788 11.2434 8.59788H13.8889C14.9801 8.59788 15.873 9.49074 15.873 10.582ZM13.8889 0.661376H12.5661C11.4748 0.661376 10.582 1.55423 10.582 2.6455V3.96825C10.582 5.05952 11.4748 5.95238 12.5661 5.95238H13.8889C14.9801 5.95238 15.873 5.05952 15.873 3.96825V2.6455C15.873 1.55423 14.9801 0.661376 13.8889 0.661376ZM6.59389 11.8452L5.29097 13.0754V0.992063C5.29097 0.443122 4.84785 0 4.29891 0C3.74997 0 3.30685 0.443122 3.30685 0.992063V13.0754L2.00394 11.8452C1.60711 11.4683 0.978805 11.4881 0.601821 11.8849C0.224837 12.2817 0.244678 12.9101 0.641504 13.287L2.6587 15.1918C3.09521 15.6283 3.67722 15.873 4.29891 15.873C4.9206 15.873 5.496 15.6349 5.91267 15.2116L7.95632 13.287C8.35314 12.9101 8.37299 12.2817 7.996 11.8849C7.61902 11.4881 6.99071 11.4683 6.59389 11.8452Z"
              fill="#D99768"/>
    </g>
    <defs>
        <clipPath id="clip0_143_3691">
            <rect width="15.873" height="15.873" fill="white"/>
        </clipPath>
    </defs>
</svg>
