<svg width="16" height="16" viewBox="0 0 16 16" fill="none" xmlns="http://www.w3.org/2000/svg">
    <g clip-path="url(#clip0_135_511)">
        <path d="M12.3333 0.666626H3.66667C2.69453 0.667685 1.76252 1.05433 1.07511 1.74174C0.387707 2.42914 0.00105878 3.36116 0 4.33329L0 11.6666C0.00105878 12.6388 0.387707 13.5708 1.07511 14.2582C1.76252 14.9456 2.69453 15.3322 3.66667 15.3333H12.3333C13.3055 15.3322 14.2375 14.9456 14.9249 14.2582C15.6123 13.5708 15.9989 12.6388 16 11.6666V4.33329C15.9989 3.36116 15.6123 2.42914 14.9249 1.74174C14.2375 1.05433 13.3055 0.667685 12.3333 0.666626ZM12.3333 2.66663C12.7376 2.66797 13.1274 2.81766 13.4287 3.08729L9.09533 7.42063C8.80101 7.70174 8.40967 7.8586 8.00267 7.8586C7.59567 7.8586 7.20432 7.70174 6.91 7.42063L2.57667 3.08729C2.87656 2.81887 3.2642 2.66927 3.66667 2.66663H12.3333ZM12.3333 13.3333H3.66667C3.22464 13.3333 2.80072 13.1577 2.48816 12.8451C2.17559 12.5326 2 12.1087 2 11.6666V5.34463L5.49267 8.83729C5.82184 9.16661 6.21267 9.42784 6.64283 9.60608C7.07299 9.78431 7.53405 9.87604 7.99967 9.87604C8.46529 9.87604 8.92635 9.78431 9.35651 9.60608C9.78667 9.42784 10.1775 9.16661 10.5067 8.83729L14 5.34463V11.6666C14 12.1087 13.8244 12.5326 13.5118 12.8451C13.1993 13.1577 12.7754 13.3333 12.3333 13.3333Z"
              fill="#583A2D"/>
    </g>
    <defs>
        <clipPath id="clip0_135_511">
            <rect width="16" height="16" fill="white"/>
        </clipPath>
    </defs>
</svg>
