<svg width="16" height="16" viewBox="0 0 16 16" fill="none" xmlns="http://www.w3.org/2000/svg">
    <path d="M12.6667 2.72422H11.2667C11.1119 1.95559 10.7025 1.26495 10.1075 0.768718C9.51245 0.272483 8.76814 0.00099061 8 0H3.33333C2.4496 0.00108142 1.60237 0.360197 0.97748 0.998575C0.352588 1.63695 0.00105857 2.50247 0 3.40527L0 9.53476C0.00167587 10.1447 0.203692 10.7365 0.573691 11.2152C0.94369 11.694 1.46026 12.032 2.04067 12.1752C1.97784 12.516 1.98858 12.8668 2.07213 13.2029C2.15568 13.5391 2.31002 13.8526 2.5244 14.1215C2.73877 14.3904 3.00801 14.6083 3.31333 14.76C3.61864 14.9117 3.95267 14.9934 4.29211 14.9996C4.63155 15.0058 4.96823 14.9362 5.27864 14.7958C5.58905 14.6553 5.86572 14.4474 6.08934 14.1864C6.31296 13.9255 6.47815 13.6178 6.57337 13.2849C6.66859 12.952 6.69156 12.6019 6.64067 12.259H9.362C9.34485 12.3717 9.33571 12.4855 9.33467 12.5995C9.33467 13.2317 9.5805 13.838 10.0181 14.285C10.4557 14.7321 11.0492 14.9832 11.668 14.9832C12.2868 14.9832 12.8803 14.7321 13.3179 14.285C13.7555 13.838 14.0013 13.2317 14.0013 12.5995C14.0006 12.4571 13.987 12.3151 13.9607 12.1752C14.5408 12.0318 15.0571 11.6936 15.4268 11.2149C15.7966 10.7362 15.9984 10.1445 16 9.53476V6.12949C15.9989 5.22668 15.6474 4.36117 15.0225 3.72279C14.3976 3.08441 13.5504 2.7253 12.6667 2.72422ZM14.6667 6.12949V6.81054H11.3333V4.08632H12.6667C13.1971 4.08632 13.7058 4.30159 14.0809 4.68475C14.456 5.06792 14.6667 5.58761 14.6667 6.12949ZM1.33333 9.53476V3.40527C1.33333 2.86339 1.54405 2.3437 1.91912 1.96054C2.29419 1.57737 2.8029 1.36211 3.33333 1.36211H8C8.53043 1.36211 9.03914 1.57737 9.41421 1.96054C9.78929 2.3437 10 2.86339 10 3.40527V10.8969H2.66667C2.31304 10.8969 1.97391 10.7534 1.72386 10.4979C1.47381 10.2425 1.33333 9.89601 1.33333 9.53476ZM5.33333 12.5995C5.33333 12.8704 5.22798 13.1303 5.04044 13.3219C4.8529 13.5135 4.59855 13.6211 4.33333 13.6211C4.06812 13.6211 3.81376 13.5135 3.62623 13.3219C3.43869 13.1303 3.33333 12.8704 3.33333 12.5995C3.33374 12.4831 3.35475 12.3677 3.39533 12.259H5.27133C5.31192 12.3677 5.33292 12.4831 5.33333 12.5995ZM11.6667 13.6211C11.4015 13.6211 11.1471 13.5135 10.9596 13.3219C10.772 13.1303 10.6667 12.8704 10.6667 12.5995C10.667 12.4831 10.688 12.3677 10.7287 12.259H12.6047C12.6454 12.3677 12.6664 12.4831 12.6667 12.5995C12.6667 12.8704 12.5613 13.1303 12.3738 13.3219C12.1862 13.5135 11.9319 13.6211 11.6667 13.6211ZM13.3333 10.8969H11.3333V8.17265H14.6667V9.53476C14.6667 9.89601 14.5262 10.2425 14.2761 10.4979C14.0261 10.7534 13.687 10.8969 13.3333 10.8969Z"
          fill="#FCE6D2"/>
</svg>
