<svg width="24" height="24" viewBox="0 0 24 24" fill="none" xmlns="http://www.w3.org/2000/svg">
<g clip-path="url(#clip0_223_1394)">
<path d="M23.561 21.4452L18.9159 16.7981C22.3916 12.1533 21.4439 5.57034 16.7991 2.09462C12.1543 -1.3811 5.57131 -0.433388 2.09559 4.21139C-1.38013 8.85616 -0.432411 15.4392 4.21236 18.9149C7.94343 21.7069 13.068 21.7069 16.7991 18.9149L21.4462 23.562C22.0302 24.146 22.977 24.146 23.561 23.562C24.1449 22.978 24.1449 22.0312 23.561 21.4472L23.561 21.4452ZM10.5445 18.0179C6.4164 18.0179 3.06998 14.6715 3.06998 10.5435C3.06998 6.41542 6.4164 3.06901 10.5445 3.06901C14.6725 3.06901 18.0189 6.41542 18.0189 10.5435C18.0145 14.6697 14.6707 18.0136 10.5445 18.0179Z" fill="#FCE6D2"/>
</g>
<defs>
<clipPath id="clip0_223_1394">
<rect width="24" height="24" fill="white"/>
</clipPath>
</defs>
</svg>
