<svg width="16" height="16" viewBox="0 0 16 16" fill="none" xmlns="http://www.w3.org/2000/svg">
    <g clip-path="url(#clip0_452_1465)">
        <path d="M11.432 15.6254C11.9408 15.6231 12.4358 15.4597 12.846 15.1587C13.2652 14.8638 13.578 14.4415 13.7379 13.9545C13.8978 13.4676 13.8962 12.942 13.7334 12.456L12.9534 10.0434L15.0067 8.54202C15.4184 8.24122 15.7244 7.81791 15.881 7.33265C16.0375 6.84739 16.0366 6.32505 15.8783 5.84037C15.7199 5.35568 15.4124 4.93349 14.9996 4.63418C14.5868 4.33488 14.0899 4.17381 13.58 4.17402H11.0667L10.3034 1.79402C10.1467 1.30665 9.8394 0.881568 9.42571 0.580008C9.01202 0.278447 8.5133 0.115967 8.00136 0.115967C7.48943 0.115967 6.99071 0.278447 6.57702 0.580008C6.16333 0.881568 5.85602 1.30665 5.69936 1.79402L4.93337 4.17402H2.42003C1.9102 4.17395 1.41342 4.33512 1.00073 4.63448C0.588042 4.93383 0.280599 5.35603 0.122376 5.84069C-0.0358467 6.32534 -0.0367413 6.84762 0.11982 7.33281C0.27638 7.818 0.582374 8.24125 0.994032 8.54202L3.0467 10.0434L2.2667 12.456C2.10944 12.9427 2.11059 13.4667 2.26999 13.9527C2.42938 14.4387 2.73882 14.8616 3.15377 15.1606C3.56873 15.4595 4.06782 15.6192 4.57927 15.6166C5.09071 15.614 5.58815 15.4492 6.00003 15.146L8.00003 13.6754L10 15.1467C10.4139 15.4553 10.9158 15.6231 11.432 15.6254ZM13.58 6.17402C13.668 6.17401 13.7538 6.20182 13.825 6.25346C13.8963 6.30511 13.9494 6.37796 13.9767 6.46159C14.0041 6.54523 14.0043 6.63537 13.9774 6.71914C13.9504 6.80291 13.8977 6.87602 13.8267 6.92802L11.1894 8.85535C11.0195 8.97953 10.8932 9.15409 10.8283 9.35422C10.7635 9.55435 10.7634 9.76983 10.828 9.97002L11.828 13.07C11.8558 13.1541 11.8561 13.2448 11.8288 13.3291C11.8016 13.4134 11.7483 13.4868 11.6766 13.5387C11.6049 13.5907 11.5185 13.6185 11.43 13.6181C11.3414 13.6178 11.2553 13.5892 11.184 13.5367L8.59136 11.6294C8.41961 11.503 8.21194 11.4348 7.9987 11.4348C7.78545 11.4348 7.57779 11.503 7.40603 11.6294L4.81336 13.536C4.74219 13.5891 4.65593 13.618 4.56717 13.6186C4.4784 13.6192 4.39177 13.5914 4.31989 13.5393C4.24801 13.4872 4.19464 13.4136 4.16757 13.329C4.14049 13.2445 4.14112 13.1535 4.16937 13.0694L5.16937 9.96935C5.23404 9.76917 5.23394 9.55368 5.16906 9.35355C5.10419 9.15343 4.97786 8.97886 4.80803 8.85469L2.17137 6.92735C2.10042 6.87539 2.04771 6.80234 2.02075 6.71863C1.99379 6.63493 1.99396 6.54485 2.02124 6.46124C2.04851 6.37764 2.1015 6.30479 2.17264 6.25309C2.24378 6.20139 2.32943 6.17349 2.41737 6.17335H5.6667C5.8785 6.1733 6.08481 6.106 6.2559 5.98116C6.42699 5.85632 6.55403 5.68037 6.6187 5.47869L7.60003 2.40469C7.62706 2.32055 7.6801 2.24717 7.7515 2.19511C7.82291 2.14305 7.909 2.115 7.99736 2.115C8.08573 2.115 8.17182 2.14305 8.24323 2.19511C8.31463 2.24717 8.36767 2.32055 8.3947 2.40469L9.38336 5.47935C9.44793 5.68071 9.57466 5.85642 9.74535 5.98124C9.91604 6.10605 10.1219 6.17355 10.3334 6.17402H13.58Z"
              fill="#583A2D"/>
    </g>
    <defs>
        <clipPath id="clip0_452_1465">
            <rect width="16" height="16" fill="white" transform="matrix(-1 0 0 1 16 0)"/>
        </clipPath>
    </defs>
</svg>
