<svg width="24" height="24" viewBox="0 0 24 24" fill="none" xmlns="http://www.w3.org/2000/svg">
<g clip-path="url(#clip0_135_529)">
<path d="M6.85189 23.4379C6.08869 23.4345 5.34618 23.1895 4.73089 22.7379C4.1021 22.2956 3.6329 21.6621 3.39309 20.9316C3.15328 20.2012 3.15566 19.4129 3.39989 18.6839L4.56989 15.0649L1.48989 12.8129C0.872334 12.3617 0.41331 11.7267 0.178494 10.9989C-0.0563226 10.271 -0.0548987 9.48746 0.182562 8.76043C0.420022 8.0334 0.881351 7.40011 1.50054 6.95116C2.11974 6.5022 2.86507 6.2606 3.62989 6.26091H7.39989L8.54489 2.69091C8.77988 1.95985 9.24084 1.32223 9.86137 0.869889C10.4819 0.417549 11.23 0.173828 11.9979 0.173828C12.7658 0.173828 13.5139 0.417549 14.1344 0.869889C14.7549 1.32223 15.2159 1.95985 15.4509 2.69091L16.5999 6.26091H20.3699C21.1346 6.26081 21.8798 6.50257 22.4988 6.9516C23.1179 7.40063 23.579 8.03393 23.8164 8.76091C24.0537 9.48789 24.0551 10.2713 23.8202 10.9991C23.5854 11.7269 23.1264 12.3618 22.5089 12.8129L19.4299 15.0649L20.5999 18.6839C20.8358 19.4139 20.8341 20.1999 20.595 20.9289C20.3559 21.6579 19.8917 22.2922 19.2693 22.7407C18.6468 23.1892 17.8982 23.4287 17.131 23.4248C16.3639 23.4209 15.6177 23.1737 14.9999 22.7189L11.9999 20.5129L8.99989 22.7199C8.37915 23.1829 7.62627 23.4346 6.85189 23.4379ZM3.62989 9.26091C3.4979 9.26089 3.36928 9.3026 3.26241 9.38008C3.15554 9.45755 3.0759 9.56682 3.03485 9.69227C2.99381 9.81772 2.99348 9.95294 3.03389 10.0786C3.07431 10.2042 3.15341 10.3139 3.25989 10.3919L7.21589 13.2829C7.47063 13.4692 7.66013 13.731 7.75744 14.0312C7.85475 14.3314 7.85491 14.6546 7.75789 14.9549L6.25789 19.6049C6.21627 19.731 6.21584 19.8671 6.25668 19.9935C6.29751 20.1199 6.37748 20.2301 6.48504 20.308C6.59259 20.3859 6.72215 20.4276 6.85497 20.4271C6.98779 20.4265 7.11699 20.3837 7.22389 20.3049L11.1129 17.4439C11.3705 17.2543 11.682 17.1521 12.0019 17.1521C12.3218 17.1521 12.6333 17.2543 12.8909 17.4439L16.7799 20.3039C16.8867 20.3835 17.016 20.4269 17.1492 20.4278C17.2823 20.4287 17.4123 20.387 17.5201 20.3089C17.6279 20.2307 17.708 20.1202 17.7486 19.9934C17.7892 19.8666 17.7883 19.7301 17.7459 19.6039L16.2459 14.9539C16.1489 14.6536 16.149 14.3304 16.2463 14.0302C16.3437 13.73 16.5332 13.4682 16.7879 13.2819L20.7429 10.3909C20.8493 10.313 20.9284 10.2034 20.9688 10.0778C21.0093 9.95227 21.009 9.81715 20.9681 9.69174C20.9272 9.56634 20.8477 9.45706 20.741 9.37952C20.6343 9.30197 20.5058 9.26011 20.3739 9.25991H15.4999C15.1822 9.25983 14.8727 9.15888 14.6161 8.97162C14.3594 8.78435 14.1689 8.52044 14.0719 8.21791L12.5999 3.60691C12.5594 3.48071 12.4798 3.37063 12.3727 3.29254C12.2656 3.21445 12.1364 3.17238 12.0039 3.17238C11.8713 3.17238 11.7422 3.21445 11.6351 3.29254C11.528 3.37063 11.4484 3.48071 11.4079 3.60691L9.92489 8.21891C9.82805 8.52095 9.63795 8.78451 9.38191 8.97174C9.12587 9.15896 8.81708 9.2602 8.49989 9.26091H3.62989Z" fill="#FCE6D2"/>
</g>
<defs>
<clipPath id="clip0_135_529">
<rect width="24" height="24" fill="white"/>
</clipPath>
</defs>
</svg>
