<svg width="22" height="22" viewBox="0 0 22 22" fill="none" xmlns="http://www.w3.org/2000/svg">
    <path d="M13.75 16.1242L13.75 5.87583C13.7492 5.69454 13.6947 5.51754 13.5934 5.36722C13.492 5.21691 13.3484 5.10001 13.1806 5.03133C13.0128 4.96265 12.8285 4.94526 12.6508 4.98137C12.4731 5.01747 12.3102 5.10544 12.1825 5.23416L7.0675 10.3492C6.98158 10.4344 6.91339 10.5358 6.86685 10.6475C6.82031 10.7592 6.79635 10.879 6.79635 11C6.79635 11.121 6.82031 11.2408 6.86685 11.3525C6.91339 11.4642 6.98158 11.5656 7.0675 11.6508L12.1825 16.7658C12.3102 16.8946 12.4731 16.9825 12.6508 17.0186C12.8285 17.0547 13.0128 17.0373 13.1806 16.9687C13.3484 16.9 13.492 16.7831 13.5934 16.6328C13.6947 16.4825 13.7492 16.3055 13.75 16.1242Z"
          fill="#D99768"/>
</svg>
