<svg width="22" height="22" viewBox="0 0 22 22" fill="none" xmlns="http://www.w3.org/2000/svg">
    <path d="M8.25 16.1242L8.25 5.87583C8.25076 5.69454 8.30526 5.51754 8.40661 5.36722C8.50796 5.21691 8.65161 5.10001 8.81939 5.03133C8.98717 4.96265 9.17154 4.94526 9.34921 4.98137C9.52687 5.01747 9.68983 5.10544 9.8175 5.23416L14.9325 10.3492C15.0184 10.4344 15.0866 10.5358 15.1332 10.6475C15.1797 10.7592 15.2036 10.879 15.2036 11C15.2036 11.121 15.1797 11.2408 15.1332 11.3525C15.0866 11.4642 15.0184 11.5656 14.9325 11.6508L9.8175 16.7658C9.68983 16.8946 9.52687 16.9825 9.34921 17.0186C9.17154 17.0547 8.98717 17.0373 8.81939 16.9687C8.65161 16.9 8.50796 16.7831 8.40661 16.6328C8.30526 16.4825 8.25076 16.3055 8.25 16.1242Z"
          fill="#D99768"/>
</svg>
