<svg width="16" height="16" viewBox="0 0 16 16" fill="none" xmlns="http://www.w3.org/2000/svg">
    <g clip-path="url(#clip0_106_146)">
        <path d="M11.6667 16C6.23401 16.1527 -3.38333 6.52467 1.24134 1.292C1.25801 1.276 1.96934 0.656 1.96934 0.656C2.41579 0.243296 3.0028 0.0163593 3.61076 0.021438C4.21871 0.0265167 4.80185 0.263228 5.24134 0.683333L6.67601 2.22867C7.09861 2.67032 7.33232 3.25936 7.32746 3.87061C7.32261 4.48186 7.07957 5.06712 6.65001 5.502L6.39134 5.76467C7.1617 7.47059 8.52464 8.83922 10.2273 9.61667L10.5013 9.35C10.9457 8.92673 11.536 8.69064 12.1497 8.69064C12.7634 8.69064 13.3536 8.92673 13.798 9.35L15.2893 10.7333C15.7311 11.1649 15.9846 11.7533 15.9949 12.3708C16.0051 12.9882 15.7712 13.5847 15.344 14.0307C15.344 14.0307 14.724 14.7413 14.708 14.758C14.3085 15.156 13.834 15.4708 13.3119 15.684C12.7898 15.8972 12.2306 16.0046 11.6667 16ZM2.63334 2.73333C-0.605992 6.74533 9.76267 16.5153 13.27 13.3667C13.27 13.3667 13.886 12.6607 13.9027 12.6447C13.9652 12.5822 14.0003 12.4974 14.0003 12.409C14.0003 12.3206 13.9652 12.2358 13.9027 12.1733L12.4107 10.7907C12.2107 10.624 12.098 10.622 11.9127 10.764L11.1553 11.5093C11.0187 11.6437 10.8464 11.736 10.6588 11.7753C10.4713 11.8145 10.2764 11.799 10.0973 11.7307C8.76709 11.2357 7.55882 10.4604 6.55443 9.45752C5.55004 8.45463 4.773 7.24751 4.27601 5.918C4.20367 5.73753 4.18551 5.53988 4.22376 5.34925C4.262 5.15862 4.35499 4.98327 4.49134 4.84467L5.23001 4.094C5.26365 4.06412 5.29068 4.02755 5.30937 3.98662C5.32807 3.94569 5.33802 3.90132 5.33858 3.85633C5.33915 3.81133 5.33032 3.76672 5.31265 3.72534C5.29499 3.68396 5.26889 3.64672 5.23601 3.616L3.80001 2.07067C3.73647 2.01757 3.65504 1.99075 3.57238 1.99571C3.48972 2.00067 3.41208 2.03702 3.35534 2.09733C3.33934 2.114 2.63334 2.73333 2.63334 2.73333ZM16 6.33333C15.9981 4.65422 15.3302 3.04444 14.1429 1.85713C12.9556 0.669824 11.3458 0.00194086 9.66667 0C9.40146 0 9.1471 0.105357 8.95957 0.292893C8.77203 0.48043 8.66667 0.734784 8.66667 1C8.66667 1.26522 8.77203 1.51957 8.95957 1.70711C9.1471 1.89464 9.40146 2 9.66667 2C10.8155 2.00141 11.9169 2.45841 12.7292 3.27076C13.5416 4.08311 13.9986 5.1845 14 6.33333C14 6.59855 14.1054 6.8529 14.2929 7.04044C14.4804 7.22798 14.7348 7.33333 15 7.33333C15.2652 7.33333 15.5196 7.22798 15.7071 7.04044C15.8947 6.8529 16 6.59855 16 6.33333ZM12.6667 6.33333C12.6658 5.53795 12.3494 4.77541 11.787 4.21299C11.2246 3.65057 10.4621 3.33422 9.66667 3.33333C9.40146 3.33333 9.1471 3.43869 8.95957 3.62623C8.77203 3.81376 8.66667 4.06812 8.66667 4.33333C8.66667 4.59855 8.77203 4.8529 8.95957 5.04044C9.1471 5.22798 9.40146 5.33333 9.66667 5.33333C9.93189 5.33333 10.1862 5.43869 10.3738 5.62623C10.5613 5.81376 10.6667 6.06812 10.6667 6.33333C10.6667 6.59855 10.772 6.8529 10.9596 7.04044C11.1471 7.22798 11.4015 7.33333 11.6667 7.33333C11.9319 7.33333 12.1862 7.22798 12.3738 7.04044C12.5613 6.8529 12.6667 6.59855 12.6667 6.33333Z"
              fill="#583A2D"/>
    </g>
    <defs>
        <clipPath id="clip0_106_146">
            <rect width="16" height="16" fill="white"/>
        </clipPath>
    </defs>
</svg>
