<svg width="84" height="36" viewBox="0 0 84 36" fill="none" xmlns="http://www.w3.org/2000/svg">
    <g clip-path="url(#clip0_67_2663)">
        <path fill-rule="evenodd" clip-rule="evenodd"
              d="M38.2362 11.6599V17.1391H40.6148C41.3367 17.1555 41.96 17.0571 42.485 16.8766C42.9935 16.6961 43.4036 16.4009 43.6661 15.9907C43.9286 15.5806 44.0762 15.0393 44.0762 14.3667C44.0762 13.448 43.8137 12.7754 43.2724 12.3325C42.7474 11.8896 41.8944 11.6599 40.7625 11.6599H38.2362ZM38.2362 25.0625V19.6326H40.5984C42.042 19.6326 43.2888 19.4521 44.2895 19.1076C45.2902 18.7631 46.0776 18.2054 46.6353 17.4344C47.1931 16.6633 47.472 15.6463 47.472 14.3667C47.472 12.6442 46.9142 11.3482 45.7823 10.4952C44.6504 9.62574 42.9279 9.19922 40.6148 9.19922H38.2362H36.5301H34.906V25.0625H38.2362ZM60.2942 23.6494L60.2943 23.6518C60.3107 24.111 60.3599 24.5865 60.4091 25.0621L60.4092 25.0626H57.2102C57.1774 24.9478 57.1282 24.7673 57.079 24.5541C57.0134 24.3408 56.9806 24.1275 56.9477 23.9143H56.8329C56.554 24.1275 56.2587 24.3408 55.9142 24.5377C55.5697 24.7509 55.1432 24.915 54.6347 25.0298C54.1261 25.161 53.5028 25.2267 52.781 25.2267C51.5014 25.2267 50.4843 24.915 49.7133 24.2916C48.9423 23.6682 48.565 22.7824 48.565 21.6504C48.565 20.7482 48.8275 20.0264 49.336 19.4686C49.8446 18.9109 50.6484 18.4843 51.7147 18.2383C52.781 17.9922 54.1918 17.8446 55.8979 17.8446H56.9477V17.3852C56.9477 16.9915 56.8493 16.6634 56.6361 16.4009C56.4228 16.1385 56.1275 15.958 55.7174 15.8596C55.3073 15.7612 54.8316 15.712 54.241 15.712C53.634 15.712 53.0271 15.7612 52.4037 15.8596C51.7803 15.958 51.2225 16.0893 50.7304 16.2533C50.2382 16.4174 49.8281 16.5814 49.5164 16.7454V14.3668C50.025 14.1043 50.7304 13.8746 51.6327 13.6942C52.5349 13.4973 53.5684 13.4153 54.7495 13.4153C55.9963 13.4153 57.0298 13.5301 57.8336 13.7926C58.6374 14.0387 59.2444 14.4652 59.6545 15.0558C60.0646 15.6463 60.2615 16.4338 60.2615 17.4016V22.2574C60.2615 22.7323 60.2779 23.1909 60.2942 23.6494ZM56.9642 19.7803H55.9799C54.9956 19.7803 54.2082 19.8295 53.6176 19.9444C53.027 20.0592 52.6005 20.2396 52.338 20.4857C52.0756 20.7482 51.9443 21.0927 51.9443 21.5356C51.9443 21.8637 52.0263 22.159 52.174 22.3886C52.3216 22.6183 52.5677 22.7988 52.8794 22.93C53.1911 23.0612 53.6012 23.1433 54.0934 23.1433C54.7495 23.1433 55.3073 23.0284 55.7994 22.8152C56.2751 22.6019 56.6689 22.3066 56.9805 21.9293V19.7803H56.9642ZM63.2872 25.9157V28.2944C63.8941 28.5077 64.5339 28.6061 65.2065 28.5897C65.8955 28.5897 66.5189 28.5077 67.0274 28.36C67.5524 28.2124 68.0117 27.9663 68.4218 27.6218C68.8319 27.2773 69.1928 26.8672 69.5373 26.3587C69.8654 25.8501 70.1771 25.2595 70.4724 24.5541L75.1149 13.5794H71.9652L68.6074 22.1776L65.026 13.5794H61.5811L66.8462 25.3235C66.7721 25.4428 66.6963 25.5527 66.6173 25.6533C66.4368 25.8829 66.2072 26.0634 65.9447 26.1782C65.6822 26.293 65.3541 26.3423 64.9604 26.3423C64.5831 26.3423 64.2714 26.3094 64.0089 26.2274C63.73 26.1618 63.5004 26.047 63.2872 25.9157Z"
              fill="black"/>
        <rect x="8.0553" y="6.91162" width="21.8785" height="21.8785" rx="10.9392" fill="#FC3F1D"/>
        <path d="M20.5362 24.4254H22.8217V11.2983H19.4974C16.1542 11.2983 14.3977 13.0171 14.3977 15.5481C14.3977 17.5691 15.3609 18.759 17.0797 19.9867L14.0955 24.4254H16.5698L19.894 19.4578L18.7419 18.6834C17.3442 17.739 16.6642 17.0024 16.6642 15.4158C16.6642 14.0181 17.6464 13.0737 19.5163 13.0737H20.5362V24.4254Z"
              fill="white"/>
        <path fill-rule="evenodd" clip-rule="evenodd"
              d="M18 0L66 0C75.9411 0 84 8.05888 84 18C84 27.9411 75.9411 36 66 36H18C8.05886 36 0 27.9411 0 18C0 8.05888 8.05888 0 18 0ZM18 1.59116C8.93765 1.59116 1.59116 8.93765 1.59116 18C1.59116 27.0624 8.93763 34.4088 18 34.4088H66C75.0624 34.4088 82.4088 27.0624 82.4088 18C82.4088 8.93765 75.0624 1.59116 66 1.59116H18Z"
              fill="black"/>
    </g>
    <defs>
        <clipPath id="clip0_67_2663">
            <rect width="84" height="36" fill="white"/>
        </clipPath>
    </defs>
</svg>
