<svg width="620" height="361" viewBox="0 0 620 361" fill="none" xmlns="http://www.w3.org/2000/svg">
    <rect width="620" height="361" fill="white"/>
    <path d="M292.768 183.288C291.029 183.288 289.6 182.728 288.48 181.608C287.36 180.488 286.8 179.059 286.8 177.32C286.8 175.571 287.371 174.147 288.512 173.048C289.653 171.939 291.093 171.384 292.832 171.384C293.643 171.384 294.421 171.539 295.168 171.848C295.915 172.157 296.491 172.589 296.896 173.144L295.648 174.104C295.371 173.709 294.976 173.389 294.464 173.144C293.952 172.899 293.408 172.776 292.832 172.776C291.552 172.776 290.512 173.213 289.712 174.088C288.923 174.963 288.528 176.04 288.528 177.32C288.528 178.621 288.917 179.709 289.696 180.584C290.475 181.448 291.504 181.88 292.784 181.88C294.117 181.88 295.131 181.379 295.824 180.376L297.088 181.24C296.085 182.605 294.645 183.288 292.768 183.288ZM299.912 183V176.648H297.336V175.416H303.992V176.648H301.416V183H299.912ZM307.801 183.192C307.481 183.192 307.166 183.149 306.857 183.064C306.547 182.979 306.254 182.851 305.977 182.68C305.699 182.509 305.475 182.269 305.305 181.96C305.134 181.64 305.049 181.272 305.049 180.856C305.049 180.419 305.15 180.04 305.353 179.72C305.566 179.389 305.833 179.139 306.153 178.968C306.473 178.787 306.878 178.648 307.369 178.552C307.87 178.445 308.339 178.376 308.777 178.344C309.225 178.312 309.742 178.296 310.329 178.296V178.088C310.329 177.544 310.158 177.133 309.817 176.856C309.486 176.568 309.033 176.424 308.457 176.424C307.603 176.424 306.883 176.717 306.297 177.304L305.497 176.344C306.286 175.587 307.321 175.208 308.601 175.208C309.646 175.208 310.435 175.485 310.969 176.04C311.502 176.584 311.769 177.299 311.769 178.184V181.496C311.769 182.157 311.806 182.659 311.881 183H310.521C310.435 182.637 310.393 182.275 310.393 181.912H310.345C309.779 182.765 308.931 183.192 307.801 183.192ZM308.137 182.008C308.819 182.008 309.353 181.805 309.737 181.4C310.131 180.984 310.329 180.445 310.329 179.784V179.384H309.961C307.71 179.384 306.585 179.864 306.585 180.824C306.585 181.24 306.734 181.544 307.033 181.736C307.331 181.917 307.699 182.008 308.137 182.008ZM315.88 183V176.648H313.304V175.416H319.96V176.648H317.384V183H315.88ZM324.894 183.208C323.731 183.208 322.771 182.84 322.014 182.104C321.267 181.368 320.894 180.408 320.894 179.224C320.894 178.051 321.267 177.091 322.014 176.344C322.76 175.587 323.694 175.208 324.814 175.208C325.934 175.208 326.819 175.565 327.47 176.28C328.131 176.984 328.462 177.939 328.462 179.144C328.462 179.368 328.456 179.539 328.446 179.656H322.43C322.451 180.307 322.702 180.856 323.182 181.304C323.662 181.741 324.232 181.96 324.894 181.96C325.843 181.96 326.579 181.576 327.102 180.808L328.158 181.656C327.358 182.691 326.27 183.208 324.894 183.208ZM322.43 178.536H326.942C326.92 177.907 326.728 177.395 326.366 177C326.003 176.595 325.486 176.392 324.814 176.392C324.174 176.392 323.63 176.6 323.182 177.016C322.734 177.432 322.483 177.939 322.43 178.536ZM335.666 173.32C335.25 173.693 334.7 173.88 334.018 173.88C333.335 173.88 332.78 173.688 332.354 173.304C331.938 172.92 331.687 172.397 331.602 171.736L332.482 171.608C332.546 171.992 332.716 172.291 332.994 172.504C333.271 172.717 333.612 172.824 334.018 172.824C334.423 172.824 334.764 172.717 335.042 172.504C335.319 172.291 335.49 171.992 335.554 171.608L336.434 171.784C336.348 172.435 336.092 172.947 335.666 173.32ZM330.562 183V175.416H332.066V180.888H332.082L335.97 175.416H337.618V183H336.114V177.512H336.082L332.21 183H330.562ZM340.202 183V175.416H341.706V178.424H345.466V175.416H346.97V183H345.466V179.656H341.706V183H340.202ZM349.562 183V175.416H351.066V178.168H352.794C353.732 178.168 354.468 178.376 355.002 178.792C355.546 179.197 355.818 179.795 355.818 180.584C355.818 181.363 355.551 181.96 355.018 182.376C354.484 182.792 353.748 183 352.81 183H349.562ZM351.066 181.8H352.618C353.738 181.8 354.298 181.4 354.298 180.6C354.298 179.768 353.738 179.352 352.618 179.352H351.066V181.8ZM357.242 183V175.416H358.746V183H357.242ZM366.447 173.32C366.031 173.693 365.482 173.88 364.799 173.88C364.116 173.88 363.562 173.688 363.135 173.304C362.719 172.92 362.468 172.397 362.383 171.736L363.263 171.608C363.327 171.992 363.498 172.291 363.775 172.504C364.052 172.717 364.394 172.824 364.799 172.824C365.204 172.824 365.546 172.717 365.823 172.504C366.1 172.291 366.271 171.992 366.335 171.608L367.215 171.784C367.13 172.435 366.874 172.947 366.447 173.32ZM361.343 183V175.416H362.847V180.888H362.863L366.751 175.416H368.399V183H366.895V177.512H366.863L362.991 183H361.343Z"
          fill="black"/>
    <path d="M287.72 149V134.84H289.7V141.08H289.74L296.06 134.84H298.8L291.92 141.32L299.22 149H296.38L289.74 141.68H289.7V149H287.72ZM300.804 153.8V139.52H302.644V141H302.704C303.024 140.48 303.484 140.06 304.084 139.74C304.684 139.42 305.364 139.26 306.124 139.26C307.51 139.26 308.644 139.74 309.524 140.7C310.417 141.647 310.864 142.827 310.864 144.24C310.864 145.667 310.424 146.86 309.544 147.82C308.664 148.78 307.51 149.26 306.084 149.26C305.404 149.26 304.764 149.113 304.164 148.82C303.564 148.513 303.09 148.1 302.744 147.58H302.684V153.8H300.804ZM305.764 147.68C306.75 147.68 307.524 147.347 308.084 146.68C308.644 146 308.924 145.187 308.924 144.24C308.924 143.293 308.644 142.487 308.084 141.82C307.524 141.153 306.75 140.82 305.764 140.82C304.83 140.82 304.064 141.16 303.464 141.84C302.864 142.52 302.564 143.327 302.564 144.26C302.564 145.193 302.864 146 303.464 146.68C304.064 147.347 304.83 147.68 305.764 147.68ZM313.859 153.8C313.419 153.8 313.006 153.753 312.619 153.66L312.799 152C313.119 152.107 313.433 152.16 313.739 152.16C314.193 152.16 314.546 152.033 314.799 151.78C315.053 151.54 315.286 151.14 315.499 150.58L316.099 149L312.039 139.52H314.139L317.079 146.96H317.119L319.739 139.52H321.739L317.139 151.24C316.806 152.107 316.393 152.747 315.899 153.16C315.419 153.587 314.739 153.8 313.859 153.8ZM323.558 149V139.52H331.958V149H330.078V141.06H325.438V149H323.558ZM335.198 149V139.52H337.078V143.28H341.778V139.52H343.658V149H341.778V144.82H337.078V149H335.198ZM346.897 149V139.52H348.777V142.96H350.937C352.111 142.96 353.031 143.22 353.697 143.74C354.377 144.247 354.717 144.993 354.717 145.98C354.717 146.953 354.384 147.7 353.717 148.22C353.051 148.74 352.131 149 350.957 149H346.897ZM348.777 147.5H350.717C352.117 147.5 352.817 147 352.817 146C352.817 144.96 352.117 144.44 350.717 144.44H348.777V147.5ZM356.497 149V139.52H358.377V149H356.497ZM368.004 136.9C367.484 137.367 366.797 137.6 365.944 137.6C365.091 137.6 364.397 137.36 363.864 136.88C363.344 136.4 363.031 135.747 362.924 134.92L364.024 134.76C364.104 135.24 364.317 135.613 364.664 135.88C365.011 136.147 365.437 136.28 365.944 136.28C366.451 136.28 366.877 136.147 367.224 135.88C367.571 135.613 367.784 135.24 367.864 134.76L368.964 134.98C368.857 135.793 368.537 136.433 368.004 136.9ZM361.624 149V139.52H363.504V146.36H363.524L368.384 139.52H370.444V149H368.564V142.14H368.524L363.684 149H361.624Z"
          fill="black"/>
    <path d="M20.228 187.468C17.3507 187.468 15.1147 186.575 13.52 184.79L15.73 182.58C16.822 183.984 18.2693 184.686 20.072 184.686C21.0773 184.686 21.9527 184.417 22.698 183.88C23.4433 183.325 23.816 182.58 23.816 181.644C23.816 179.807 22.3773 178.888 19.5 178.888H18.2V176.132H19.552C22.0653 176.132 23.322 175.222 23.322 173.402C23.322 172.657 22.9927 172.05 22.334 171.582C21.6927 171.097 20.9473 170.854 20.098 170.854C18.4687 170.854 17.186 171.435 16.25 172.596L14.196 170.568C15.6347 168.939 17.6627 168.124 20.28 168.124C22.1867 168.124 23.712 168.566 24.856 169.45C26 170.317 26.572 171.521 26.572 173.064C26.572 174.139 26.2773 175.049 25.688 175.794C25.0987 176.539 24.336 177.033 23.4 177.276V177.354C24.5093 177.614 25.4193 178.134 26.13 178.914C26.8407 179.694 27.196 180.673 27.196 181.852C27.196 183.603 26.5113 184.981 25.142 185.986C23.79 186.974 22.152 187.468 20.228 187.468ZM38.0067 187V185.414H37.9287C37.6167 185.969 37.1054 186.428 36.3947 186.792C35.7014 187.139 34.9214 187.312 34.0547 187.312C32.8587 187.312 31.7754 187 30.8047 186.376C29.8514 185.735 29.3747 184.755 29.3747 183.438C29.3747 182.727 29.5481 182.112 29.8947 181.592C30.2587 181.055 30.7094 180.639 31.2467 180.344C31.7841 180.049 32.4514 179.815 33.2487 179.642C34.0634 179.451 34.8261 179.33 35.5367 179.278C36.2647 179.226 37.0707 179.2 37.9547 179.2V178.888C37.9547 178.16 37.6861 177.597 37.1487 177.198C36.6114 176.799 35.9267 176.6 35.0947 176.6C33.7774 176.6 32.6421 177.077 31.6887 178.03L30.0767 176.132C31.4981 174.815 33.2574 174.156 35.3547 174.156C36.4294 174.156 37.3394 174.312 38.0847 174.624C38.8474 174.919 39.4281 175.335 39.8267 175.872C40.2254 176.392 40.5027 176.947 40.6587 177.536C40.8321 178.108 40.9187 178.732 40.9187 179.408V187H38.0067ZM37.9547 181.748V181.306H37.2527C34.0807 181.306 32.4947 181.999 32.4947 183.386C32.4947 183.941 32.7027 184.339 33.1187 184.582C33.5521 184.825 34.0721 184.946 34.6787 184.946C35.7361 184.946 36.5421 184.669 37.0967 184.114C37.6687 183.542 37.9547 182.753 37.9547 181.748ZM44.5536 187V174.52H53.3156V177.016H47.6736V187H44.5536ZM54.6674 180.708C54.6674 178.784 55.3174 177.215 56.6174 176.002C57.9174 174.771 59.5294 174.156 61.4534 174.156C63.3774 174.156 64.9894 174.771 66.2894 176.002C67.5894 177.215 68.2394 178.784 68.2394 180.708C68.2394 182.649 67.5808 184.244 66.2634 185.492C64.9634 186.74 63.3601 187.364 61.4534 187.364C59.5468 187.364 57.9348 186.74 56.6174 185.492C55.3174 184.244 54.6674 182.649 54.6674 180.708ZM58.7754 177.9C58.1514 178.697 57.8394 179.633 57.8394 180.708C57.8394 181.783 58.1514 182.727 58.7754 183.542C59.3994 184.357 60.2921 184.764 61.4534 184.764C62.6148 184.764 63.5074 184.357 64.1314 183.542C64.7554 182.727 65.0674 181.783 65.0674 180.708C65.0674 179.633 64.7554 178.697 64.1314 177.9C63.5074 177.103 62.6148 176.704 61.4534 176.704C60.2921 176.704 59.3994 177.103 58.7754 177.9ZM71.0899 187.156C70.2579 187.156 69.6339 187.087 69.2179 186.948L69.4519 184.4C69.7119 184.487 69.9892 184.53 70.2839 184.53C71.0812 184.53 71.6879 184.123 72.1039 183.308C72.5199 182.493 72.7279 181.046 72.7279 178.966V174.52H82.9459V187H79.8259V177.016H75.7179V179.668C75.7179 182.233 75.3452 184.123 74.5999 185.336C73.8546 186.549 72.6846 187.156 71.0899 187.156ZM85.9741 180.708C85.9741 178.784 86.6241 177.215 87.9241 176.002C89.2241 174.771 90.8361 174.156 92.7601 174.156C94.6841 174.156 96.2961 174.771 97.5961 176.002C98.8961 177.215 99.5461 178.784 99.5461 180.708C99.5461 182.649 98.8874 184.244 97.5701 185.492C96.2701 186.74 94.6667 187.364 92.7601 187.364C90.8534 187.364 89.2414 186.74 87.9241 185.492C86.6241 184.244 85.9741 182.649 85.9741 180.708ZM90.0821 177.9C89.4581 178.697 89.1461 179.633 89.1461 180.708C89.1461 181.783 89.4581 182.727 90.0821 183.542C90.7061 184.357 91.5987 184.764 92.7601 184.764C93.9214 184.764 94.8141 184.357 95.4381 183.542C96.0621 182.727 96.3741 181.783 96.3741 180.708C96.3741 179.633 96.0621 178.697 95.4381 177.9C94.8141 177.103 93.9214 176.704 92.7601 176.704C91.5987 176.704 90.7061 177.103 90.0821 177.9ZM102.571 187V174.52H109.019C109.765 174.52 110.432 174.598 111.021 174.754C111.628 174.91 112.174 175.248 112.659 175.768C113.145 176.271 113.387 176.938 113.387 177.77C113.387 178.411 113.188 178.975 112.789 179.46C112.408 179.928 111.905 180.24 111.281 180.396V180.448C112.061 180.569 112.694 180.899 113.179 181.436C113.682 181.956 113.933 182.632 113.933 183.464C113.933 184.573 113.5 185.44 112.633 186.064C111.767 186.688 110.623 187 109.201 187H102.571ZM105.691 184.764H108.629C110.068 184.764 110.787 184.261 110.787 183.256C110.787 182.251 110.094 181.748 108.707 181.748H105.691V184.764ZM105.691 179.512H108.655C109.799 179.512 110.371 179.053 110.371 178.134C110.371 177.198 109.721 176.73 108.421 176.73H105.691V179.512ZM116.214 180.708C116.214 178.784 116.864 177.215 118.164 176.002C119.464 174.771 121.076 174.156 123 174.156C124.924 174.156 126.536 174.771 127.836 176.002C129.136 177.215 129.786 178.784 129.786 180.708C129.786 182.649 129.128 184.244 127.81 185.492C126.51 186.74 124.907 187.364 123 187.364C121.094 187.364 119.482 186.74 118.164 185.492C116.864 184.244 116.214 182.649 116.214 180.708ZM120.322 177.9C119.698 178.697 119.386 179.633 119.386 180.708C119.386 181.783 119.698 182.727 120.322 183.542C120.946 184.357 121.839 184.764 123 184.764C124.162 184.764 125.054 184.357 125.678 183.542C126.302 182.727 126.614 181.783 126.614 180.708C126.614 179.633 126.302 178.697 125.678 177.9C125.054 177.103 124.162 176.704 123 176.704C121.839 176.704 120.946 177.103 120.322 177.9ZM132.811 187V174.52H135.931V180.058H136.009L140.819 174.52H144.771L139.285 180.396L145.187 187H141.183L136.009 181.072H135.931V187H132.811ZM157.069 178.654V176.158H157.901C160.518 176.158 161.827 175.231 161.827 173.376C161.827 172.579 161.541 171.937 160.969 171.452C160.414 170.967 159.729 170.724 158.915 170.724C158.169 170.724 157.537 170.941 157.017 171.374C156.514 171.807 156.167 172.379 155.977 173.09L153.039 172.336C153.368 171.088 154.087 170.074 155.197 169.294C156.306 168.514 157.589 168.124 159.045 168.124C160.743 168.124 162.156 168.566 163.283 169.45C164.409 170.334 164.973 171.573 164.973 173.168C164.973 174.156 164.669 175.04 164.063 175.82C163.456 176.583 162.659 177.085 161.671 177.328V177.38C162.797 177.605 163.707 178.117 164.401 178.914C165.111 179.711 165.467 180.673 165.467 181.8C165.467 183.585 164.825 184.981 163.543 185.986C162.26 186.974 160.761 187.468 159.045 187.468C157.415 187.468 156.011 187.113 154.833 186.402C153.654 185.691 152.831 184.599 152.363 183.126L155.275 182.216C155.5 182.979 155.933 183.603 156.575 184.088C157.216 184.573 158.005 184.816 158.941 184.816C159.859 184.816 160.648 184.565 161.307 184.062C161.983 183.559 162.321 182.797 162.321 181.774C162.321 181.029 162.069 180.413 161.567 179.928C161.081 179.425 160.518 179.087 159.877 178.914C159.253 178.741 158.577 178.654 157.849 178.654H157.069Z"
          fill="black"/>
    <path d="M291.936 213.252C290.424 213.252 289.173 212.762 288.184 211.782C287.195 210.802 286.7 209.551 286.7 208.03C286.7 206.499 287.19 205.253 288.17 204.292C289.159 203.321 290.415 202.836 291.936 202.836C293.457 202.836 294.713 203.321 295.702 204.292C296.701 205.253 297.2 206.499 297.2 208.03C297.2 209.551 296.701 210.802 295.702 211.782C294.713 212.762 293.457 213.252 291.936 213.252ZM291.936 212.006C293.065 212.006 293.975 211.628 294.666 210.872C295.357 210.107 295.702 209.159 295.702 208.03C295.702 206.91 295.357 205.967 294.666 205.202C293.975 204.437 293.065 204.054 291.936 204.054C290.825 204.054 289.925 204.437 289.234 205.202C288.543 205.967 288.198 206.91 288.198 208.03C288.198 209.159 288.543 210.107 289.234 210.872C289.925 211.628 290.825 212.006 291.936 212.006ZM302.291 213.182C301.059 213.182 300.116 212.762 299.463 211.922C298.95 211.259 298.693 210.186 298.693 208.702C298.693 208.011 298.712 207.423 298.749 206.938C298.796 206.443 298.88 205.958 299.001 205.482C299.122 204.997 299.295 204.605 299.519 204.306C299.743 203.998 300.042 203.737 300.415 203.522C300.788 203.307 301.241 203.167 301.773 203.102L303.635 202.878C303.999 202.831 304.274 202.761 304.461 202.668C304.648 202.575 304.769 202.425 304.825 202.22L305.777 202.5C305.665 202.957 305.478 203.293 305.217 203.508C304.956 203.723 304.568 203.867 304.055 203.942L302.221 204.18C301.614 204.255 301.143 204.395 300.807 204.6C300.471 204.805 300.205 205.165 300.009 205.678C299.813 206.182 299.706 206.891 299.687 207.806H299.729C300.27 206.742 301.218 206.21 302.571 206.21C303.514 206.21 304.293 206.537 304.909 207.19C305.534 207.834 305.847 208.665 305.847 209.682C305.847 210.709 305.511 211.549 304.839 212.202C304.167 212.855 303.318 213.182 302.291 213.182ZM300.667 211.39C301.068 211.847 301.605 212.076 302.277 212.076C302.949 212.076 303.486 211.847 303.887 211.39C304.298 210.923 304.503 210.349 304.503 209.668C304.503 208.987 304.298 208.417 303.887 207.96C303.486 207.493 302.944 207.26 302.263 207.26C301.6 207.26 301.068 207.493 300.667 207.96C300.266 208.417 300.065 208.987 300.065 209.668C300.065 210.349 300.266 210.923 300.667 211.39ZM307.683 213V206.364H308.999V208.772H310.511C311.332 208.772 311.976 208.954 312.443 209.318C312.919 209.673 313.157 210.195 313.157 210.886C313.157 211.567 312.923 212.09 312.457 212.454C311.99 212.818 311.346 213 310.525 213H307.683ZM308.999 211.95H310.357C311.337 211.95 311.827 211.6 311.827 210.9C311.827 210.172 311.337 209.808 310.357 209.808H308.999V211.95ZM314.403 213V206.364H315.719V213H314.403ZM321.869 213V210.41C321.328 210.559 320.712 210.634 320.021 210.634C318.509 210.634 317.753 209.934 317.753 208.534V206.364H319.041V208.24C319.041 208.753 319.153 209.103 319.377 209.29C319.601 209.477 319.947 209.57 320.413 209.57C320.88 209.57 321.365 209.5 321.869 209.36V206.364H323.185V213H321.869ZM325.456 213V206.364H326.772V208.996H330.062V206.364H331.378V213H330.062V210.074H326.772V213H325.456ZM333.646 213V206.364H334.962V208.772H336.474C337.295 208.772 337.939 208.954 338.406 209.318C338.882 209.673 339.12 210.195 339.12 210.886C339.12 211.567 338.886 212.09 338.42 212.454C337.953 212.818 337.309 213 336.488 213H333.646ZM334.962 211.95H336.32C337.3 211.95 337.79 211.6 337.79 210.9C337.79 210.172 337.3 209.808 336.32 209.808H334.962V211.95ZM340.366 213V206.364H341.682V213H340.366ZM348.42 204.53C348.056 204.857 347.576 205.02 346.978 205.02C346.381 205.02 345.896 204.852 345.522 204.516C345.158 204.18 344.939 203.723 344.864 203.144L345.634 203.032C345.69 203.368 345.84 203.629 346.082 203.816C346.325 204.003 346.624 204.096 346.978 204.096C347.333 204.096 347.632 204.003 347.874 203.816C348.117 203.629 348.266 203.368 348.322 203.032L349.092 203.186C349.018 203.755 348.794 204.203 348.42 204.53ZM343.954 213V206.364H345.27V211.152H345.284L348.686 206.364H350.128V213H348.812V208.198H348.784L345.396 213H343.954Z"
          fill="black"/>
    <path d="M394.204 230V220.088H401.946V230H400.56V221.306H395.59V230H394.204ZM409.963 229.188C409.281 229.851 408.432 230.182 407.415 230.182C406.397 230.182 405.548 229.851 404.867 229.188C404.185 228.525 403.845 227.685 403.845 226.668C403.845 225.651 404.181 224.815 404.853 224.162C405.534 223.509 406.388 223.182 407.415 223.182C408.441 223.182 409.295 223.509 409.977 224.162C410.658 224.815 410.999 225.651 410.999 226.668C410.999 227.685 410.653 228.525 409.963 229.188ZM405.791 228.376C406.192 228.843 406.733 229.076 407.415 229.076C408.096 229.076 408.633 228.843 409.025 228.376C409.426 227.9 409.627 227.331 409.627 226.668C409.627 226.005 409.426 225.441 409.025 224.974C408.633 224.507 408.096 224.274 407.415 224.274C406.733 224.274 406.192 224.507 405.791 224.974C405.399 225.441 405.203 226.005 405.203 226.668C405.203 227.331 405.399 227.9 405.791 228.376ZM411.777 232.03V228.908H412.505C413.168 228.059 413.499 226.789 413.499 225.1V223.364H418.609V228.908H419.631V232.03H418.483V230H412.925V232.03H411.777ZM413.933 228.908H417.307V224.442H414.759V225.45C414.759 226.785 414.484 227.937 413.933 228.908ZM424.877 230V227.41C424.336 227.559 423.72 227.634 423.029 227.634C421.517 227.634 420.761 226.934 420.761 225.534V223.364H422.049V225.24C422.049 225.753 422.161 226.103 422.385 226.29C422.609 226.477 422.955 226.57 423.421 226.57C423.888 226.57 424.373 226.5 424.877 226.36V223.364H426.193V230H424.877ZM431.53 230.182C430.513 230.182 429.673 229.86 429.01 229.216C428.357 228.572 428.03 227.732 428.03 226.696C428.03 225.669 428.357 224.829 429.01 224.176C429.663 223.513 430.48 223.182 431.46 223.182C432.44 223.182 433.215 223.495 433.784 224.12C434.363 224.736 434.652 225.571 434.652 226.626C434.652 226.822 434.647 226.971 434.638 227.074H429.374C429.393 227.643 429.612 228.124 430.032 228.516C430.452 228.899 430.951 229.09 431.53 229.09C432.361 229.09 433.005 228.754 433.462 228.082L434.386 228.824C433.686 229.729 432.734 230.182 431.53 230.182ZM429.374 226.094H433.322C433.303 225.543 433.135 225.095 432.818 224.75C432.501 224.395 432.048 224.218 431.46 224.218C430.9 224.218 430.424 224.4 430.032 224.764C429.64 225.128 429.421 225.571 429.374 226.094ZM436.489 233.36V223.364H437.777V224.4H437.819C438.043 224.036 438.365 223.742 438.785 223.518C439.205 223.294 439.681 223.182 440.213 223.182C441.184 223.182 441.977 223.518 442.593 224.19C443.219 224.853 443.531 225.679 443.531 226.668C443.531 227.667 443.223 228.502 442.607 229.174C441.991 229.846 441.184 230.182 440.185 230.182C439.709 230.182 439.261 230.079 438.841 229.874C438.421 229.659 438.09 229.37 437.847 229.006H437.805V233.36H436.489ZM439.961 229.076C440.652 229.076 441.193 228.843 441.585 228.376C441.977 227.9 442.173 227.331 442.173 226.668C442.173 226.005 441.977 225.441 441.585 224.974C441.193 224.507 440.652 224.274 439.961 224.274C439.308 224.274 438.771 224.512 438.351 224.988C437.931 225.464 437.721 226.029 437.721 226.682C437.721 227.335 437.931 227.9 438.351 228.376C438.771 228.843 439.308 229.076 439.961 229.076ZM445.377 230V223.364H446.693V226.402H446.735L449.535 223.364H451.285L448.205 226.514L451.565 230H449.787L446.735 226.752H446.693V230H445.377ZM452.732 230V223.364H454.048V225.996H457.338V223.364H458.654V230H457.338V227.074H454.048V230H452.732ZM461.187 233.36C460.879 233.36 460.59 233.327 460.319 233.262L460.445 232.1C460.669 232.175 460.888 232.212 461.103 232.212C461.42 232.212 461.668 232.123 461.845 231.946C462.022 231.778 462.186 231.498 462.335 231.106L462.755 230L459.913 223.364H461.383L463.441 228.572H463.469L465.303 223.364H466.703L463.483 231.568C463.25 232.175 462.96 232.623 462.615 232.912C462.279 233.211 461.803 233.36 461.187 233.36ZM469.54 230V224.442H467.286V223.364H473.11V224.442H470.856V230H469.54ZM474.525 230V223.364H475.841V225.772H477.353C478.174 225.772 478.818 225.954 479.285 226.318C479.761 226.673 479.999 227.195 479.999 227.886C479.999 228.567 479.765 229.09 479.299 229.454C478.832 229.818 478.188 230 477.367 230H474.525ZM475.841 228.95H477.199C478.179 228.95 478.669 228.6 478.669 227.9C478.669 227.172 478.179 226.808 477.199 226.808H475.841V228.95ZM481.245 230V223.364H482.561V230H481.245ZM489.299 221.53C488.935 221.857 488.455 222.02 487.857 222.02C487.26 222.02 486.775 221.852 486.401 221.516C486.037 221.18 485.818 220.723 485.743 220.144L486.513 220.032C486.569 220.368 486.719 220.629 486.961 220.816C487.204 221.003 487.503 221.096 487.857 221.096C488.212 221.096 488.511 221.003 488.753 220.816C488.996 220.629 489.145 220.368 489.201 220.032L489.971 220.186C489.897 220.755 489.673 221.203 489.299 221.53ZM484.833 230V223.364H486.149V228.152H486.163L489.565 223.364H491.007V230H489.691V225.198H489.663L486.275 230H484.833Z"
          fill="black"/>
    <path d="M393 232.8H492.141V233.5H393V232.8Z" fill="black"/>
    <path d="M396.486 213V203.984H393.168V203.088H400.812V203.984H397.494V213H396.486ZM403.915 213.168C402.907 213.168 402.071 212.841 401.409 212.188C400.755 211.535 400.429 210.713 400.429 209.724C400.429 208.735 400.755 207.913 401.409 207.26C402.071 206.607 402.907 206.28 403.915 206.28C404.932 206.28 405.767 206.607 406.421 207.26C407.083 207.913 407.415 208.735 407.415 209.724C407.415 210.713 407.083 211.535 406.421 212.188C405.767 212.841 404.932 213.168 403.915 213.168ZM403.915 212.356C404.661 212.356 405.263 212.109 405.721 211.614C406.178 211.11 406.407 210.48 406.407 209.724C406.407 208.968 406.178 208.338 405.721 207.834C405.263 207.33 404.661 207.078 403.915 207.078C403.177 207.078 402.58 207.33 402.123 207.834C401.665 208.338 401.437 208.968 401.437 209.724C401.437 210.471 401.665 211.096 402.123 211.6C402.58 212.104 403.177 212.356 403.915 212.356ZM409.463 213V206.448H410.415V209.192H414.181V206.448H415.133V213H414.181V209.99H410.415V213H409.463ZM417.681 213V206.448H418.633V209.542H418.675L421.699 206.448H423.071L419.767 209.584L423.407 213H422.007L418.675 209.696H418.633V213H417.681ZM424.789 213V206.448H425.741V211.684H425.755L429.633 206.448H430.669V213H429.731V207.708H429.703L425.825 213H424.789ZM433.184 213V206.448H434.136V211.684H434.15L438.028 206.448H439.064V213H438.126V207.708H438.098L434.22 213H433.184ZM437.468 204.46C437.104 204.777 436.637 204.936 436.068 204.936C435.498 204.936 435.027 204.777 434.654 204.46C434.29 204.133 434.08 203.695 434.024 203.144L434.668 203.018C434.733 203.373 434.892 203.657 435.144 203.872C435.405 204.077 435.713 204.18 436.068 204.18C436.422 204.18 436.726 204.077 436.978 203.872C437.239 203.657 437.402 203.373 437.468 203.018L438.112 203.144C438.056 203.695 437.841 204.133 437.468 204.46Z"
          fill="black"/>
    <path d="M294.05 230H292.286V225.072H292.272L288.254 230H285.916L290.382 224.596L286.154 220.088H288.422L292.272 224.372H292.286V220.088H294.05V224.372H294.064L297.914 220.088H300.182L295.954 224.596L300.42 230H298.082L294.064 225.072H294.05V230ZM301.35 230V223.28H303.03V227.62H303.058L305.998 223.28H307.818V230H306.138V225.688H306.11L303.198 230H301.35ZM309.84 223.28H311.45V224.218H311.492C311.688 223.91 311.982 223.644 312.374 223.42C312.775 223.196 313.256 223.084 313.816 223.084C314.768 223.084 315.547 223.42 316.154 224.092C316.77 224.764 317.078 225.604 317.078 226.612C317.078 227.62 316.775 228.469 316.168 229.16C315.571 229.851 314.773 230.196 313.774 230.196C313.307 230.196 312.873 230.098 312.472 229.902C312.071 229.706 311.763 229.44 311.548 229.104H311.52V233.36H309.84V223.28ZM314.852 228.138C315.197 227.699 315.37 227.191 315.37 226.612C315.37 226.033 315.197 225.529 314.852 225.1C314.516 224.671 314.045 224.456 313.438 224.456C312.85 224.456 312.374 224.68 312.01 225.128C311.646 225.576 311.464 226.08 311.464 226.64C311.464 227.2 311.646 227.699 312.01 228.138C312.374 228.577 312.85 228.796 313.438 228.796C314.045 228.796 314.516 228.577 314.852 228.138ZM318.699 230V223.28H320.379V225.814H323.207V223.28H324.887V230H323.207V227.158H320.379V230H318.699ZM333.945 230V223.28H335.625V230H333.945ZM326.903 230V223.28H328.583V225.632H330.039C330.869 225.632 331.527 225.814 332.013 226.178C332.507 226.533 332.755 227.074 332.755 227.802C332.755 228.511 332.507 229.057 332.013 229.44C331.518 229.813 330.86 230 330.039 230H326.903ZM328.583 228.726H329.605C330.109 228.726 330.477 228.656 330.711 228.516C330.953 228.376 331.075 228.143 331.075 227.816C331.075 227.48 330.963 227.242 330.739 227.102C330.515 226.962 330.137 226.892 329.605 226.892H328.583V228.726ZM340.841 222.104C340.216 222.104 339.716 221.931 339.343 221.586C338.97 221.231 338.741 220.746 338.657 220.13L339.567 220.032C339.614 220.349 339.749 220.592 339.973 220.76C340.206 220.928 340.496 221.012 340.841 221.012C341.186 221.012 341.476 220.928 341.709 220.76C341.942 220.592 342.082 220.349 342.129 220.032L343.025 220.214C342.95 220.811 342.726 221.278 342.353 221.614C341.98 221.941 341.476 222.104 340.841 222.104ZM337.635 230V223.28H339.315V227.62H339.343L342.283 223.28H344.103V230H342.423V225.688H342.395L339.483 230H337.635Z"
          fill="black"/>
    <path d="M18.1 230.22C16.5933 230.22 15.1133 229.9 13.66 229.26L14.32 227.5C14.92 227.74 15.5333 227.933 16.16 228.08C16.8 228.227 17.4067 228.3 17.98 228.3C18.5667 228.3 19.0933 228.22 19.56 228.06C20.0267 227.887 20.4 227.62 20.68 227.26C20.96 226.887 21.1 226.42 21.1 225.86C21.1 225.407 21 225.007 20.8 224.66C20.6 224.313 20.28 224.047 19.84 223.86C19.4 223.673 18.82 223.58 18.1 223.58H16.54V221.82H18.04C18.96 221.82 19.64 221.64 20.08 221.28C20.5333 220.907 20.76 220.36 20.76 219.64C20.76 218.88 20.5267 218.34 20.06 218.02C19.5933 217.7 18.9733 217.54 18.2 217.54C17.84 217.54 17.44 217.58 17 217.66C16.56 217.74 16.1067 217.847 15.64 217.98L16 217.64L15.74 219.94H14.28L14.1 216.54C14.9 216.287 15.68 216.093 16.44 215.96C17.2 215.813 17.9333 215.74 18.64 215.74C19.5333 215.74 20.3267 215.86 21.02 216.1C21.7133 216.34 22.26 216.72 22.66 217.24C23.06 217.747 23.26 218.42 23.26 219.26C23.26 219.94 23.1133 220.527 22.82 221.02C22.54 221.513 22.14 221.9 21.62 222.18C21.1 222.46 20.48 222.633 19.76 222.7L19.74 222.48C21.0867 222.56 22.0667 222.907 22.68 223.52C23.2933 224.12 23.6 224.927 23.6 225.94C23.6 226.913 23.3467 227.72 22.84 228.36C22.3333 228.987 21.6667 229.453 20.84 229.76C20.0133 230.067 19.1 230.22 18.1 230.22ZM33.7872 228.74L33.4272 228.26L35.2072 228.74V229.98L31.9272 230.14L31.6072 228.22L31.7672 228.28C31.2205 228.933 30.6205 229.42 29.9672 229.74C29.3272 230.06 28.6872 230.22 28.0472 230.22C27.2339 230.22 26.5472 229.96 25.9872 229.44C25.4272 228.907 25.1472 228.133 25.1472 227.12C25.1472 226.347 25.3139 225.74 25.6472 225.3C25.9805 224.86 26.4472 224.547 27.0472 224.36C27.6605 224.16 28.4005 224.06 29.2672 224.06H31.5672L31.3872 224.28V222.76C31.3872 222.107 31.2205 221.64 30.8872 221.36C30.5539 221.067 30.0805 220.92 29.4672 220.92C29.1605 220.92 28.8339 220.953 28.4872 221.02C28.1539 221.073 27.7872 221.167 27.3872 221.3L27.6672 221L27.4272 222.7H25.8872L25.7272 219.9C26.5939 219.647 27.3872 219.46 28.1072 219.34C28.8272 219.207 29.4939 219.14 30.1072 219.14C31.2805 219.14 32.1872 219.4 32.8272 219.92C33.4672 220.427 33.7872 221.227 33.7872 222.32V228.74ZM27.5672 226.9C27.5672 227.433 27.6939 227.827 27.9472 228.08C28.2005 228.333 28.5272 228.46 28.9272 228.46C29.3139 228.46 29.7339 228.34 30.1872 228.1C30.6405 227.86 31.0805 227.54 31.5072 227.14L31.3872 227.62V225.24L31.5672 225.44H29.6472C28.8605 225.44 28.3139 225.56 28.0072 225.8C27.7139 226.04 27.5672 226.407 27.5672 226.9ZM45.14 219.36L45.04 223.32H43.58L43.26 220.8L43.58 221.14H39.82L39.96 220.84V228.7L39.66 228.32L41.76 228.76V230H36.14V228.76L37.8 228.32L37.56 228.7V220.7L37.84 221.12L36.14 220.66V219.42L39.42 219.36H45.14ZM50.9508 219.14C52.4974 219.14 53.6974 219.607 54.5508 220.54C55.4174 221.46 55.8508 222.773 55.8508 224.48C55.8508 225.667 55.6374 226.687 55.2108 227.54C54.7974 228.393 54.1974 229.053 53.4108 229.52C52.6374 229.987 51.7041 230.22 50.6108 230.22C49.0774 230.22 47.8841 229.76 47.0308 228.84C46.1908 227.92 45.7708 226.6 45.7708 224.88C45.7708 223.693 45.9774 222.673 46.3908 221.82C46.8041 220.967 47.3974 220.307 48.1708 219.84C48.9441 219.373 49.8708 219.14 50.9508 219.14ZM50.8308 220.86C49.9908 220.86 49.3508 221.187 48.9108 221.84C48.4841 222.493 48.2708 223.467 48.2708 224.76C48.2708 226.053 48.4774 227 48.8908 227.6C49.3041 228.2 49.9174 228.5 50.7308 228.5C51.3174 228.5 51.8041 228.353 52.1908 228.06C52.5774 227.753 52.8708 227.313 53.0708 226.74C53.2708 226.153 53.3708 225.44 53.3708 224.6C53.3708 223.347 53.1508 222.413 52.7108 221.8C52.2841 221.173 51.6574 220.86 50.8308 220.86ZM57.8831 230.18C57.6431 230.18 57.3965 230.153 57.1431 230.1C56.8898 230.06 56.6098 230 56.3031 229.92L56.6431 228.04C56.7765 228.053 56.8898 228.067 56.9831 228.08C57.0898 228.093 57.1965 228.1 57.3031 228.1C58.0231 228.1 58.5498 227.807 58.8831 227.22C59.2298 226.62 59.4565 225.747 59.5631 224.6C59.6831 223.453 59.7498 222.073 59.7631 220.46L60.3831 221.18L58.2231 220.6V219.36H67.9631V220.6L66.0631 221.16L66.5431 220.42V228.56L66.3631 228.34L67.9631 228.76V230H62.7431V228.76L64.3431 228.34L64.1431 228.56V220.46L64.5431 221.14H60.9031L61.6231 220.48C61.6098 221.973 61.5431 223.32 61.4231 224.52C61.3165 225.72 61.1298 226.74 60.8631 227.58C60.5965 228.42 60.2165 229.067 59.7231 229.52C59.2431 229.96 58.6298 230.18 57.8831 230.18ZM74.4859 219.14C76.0326 219.14 77.2326 219.607 78.0859 220.54C78.9526 221.46 79.3859 222.773 79.3859 224.48C79.3859 225.667 79.1726 226.687 78.7459 227.54C78.3326 228.393 77.7326 229.053 76.9459 229.52C76.1726 229.987 75.2393 230.22 74.1459 230.22C72.6126 230.22 71.4193 229.76 70.5659 228.84C69.7259 227.92 69.3059 226.6 69.3059 224.88C69.3059 223.693 69.5126 222.673 69.9259 221.82C70.3393 220.967 70.9326 220.307 71.7059 219.84C72.4793 219.373 73.4059 219.14 74.4859 219.14ZM74.3659 220.86C73.5259 220.86 72.8859 221.187 72.4459 221.84C72.0193 222.493 71.8059 223.467 71.8059 224.76C71.8059 226.053 72.0126 227 72.4259 227.6C72.8393 228.2 73.4526 228.5 74.2659 228.5C74.8526 228.5 75.3393 228.353 75.7259 228.06C76.1126 227.753 76.4059 227.313 76.6059 226.74C76.8059 226.153 76.9059 225.44 76.9059 224.6C76.9059 223.347 76.6859 222.413 76.2459 221.8C75.8193 221.173 75.1926 220.86 74.3659 220.86ZM84.5694 219.36H86.2694C87.136 219.36 87.876 219.447 88.4894 219.62C89.1027 219.78 89.576 220.047 89.9094 220.42C90.2427 220.793 90.4094 221.307 90.4094 221.96C90.4094 222.56 90.256 223.04 89.9494 223.4C89.656 223.76 89.2227 224.027 88.6494 224.2C88.0894 224.373 87.4094 224.493 86.6094 224.56L86.7494 224.32C87.336 224.32 87.876 224.367 88.3694 224.46C88.8627 224.54 89.296 224.687 89.6694 224.9C90.056 225.113 90.3494 225.4 90.5494 225.76C90.7494 226.107 90.8494 226.547 90.8494 227.08C90.8494 228.08 90.456 228.82 89.6694 229.3C88.8827 229.767 87.696 230 86.1094 230H80.7494V228.76L82.3494 228.34L82.1694 228.56V220.88L82.3294 221.06L80.7494 220.66V219.42L84.5694 219.36ZM85.7694 220.94H84.1694L84.5694 220.56V224.14L84.1694 223.84H85.4294C86.336 223.84 86.9894 223.72 87.3894 223.48C87.7894 223.24 87.9894 222.853 87.9894 222.32C87.9894 221.8 87.8094 221.44 87.4494 221.24C87.0894 221.04 86.5294 220.94 85.7694 220.94ZM85.8094 228.38C86.6894 228.38 87.3294 228.267 87.7294 228.04C88.1427 227.8 88.3494 227.38 88.3494 226.78C88.3494 226.233 88.176 225.82 87.8294 225.54C87.496 225.247 86.9494 225.1 86.1894 225.1H84.1694L84.5694 224.78V228.74L84.1694 228.38H85.8094ZM97.4938 219.14C99.0404 219.14 100.24 219.607 101.094 220.54C101.96 221.46 102.394 222.773 102.394 224.48C102.394 225.667 102.18 226.687 101.754 227.54C101.34 228.393 100.74 229.053 99.9538 229.52C99.1804 229.987 98.2471 230.22 97.1538 230.22C95.6204 230.22 94.4271 229.76 93.5738 228.84C92.7338 227.92 92.3138 226.6 92.3138 224.88C92.3138 223.693 92.5204 222.673 92.9338 221.82C93.3471 220.967 93.9404 220.307 94.7138 219.84C95.4871 219.373 96.4138 219.14 97.4938 219.14ZM97.3738 220.86C96.5338 220.86 95.8938 221.187 95.4538 221.84C95.0271 222.493 94.8138 223.467 94.8138 224.76C94.8138 226.053 95.0204 227 95.4338 227.6C95.8471 228.2 96.4604 228.5 97.2738 228.5C97.8604 228.5 98.3471 228.353 98.7338 228.06C99.1204 227.753 99.4138 227.313 99.6138 226.74C99.8138 226.153 99.9138 225.44 99.9138 224.6C99.9138 223.347 99.6938 222.413 99.2538 221.8C98.8271 221.173 98.2004 220.86 97.3738 220.86ZM103.757 230V228.76L105.477 228.3L105.157 228.76V220.6L105.517 221.08L103.757 220.66V219.42L108.837 219.28V220.52L107.317 220.98L107.557 220.6V224.08L107.157 223.58H109.877L109.117 224.02L111.217 220.66L111.397 220.94L109.917 220.66V219.44L114.617 219.28V220.52L112.917 220.88L113.557 220.5L110.917 224.62L111.117 223.98L113.817 228.68L113.477 228.38L115.037 228.76V230H112.017L109.337 225.1L109.737 225.2H107.157L107.557 225.1V228.76L107.297 228.28L109.037 228.76V230H103.757ZM126.038 226.26L126.658 226.76H119.378L119.098 225.06L125.618 215.72L128.498 215.96V225.32L127.878 224.86H130.678V226.76H127.878L128.498 226.26V230H126.038V226.26ZM126.698 224.86L126.078 225.32V217.12L126.898 217.26L121.058 225.74L120.578 224.86H126.698Z"
          fill="black"/>
    <path d="M287.222 258V248.796H294.112V258H293.176V249.628H288.158V258H287.222ZM299.296 258.156C298.36 258.156 297.584 257.853 296.969 257.246C296.362 256.639 296.059 255.877 296.059 254.958C296.059 254.039 296.362 253.277 296.969 252.67C297.584 252.063 298.36 251.76 299.296 251.76C300.241 251.76 301.016 252.063 301.623 252.67C302.238 253.277 302.546 254.039 302.546 254.958C302.546 255.877 302.238 256.639 301.623 257.246C301.016 257.853 300.241 258.156 299.296 258.156ZM299.296 257.402C299.989 257.402 300.548 257.172 300.973 256.713C301.398 256.245 301.61 255.66 301.61 254.958C301.61 254.256 301.398 253.671 300.973 253.203C300.548 252.735 299.989 252.501 299.296 252.501C298.611 252.501 298.057 252.735 297.632 253.203C297.207 253.671 296.995 254.256 296.995 254.958C296.995 255.651 297.207 256.232 297.632 256.7C298.057 257.168 298.611 257.402 299.296 257.402ZM303.438 259.976V257.233H304.14C304.79 256.401 305.115 255.166 305.115 253.528V251.916H309.535V257.233H310.51V259.976H309.691V258H304.257V259.976H303.438ZM305.141 257.233H308.664V252.657H305.973V253.775C305.973 255.084 305.696 256.236 305.141 257.233ZM312.129 258V251.916H317.303V258H316.419V252.657H313.013V258H312.129ZM319.645 258V251.916H320.529V256.778H320.542L324.143 251.916H325.105V258H324.234V253.086H324.208L320.607 258H319.645ZM332.562 257.103C331.99 257.805 331.218 258.156 330.248 258.156C329.277 258.156 328.493 257.857 327.895 257.259C327.297 256.652 326.998 255.885 326.998 254.958C326.998 254.031 327.297 253.268 327.895 252.67C328.493 252.063 329.277 251.76 330.248 251.76C330.681 251.76 331.101 251.851 331.509 252.033C331.925 252.215 332.258 252.475 332.51 252.813L331.821 253.307C331.673 253.073 331.457 252.882 331.171 252.735C330.893 252.579 330.59 252.501 330.261 252.501C329.567 252.501 329.004 252.735 328.571 253.203C328.146 253.662 327.934 254.247 327.934 254.958C327.934 255.66 328.146 256.245 328.571 256.713C328.995 257.172 329.554 257.402 330.248 257.402C330.95 257.402 331.5 257.138 331.899 256.609L332.562 257.103ZM333.94 258V251.916H334.824V256.778H334.837L338.438 251.916H339.4V258H338.529V253.086H338.503L334.902 258H333.94Z"
          fill="black"/>
    <path d="M394.222 258V248.796H401.112V258H400.176V249.628H395.158V258H394.222ZM406.296 258.156C405.36 258.156 404.584 257.853 403.969 257.246C403.362 256.639 403.059 255.877 403.059 254.958C403.059 254.039 403.362 253.277 403.969 252.67C404.584 252.063 405.36 251.76 406.296 251.76C407.241 251.76 408.016 252.063 408.623 252.67C409.238 253.277 409.546 254.039 409.546 254.958C409.546 255.877 409.238 256.639 408.623 257.246C408.016 257.853 407.241 258.156 406.296 258.156ZM406.296 257.402C406.989 257.402 407.548 257.172 407.973 256.713C408.398 256.245 408.61 255.66 408.61 254.958C408.61 254.256 408.398 253.671 407.973 253.203C407.548 252.735 406.989 252.501 406.296 252.501C405.611 252.501 405.057 252.735 404.632 253.203C404.207 253.671 403.995 254.256 403.995 254.958C403.995 255.651 404.207 256.232 404.632 256.7C405.057 257.168 405.611 257.402 406.296 257.402ZM410.438 259.976V257.233H411.14C411.79 256.401 412.115 255.166 412.115 253.528V251.916H416.535V257.233H417.51V259.976H416.691V258H411.257V259.976H410.438ZM412.141 257.233H415.664V252.657H412.973V253.775C412.973 255.084 412.696 256.236 412.141 257.233ZM419.129 258V251.916H424.303V258H423.419V252.657H420.013V258H419.129ZM426.645 258V251.916H427.529V256.778H427.542L431.143 251.916H432.105V258H431.234V253.086H431.208L427.607 258H426.645ZM439.562 257.103C438.99 257.805 438.218 258.156 437.248 258.156C436.277 258.156 435.493 257.857 434.895 257.259C434.297 256.652 433.998 255.885 433.998 254.958C433.998 254.031 434.297 253.268 434.895 252.67C435.493 252.063 436.277 251.76 437.248 251.76C437.681 251.76 438.101 251.851 438.509 252.033C438.925 252.215 439.258 252.475 439.51 252.813L438.821 253.307C438.673 253.073 438.457 252.882 438.171 252.735C437.893 252.579 437.59 252.501 437.261 252.501C436.567 252.501 436.004 252.735 435.571 253.203C435.146 253.662 434.934 254.247 434.934 254.958C434.934 255.66 435.146 256.245 435.571 256.713C435.995 257.172 436.554 257.402 437.248 257.402C437.95 257.402 438.5 257.138 438.899 256.609L439.562 257.103ZM440.94 258V251.916H441.824V256.778H441.837L445.438 251.916H446.4V258H445.529V253.086H445.503L441.902 258H440.94ZM451.984 258V251.916H457.158V258H456.274V252.657H452.868V258H451.984ZM462.295 258.156C461.359 258.156 460.583 257.853 459.968 257.246C459.361 256.639 459.058 255.877 459.058 254.958C459.058 254.039 459.361 253.277 459.968 252.67C460.583 252.063 461.359 251.76 462.295 251.76C463.24 251.76 464.015 252.063 464.622 252.67C465.237 253.277 465.545 254.039 465.545 254.958C465.545 255.877 465.237 256.639 464.622 257.246C464.015 257.853 463.24 258.156 462.295 258.156ZM462.295 257.402C462.988 257.402 463.547 257.172 463.972 256.713C464.397 256.245 464.609 255.66 464.609 254.958C464.609 254.256 464.397 253.671 463.972 253.203C463.547 252.735 462.988 252.501 462.295 252.501C461.61 252.501 461.056 252.735 460.631 253.203C460.206 253.671 459.994 254.256 459.994 254.958C459.994 255.651 460.206 256.232 460.631 256.7C461.056 257.168 461.61 257.402 462.295 257.402ZM466.437 259.976V257.233H467.139C467.789 256.401 468.114 255.166 468.114 253.528V251.916H472.534V257.233H473.509V259.976H472.69V258H467.256V259.976H466.437ZM468.14 257.233H471.663V252.657H468.972V253.775C468.972 255.084 468.695 256.236 468.14 257.233Z"
          fill="black"/>
    <path d="M393 260.6H473.964V261.25H393V260.6Z" fill="black"/>
    <path d="M17.08 263.16C15.896 263.16 14.7387 262.899 13.608 262.376L14.056 261.192C14.536 261.405 15.032 261.571 15.544 261.688C16.056 261.805 16.5413 261.864 17 261.864C17.5013 261.864 17.9493 261.789 18.344 261.64C18.7387 261.491 19.0533 261.261 19.288 260.952C19.5227 260.632 19.64 260.232 19.64 259.752C19.64 259.357 19.5547 259.011 19.384 258.712C19.2133 258.413 18.936 258.179 18.552 258.008C18.1787 257.827 17.6773 257.736 17.048 257.736H15.832V256.552H17.032C17.8213 256.552 18.408 256.392 18.792 256.072C19.176 255.752 19.368 255.288 19.368 254.68C19.368 254.019 19.1653 253.549 18.76 253.272C18.3547 252.995 17.8267 252.856 17.176 252.856C16.8667 252.856 16.5253 252.888 16.152 252.952C15.7787 253.016 15.4053 253.107 15.032 253.224L15.272 252.984L15.064 254.888H14.072L13.96 252.28C14.568 252.077 15.1707 251.923 15.768 251.816C16.3653 251.699 16.936 251.64 17.48 251.64C18.1733 251.64 18.7867 251.736 19.32 251.928C19.8533 252.109 20.2693 252.408 20.568 252.824C20.8773 253.229 21.032 253.763 21.032 254.424C21.032 254.968 20.92 255.437 20.696 255.832C20.4827 256.216 20.168 256.52 19.752 256.744C19.3467 256.968 18.856 257.101 18.28 257.144V257.016C19.336 257.08 20.104 257.357 20.584 257.848C21.064 258.339 21.304 258.989 21.304 259.8C21.304 260.557 21.112 261.187 20.728 261.688C20.344 262.179 19.8267 262.547 19.176 262.792C18.536 263.037 17.8373 263.16 17.08 263.16ZM29.3284 262.136L29.0884 261.8L30.5284 262.136V262.984L28.0964 263.096L27.8724 261.56L28.0004 261.608C27.5417 262.131 27.0457 262.52 26.5124 262.776C25.979 263.032 25.4617 263.16 24.9604 263.16C24.3417 263.16 23.8084 262.957 23.3604 262.552C22.923 262.147 22.7044 261.539 22.7044 260.728C22.7044 260.109 22.8377 259.629 23.1044 259.288C23.371 258.936 23.7444 258.685 24.2244 258.536C24.7044 258.387 25.2697 258.312 25.9204 258.312H27.8724L27.7284 258.488V257.112C27.7284 256.557 27.5844 256.163 27.2964 255.928C27.0084 255.683 26.6084 255.56 26.0964 255.56C25.8297 255.56 25.547 255.587 25.2484 255.64C24.9604 255.693 24.6457 255.779 24.3044 255.896L24.5284 255.672L24.3524 257.096H23.2964L23.1684 254.968C23.819 254.765 24.4164 254.616 24.9604 254.52C25.515 254.413 26.027 254.36 26.4964 254.36C27.3924 254.36 28.0857 254.557 28.5764 254.952C29.0777 255.347 29.3284 255.971 29.3284 256.824V262.136ZM24.3204 260.616C24.3204 261.075 24.4324 261.416 24.6564 261.64C24.8804 261.853 25.163 261.96 25.5044 261.96C25.8457 261.96 26.219 261.853 26.6244 261.64C27.0404 261.416 27.4404 261.123 27.8244 260.76L27.7284 261.16V259.176L27.8724 259.336H26.1764C25.4724 259.336 24.987 259.443 24.7204 259.656C24.4537 259.869 24.3204 260.189 24.3204 260.616ZM38.3325 254.52L38.2845 257.48H37.2925L37.0365 255.48L37.2605 255.72H34.0605L34.1565 255.496V262.104L33.9485 261.832L35.6765 262.152V263H31.3725V262.152L32.7485 261.832L32.5565 262.104V255.464L32.7645 255.752L31.3725 255.416V254.568L33.8045 254.52H38.3325ZM42.97 254.36C44.1647 254.36 45.1033 254.733 45.786 255.48C46.4687 256.216 46.81 257.261 46.81 258.616C46.81 259.533 46.6447 260.333 46.314 261.016C45.9833 261.699 45.5087 262.227 44.89 262.6C44.282 262.973 43.546 263.16 42.682 263.16C41.498 263.16 40.5753 262.797 39.914 262.072C39.2527 261.336 38.922 260.291 38.922 258.936C38.922 257.987 39.082 257.171 39.402 256.488C39.722 255.805 40.1807 255.283 40.778 254.92C41.386 254.547 42.1167 254.36 42.97 254.36ZM42.89 255.528C42.1327 255.528 41.5567 255.816 41.162 256.392C40.778 256.957 40.586 257.779 40.586 258.856C40.586 259.912 40.7727 260.701 41.146 261.224C41.5193 261.736 42.0633 261.992 42.778 261.992C43.3007 261.992 43.7327 261.864 44.074 261.608C44.426 261.352 44.6873 260.979 44.858 260.488C45.0393 259.987 45.13 259.389 45.13 258.696C45.13 257.64 44.938 256.851 44.554 256.328C44.17 255.795 43.6153 255.528 42.89 255.528ZM48.4031 263.144C48.2431 263.144 48.0671 263.128 47.8751 263.096C47.6938 263.064 47.4965 263.016 47.2831 262.952L47.5231 261.672C47.6085 261.693 47.6938 261.709 47.7791 261.72C47.8645 261.731 47.9445 261.736 48.0191 261.736C48.6058 261.736 49.0431 261.48 49.3311 260.968C49.6191 260.456 49.8111 259.72 49.9071 258.76C50.0031 257.8 50.0565 256.637 50.0671 255.272L50.4831 255.752L48.7391 255.352V254.52H56.3711V255.352L54.8511 255.768L55.1871 255.256V262.024L55.0271 261.832L56.3711 262.152V263H52.3871V262.152L53.7311 261.832L53.5871 262.024V255.256L53.8431 255.72H50.8191L51.2991 255.272C51.2885 256.499 51.2405 257.597 51.1551 258.568C51.0805 259.528 50.9365 260.349 50.7231 261.032C50.5098 261.715 50.2165 262.237 49.8431 262.6C49.4698 262.963 48.9898 263.144 48.4031 263.144ZM61.6419 254.36C62.8365 254.36 63.7752 254.733 64.4579 255.48C65.1405 256.216 65.4819 257.261 65.4819 258.616C65.4819 259.533 65.3165 260.333 64.9859 261.016C64.6552 261.699 64.1805 262.227 63.5619 262.6C62.9539 262.973 62.2179 263.16 61.3539 263.16C60.1699 263.16 59.2472 262.797 58.5859 262.072C57.9245 261.336 57.5939 260.291 57.5939 258.936C57.5939 257.987 57.7539 257.171 58.0739 256.488C58.3939 255.805 58.8525 255.283 59.4499 254.92C60.0579 254.547 60.7885 254.36 61.6419 254.36ZM61.5619 255.528C60.8045 255.528 60.2285 255.816 59.8339 256.392C59.4499 256.957 59.2579 257.779 59.2579 258.856C59.2579 259.912 59.4445 260.701 59.8179 261.224C60.1912 261.736 60.7352 261.992 61.4499 261.992C61.9725 261.992 62.4045 261.864 62.7459 261.608C63.0979 261.352 63.3592 260.979 63.5299 260.488C63.7112 259.987 63.8019 259.389 63.8019 258.696C63.8019 257.64 63.6099 256.851 63.2259 256.328C62.8419 255.795 62.2872 255.528 61.5619 255.528ZM69.4846 254.52H70.9726C71.6553 254.52 72.2366 254.589 72.7166 254.728C73.2073 254.856 73.5753 255.069 73.8206 255.368C74.0766 255.667 74.2046 256.067 74.2046 256.568C74.2046 257.027 74.0926 257.4 73.8686 257.688C73.6446 257.976 73.3193 258.195 72.8926 258.344C72.466 258.483 71.938 258.579 71.3086 258.632L71.3886 258.472C71.858 258.472 72.2846 258.515 72.6686 258.6C73.0633 258.675 73.3993 258.803 73.6766 258.984C73.9646 259.155 74.1833 259.379 74.3326 259.656C74.4926 259.933 74.5726 260.275 74.5726 260.68C74.5726 261.469 74.2633 262.056 73.6446 262.44C73.0366 262.813 72.1033 263 70.8446 263H66.7006V262.152L68.0446 261.832L67.8846 262.024V255.576L68.0286 255.72L66.7006 255.416V254.568L69.4846 254.52ZM70.6526 255.592H69.2286L69.4846 255.32V258.36L69.2286 258.152H70.3006C71.122 258.152 71.7086 258.045 72.0606 257.832C72.4233 257.608 72.6046 257.267 72.6046 256.808C72.6046 256.36 72.4446 256.045 72.1246 255.864C71.8046 255.683 71.314 255.592 70.6526 255.592ZM70.6526 261.912C71.442 261.912 72.0126 261.805 72.3646 261.592C72.7166 261.379 72.8926 261.016 72.8926 260.504C72.8926 260.024 72.738 259.661 72.4286 259.416C72.1193 259.16 71.634 259.032 70.9726 259.032H69.2286L69.4846 258.792V262.152L69.2286 261.912H70.6526ZM79.97 254.36C81.1647 254.36 82.1033 254.733 82.786 255.48C83.4687 256.216 83.81 257.261 83.81 258.616C83.81 259.533 83.6447 260.333 83.314 261.016C82.9833 261.699 82.5087 262.227 81.89 262.6C81.282 262.973 80.546 263.16 79.682 263.16C78.498 263.16 77.5753 262.797 76.914 262.072C76.2527 261.336 75.922 260.291 75.922 258.936C75.922 257.987 76.082 257.171 76.402 256.488C76.722 255.805 77.1807 255.283 77.778 254.92C78.386 254.547 79.1167 254.36 79.97 254.36ZM79.89 255.528C79.1327 255.528 78.5567 255.816 78.162 256.392C77.778 256.957 77.586 257.779 77.586 258.856C77.586 259.912 77.7727 260.701 78.146 261.224C78.5193 261.736 79.0633 261.992 79.778 261.992C80.3007 261.992 80.7327 261.864 81.074 261.608C81.426 261.352 81.6873 260.979 81.858 260.488C82.0393 259.987 82.13 259.389 82.13 258.696C82.13 257.64 81.938 256.851 81.554 256.328C81.17 255.795 80.6153 255.528 79.89 255.528ZM85.0128 263V262.152L86.4208 261.816L86.2128 262.136V255.384L86.4528 255.72L85.0128 255.4V254.568L88.9008 254.472V255.304L87.6208 255.656L87.8128 255.384V258.344L87.5248 257.992H89.7488L89.2368 258.28L90.9808 255.416L91.1088 255.608L89.8448 255.416V254.568L93.4928 254.456V255.288L92.1008 255.592L92.5487 255.32L90.4528 258.696L90.5648 258.248L92.8368 262.088L92.5968 261.88L93.8928 262.168V263H91.6528L89.3968 259.016L89.6688 259.08H87.5248L87.8128 259V262.136L87.6208 261.816L89.0928 262.152V263H85.0128ZM101.046 263.144C99.9581 263.144 98.8435 262.877 97.7021 262.344L98.1661 261.16C98.6141 261.384 99.0621 261.555 99.5101 261.672C99.9688 261.789 100.401 261.848 100.806 261.848C101.307 261.848 101.745 261.757 102.118 261.576C102.491 261.384 102.779 261.117 102.982 260.776C103.195 260.435 103.302 260.024 103.302 259.544C103.302 259 103.158 258.579 102.87 258.28C102.582 257.981 102.15 257.773 101.574 257.656C101.009 257.528 100.299 257.464 99.4461 257.464H98.3741L98.5981 251.8H104.534L104.518 253.08H99.7341L100.214 252.776L100.038 256.6L99.6061 256.248H100.55C101.606 256.248 102.459 256.376 103.11 256.632C103.771 256.888 104.257 257.256 104.566 257.736C104.875 258.216 105.03 258.803 105.03 259.496C105.03 260.264 104.859 260.925 104.518 261.48C104.177 262.024 103.702 262.44 103.094 262.728C102.497 263.005 101.814 263.144 101.046 263.144ZM119.821 265.912L119.197 262.84L119.373 263H109.501V262.152L111.053 261.784L110.813 262.136V252.696L111.101 253.064L109.501 252.728V251.88L113.757 251.8V252.648L112.173 253.064L112.445 252.696V262.232L112.205 261.8H117.805L117.485 262.232V252.696L117.757 253.048L116.157 252.728V251.88L120.429 251.8V252.648L118.861 253.048L119.117 252.696V262.248L118.861 261.8L120.781 261.864L120.797 265.912H119.821ZM121.857 263V262.152L123.377 261.768L123.057 262.12V255.432L123.473 255.8L121.857 255.4V254.568L125.729 254.472V255.304L124.225 255.736L124.577 255.4V260.392L124.337 260.344L128.849 255.832L128.705 256.136L128.689 255.432L128.961 255.72L127.553 255.4V254.568L131.409 254.472V255.304L129.889 255.736L130.225 255.4V262.12L129.905 261.768L131.409 262.152V263H127.553V262.152L128.977 261.816L128.689 262.12V256.888L128.913 257.064L124.417 261.688L124.577 261.384V262.12L124.449 261.88L125.729 262.152V263H121.857ZM138.273 265.704L138.129 265.512L139.473 265.832V266.68H135.697V265.832L137.041 265.512L136.897 265.704V251.736L137.025 251.88L135.697 251.576V250.728L138.273 250.616V265.704ZM137.729 254.456C139.414 254.456 140.652 254.819 141.441 255.544C142.241 256.259 142.641 257.283 142.641 258.616C142.641 259.512 142.454 260.296 142.081 260.968C141.708 261.629 141.132 262.147 140.353 262.52C139.574 262.883 138.582 263.064 137.377 263.064C135.734 263.064 134.513 262.717 133.713 262.024C132.924 261.32 132.529 260.291 132.529 258.936C132.529 257.987 132.716 257.181 133.089 256.52C133.473 255.848 134.049 255.336 134.817 254.984C135.596 254.632 136.566 254.456 137.729 254.456ZM137.601 255.544C136.769 255.544 136.092 255.667 135.569 255.912C135.057 256.157 134.684 256.52 134.449 257C134.214 257.48 134.097 258.088 134.097 258.824C134.097 259.539 134.209 260.131 134.433 260.6C134.668 261.059 135.036 261.405 135.537 261.64C136.038 261.864 136.689 261.976 137.489 261.976C138.353 261.976 139.046 261.848 139.569 261.592C140.102 261.336 140.486 260.963 140.721 260.472C140.956 259.981 141.073 259.379 141.073 258.664C141.073 257.971 140.956 257.395 140.721 256.936C140.497 256.467 140.129 256.12 139.617 255.896C139.105 255.661 138.433 255.544 137.601 255.544ZM143.634 266.68V265.832L145.058 265.464L144.818 265.752V255.512L145.026 255.752L143.634 255.416V254.568L146.066 254.456L146.258 255.848L146.066 255.736C146.568 255.277 147.058 254.936 147.538 254.712C148.029 254.477 148.52 254.36 149.01 254.36C149.608 254.36 150.141 254.525 150.61 254.856C151.09 255.187 151.469 255.667 151.746 256.296C152.024 256.915 152.162 257.683 152.162 258.6C152.162 259.592 151.992 260.429 151.65 261.112C151.309 261.795 150.829 262.312 150.21 262.664C149.592 263.005 148.866 263.176 148.034 263.176C147.757 263.176 147.464 263.149 147.154 263.096C146.845 263.053 146.525 262.989 146.194 262.904L146.418 262.712V265.752L146.226 265.496L147.81 265.832V266.68H143.634ZM147.842 262.008C148.728 262.008 149.389 261.72 149.826 261.144C150.274 260.568 150.498 259.773 150.498 258.76C150.498 258.088 150.408 257.517 150.226 257.048C150.045 256.568 149.8 256.2 149.49 255.944C149.181 255.688 148.824 255.56 148.418 255.56C148.077 255.56 147.72 255.651 147.346 255.832C146.973 256.013 146.6 256.291 146.226 256.664L146.418 256.2V262.056L146.21 261.72C146.808 261.912 147.352 262.008 147.842 262.008ZM164.124 255.384V262.024L163.98 261.832L165.308 262.152V263H161.324V262.152L162.668 261.832L162.524 262.024V255.4L162.716 255.72L161.324 255.4V254.568L165.308 254.472V255.304L163.836 255.672L164.124 255.384ZM153.388 263V262.152L154.732 261.832L154.572 262.024V255.4L154.78 255.72L153.388 255.4V254.568L157.564 254.472V255.304L155.9 255.672L156.172 255.4V257.784L155.916 257.56H157.804C158.785 257.56 159.543 257.784 160.076 258.232C160.609 258.669 160.876 259.325 160.876 260.2C160.876 261.085 160.577 261.773 159.98 262.264C159.393 262.755 158.439 263 157.116 263H153.388ZM156.172 262.152L155.916 261.912H157.1C157.836 261.912 158.369 261.773 158.7 261.496C159.041 261.208 159.212 260.792 159.212 260.248C159.212 259.715 159.063 259.315 158.764 259.048C158.476 258.781 158.033 258.648 157.436 258.648H155.916L156.172 258.408V262.152Z"
          fill="black"/>
    <path d="M23.2 131.44C20.1867 131.44 17.2267 130.8 14.32 129.52L15.64 126C16.84 126.48 18.0667 126.867 19.32 127.16C20.6 127.453 21.8133 127.6 22.96 127.6C24.1333 127.6 25.1867 127.44 26.12 127.12C27.0533 126.773 27.8 126.24 28.36 125.52C28.92 124.773 29.2 123.84 29.2 122.72C29.2 121.813 29 121.013 28.6 120.32C28.2 119.627 27.56 119.093 26.68 118.72C25.8 118.347 24.64 118.16 23.2 118.16H20.08V114.64H23.08C24.92 114.64 26.28 114.28 27.16 113.56C28.0667 112.813 28.52 111.72 28.52 110.28C28.52 108.76 28.0533 107.68 27.12 107.04C26.1867 106.4 24.9467 106.08 23.4 106.08C22.68 106.08 21.88 106.16 21 106.32C20.12 106.48 19.2133 106.693 18.28 106.96L19 106.28L18.48 110.88H15.56L15.2 104.08C16.8 103.573 18.36 103.187 19.88 102.92C21.4 102.627 22.8667 102.48 24.28 102.48C26.0667 102.48 27.6533 102.72 29.04 103.2C30.4267 103.68 31.52 104.44 32.32 105.48C33.12 106.493 33.52 107.84 33.52 109.52C33.52 110.88 33.2267 112.053 32.64 113.04C32.08 114.027 31.28 114.8 30.24 115.36C29.2 115.92 27.96 116.267 26.52 116.4L26.48 115.96C29.1733 116.12 31.1333 116.813 32.36 118.04C33.5867 119.24 34.2 120.853 34.2 122.88C34.2 124.827 33.6933 126.44 32.68 127.72C31.6667 128.973 30.3333 129.907 28.68 130.52C27.0267 131.133 25.2 131.44 23.2 131.44ZM54.5744 128.48L53.8544 127.52L57.4144 128.48V130.96L50.8544 131.28L50.2144 127.44L50.5344 127.56C49.441 128.867 48.241 129.84 46.9344 130.48C45.6544 131.12 44.3744 131.44 43.0944 131.44C41.4677 131.44 40.0944 130.92 38.9744 129.88C37.8544 128.813 37.2944 127.267 37.2944 125.24C37.2944 123.693 37.6277 122.48 38.2944 121.6C38.961 120.72 39.8944 120.093 41.0944 119.72C42.321 119.32 43.801 119.12 45.5344 119.12H50.1344L49.7744 119.56V116.52C49.7744 115.213 49.441 114.28 48.7744 113.72C48.1077 113.133 47.161 112.84 45.9344 112.84C45.321 112.84 44.6677 112.907 43.9744 113.04C43.3077 113.147 42.5744 113.333 41.7744 113.6L42.3344 113L41.8544 116.4H38.7744L38.4544 110.8C40.1877 110.293 41.7744 109.92 43.2144 109.68C44.6544 109.413 45.9877 109.28 47.2144 109.28C49.561 109.28 51.3744 109.8 52.6544 110.84C53.9344 111.853 54.5744 113.453 54.5744 115.64V128.48ZM42.1344 124.8C42.1344 125.867 42.3877 126.653 42.8944 127.16C43.401 127.667 44.0544 127.92 44.8544 127.92C45.6277 127.92 46.4677 127.68 47.3744 127.2C48.281 126.72 49.161 126.08 50.0144 125.28L49.7744 126.24V121.48L50.1344 121.88H46.2944C44.721 121.88 43.6277 122.12 43.0144 122.6C42.4277 123.08 42.1344 123.813 42.1344 124.8ZM77.28 109.72L77.08 117.64H74.16L73.52 112.6L74.16 113.28H66.64L66.92 112.68V128.4L66.32 127.64L70.52 128.52V131H59.28V128.52L62.6 127.64L62.12 128.4V112.4L62.68 113.24L59.28 112.32V109.84L65.84 109.72H77.28ZM88.9016 109.28C91.9949 109.28 94.3949 110.213 96.1016 112.08C97.8349 113.92 98.7016 116.547 98.7016 119.96C98.7016 122.333 98.2749 124.373 97.4216 126.08C96.5949 127.787 95.3949 129.107 93.8216 130.04C92.2749 130.973 90.4082 131.44 88.2216 131.44C85.1549 131.44 82.7682 130.52 81.0616 128.68C79.3816 126.84 78.5416 124.2 78.5416 120.76C78.5416 118.387 78.9549 116.347 79.7816 114.64C80.6082 112.933 81.7949 111.613 83.3416 110.68C84.8882 109.747 86.7416 109.28 88.9016 109.28ZM88.6616 112.72C86.9816 112.72 85.7016 113.373 84.8216 114.68C83.9682 115.987 83.5416 117.933 83.5416 120.52C83.5416 123.107 83.9549 125 84.7816 126.2C85.6082 127.4 86.8349 128 88.4616 128C89.6349 128 90.6082 127.707 91.3816 127.12C92.1549 126.507 92.7416 125.627 93.1416 124.48C93.5416 123.307 93.7416 121.88 93.7416 120.2C93.7416 117.693 93.3016 115.827 92.4216 114.6C91.5682 113.347 90.3149 112.72 88.6616 112.72ZM102.766 131.36C102.286 131.36 101.793 131.307 101.286 131.2C100.78 131.12 100.22 131 99.6063 130.84L100.286 127.08C100.553 127.107 100.78 127.133 100.966 127.16C101.18 127.187 101.393 127.2 101.606 127.2C103.046 127.2 104.1 126.613 104.766 125.44C105.46 124.24 105.913 122.493 106.126 120.2C106.366 117.907 106.5 115.147 106.526 111.92L107.766 113.36L103.446 112.2V109.72H122.926V112.2L119.126 113.32L120.086 111.84V128.12L119.726 127.68L122.926 128.52V131H112.486V128.52L115.686 127.68L115.286 128.12V111.92L116.086 113.28H108.806L110.246 111.96C110.22 114.947 110.086 117.64 109.846 120.04C109.633 122.44 109.26 124.48 108.726 126.16C108.193 127.84 107.433 129.133 106.446 130.04C105.486 130.92 104.26 131.36 102.766 131.36ZM135.972 109.28C139.065 109.28 141.465 110.213 143.172 112.08C144.905 113.92 145.772 116.547 145.772 119.96C145.772 122.333 145.345 124.373 144.492 126.08C143.665 127.787 142.465 129.107 140.892 130.04C139.345 130.973 137.479 131.44 135.292 131.44C132.225 131.44 129.839 130.52 128.132 128.68C126.452 126.84 125.612 124.2 125.612 120.76C125.612 118.387 126.025 116.347 126.852 114.64C127.679 112.933 128.865 111.613 130.412 110.68C131.959 109.747 133.812 109.28 135.972 109.28ZM135.732 112.72C134.052 112.72 132.772 113.373 131.892 114.68C131.039 115.987 130.612 117.933 130.612 120.52C130.612 123.107 131.025 125 131.852 126.2C132.679 127.4 133.905 128 135.532 128C136.705 128 137.679 127.707 138.452 127.12C139.225 126.507 139.812 125.627 140.212 124.48C140.612 123.307 140.812 121.88 140.812 120.2C140.812 117.693 140.372 115.827 139.492 114.6C138.639 113.347 137.385 112.72 135.732 112.72ZM156.139 109.72H159.539C161.272 109.72 162.752 109.893 163.979 110.24C165.205 110.56 166.152 111.093 166.819 111.84C167.485 112.587 167.819 113.613 167.819 114.92C167.819 116.12 167.512 117.08 166.899 117.8C166.312 118.52 165.445 119.053 164.299 119.4C163.179 119.747 161.819 119.987 160.219 120.12L160.499 119.64C161.672 119.64 162.752 119.733 163.739 119.92C164.725 120.08 165.592 120.373 166.339 120.8C167.112 121.227 167.699 121.8 168.099 122.52C168.499 123.213 168.699 124.093 168.699 125.16C168.699 127.16 167.912 128.64 166.339 129.6C164.765 130.533 162.392 131 159.219 131H148.499V128.52L151.699 127.68L151.339 128.12V112.76L151.659 113.12L148.499 112.32V109.84L156.139 109.72ZM158.539 112.88H155.339L156.139 112.12V119.28L155.339 118.68H157.859C159.672 118.68 160.979 118.44 161.779 117.96C162.579 117.48 162.979 116.707 162.979 115.64C162.979 114.6 162.619 113.88 161.899 113.48C161.179 113.08 160.059 112.88 158.539 112.88ZM158.619 127.76C160.379 127.76 161.659 127.533 162.459 127.08C163.285 126.6 163.699 125.76 163.699 124.56C163.699 123.467 163.352 122.64 162.659 122.08C161.992 121.493 160.899 121.2 159.379 121.2H155.339L156.139 120.56V128.48L155.339 127.76H158.619ZM181.988 109.28C185.081 109.28 187.481 110.213 189.188 112.08C190.921 113.92 191.788 116.547 191.788 119.96C191.788 122.333 191.361 124.373 190.508 126.08C189.681 127.787 188.481 129.107 186.908 130.04C185.361 130.973 183.494 131.44 181.308 131.44C178.241 131.44 175.854 130.52 174.148 128.68C172.468 126.84 171.628 124.2 171.628 120.76C171.628 118.387 172.041 116.347 172.868 114.64C173.694 112.933 174.881 111.613 176.428 110.68C177.974 109.747 179.828 109.28 181.988 109.28ZM181.748 112.72C180.068 112.72 178.788 113.373 177.908 114.68C177.054 115.987 176.628 117.933 176.628 120.52C176.628 123.107 177.041 125 177.868 126.2C178.694 127.4 179.921 128 181.548 128C182.721 128 183.694 127.707 184.468 127.12C185.241 126.507 185.828 125.627 186.228 124.48C186.628 123.307 186.828 121.88 186.828 120.2C186.828 117.693 186.388 115.827 185.508 114.6C184.654 113.347 183.401 112.72 181.748 112.72ZM194.514 131V128.52L197.954 127.6L197.314 128.52V112.2L198.034 113.16L194.514 112.32V109.84L204.674 109.56V112.04L201.634 112.96L202.114 112.2V119.16L201.314 118.16H206.754L205.234 119.04L209.434 112.32L209.794 112.88L206.834 112.32V109.88L216.234 109.56V112.04L212.834 112.76L214.114 112L208.834 120.24L209.234 118.96L214.634 128.36L213.954 127.76L217.074 128.52V131H211.034L205.674 121.2L206.474 121.4H201.314L202.114 121.2V128.52L201.594 127.56L205.074 128.52V131H194.514ZM226.356 131V126.84C229.423 124.227 231.943 121.973 233.916 120.08C235.916 118.16 237.396 116.453 238.356 114.96C239.316 113.44 239.796 111.96 239.796 110.52C239.796 109.053 239.316 107.96 238.356 107.24C237.396 106.52 236.183 106.16 234.716 106.16C234.023 106.16 233.263 106.24 232.436 106.4C231.636 106.56 230.809 106.787 229.956 107.08L230.516 106.24L229.876 110.84H226.916L226.516 104C228.116 103.493 229.676 103.12 231.196 102.88C232.743 102.613 234.183 102.48 235.516 102.48C237.356 102.48 238.983 102.733 240.396 103.24C241.836 103.747 242.956 104.547 243.756 105.64C244.556 106.707 244.956 108.107 244.956 109.84C244.956 111.76 244.449 113.627 243.436 115.44C242.449 117.253 240.996 119.147 239.076 121.12C237.156 123.093 234.796 125.28 231.996 127.68V127.12H245.596V131H226.356Z"
          fill="black"/>
    <path d="M29.68 67.08C23.04 67.08 17.88 65.02 14.2 60.9L19.3 55.8C21.82 59.04 25.16 60.66 29.32 60.66C31.64 60.66 33.66 60.04 35.38 58.8C37.1 57.52 37.96 55.8 37.96 53.64C37.96 49.4 34.64 47.28 28 47.28H25V40.92H28.12C33.92 40.92 36.82 38.82 36.82 34.62C36.82 32.9 36.06 31.5 34.54 30.42C33.06 29.3 31.34 28.74 29.38 28.74C25.62 28.74 22.66 30.08 20.5 32.76L15.76 28.08C19.08 24.32 23.76 22.44 29.8 22.44C34.2 22.44 37.72 23.46 40.36 25.5C43 27.5 44.32 30.28 44.32 33.84C44.32 36.32 43.64 38.42 42.28 40.14C40.92 41.86 39.16 43 37 43.56V43.74C39.56 44.34 41.66 45.54 43.3 47.34C44.94 49.14 45.76 51.4 45.76 54.12C45.76 58.16 44.18 61.34 41.02 63.66C37.9 65.94 34.12 67.08 29.68 67.08ZM70.7078 66V62.34H70.5278C69.8078 63.62 68.6278 64.68 66.9878 65.52C65.3878 66.32 63.5878 66.72 61.5878 66.72C58.8278 66.72 56.3278 66 54.0878 64.56C51.8878 63.08 50.7878 60.82 50.7878 57.78C50.7878 56.14 51.1878 54.72 51.9878 53.52C52.8278 52.28 53.8678 51.32 55.1078 50.64C56.3478 49.96 57.8878 49.42 59.7278 49.02C61.6078 48.58 63.3678 48.3 65.0078 48.18C66.6878 48.06 68.5478 48 70.5878 48V47.28C70.5878 45.6 69.9678 44.3 68.7278 43.38C67.4878 42.46 65.9078 42 63.9878 42C60.9478 42 58.3278 43.1 56.1278 45.3L52.4078 40.92C55.6878 37.88 59.7478 36.36 64.5878 36.36C67.0678 36.36 69.1678 36.72 70.8878 37.44C72.6478 38.12 73.9878 39.08 74.9078 40.32C75.8278 41.52 76.4678 42.8 76.8278 44.16C77.2278 45.48 77.4278 46.92 77.4278 48.48V66H70.7078ZM70.5878 53.88V52.86H68.9678C61.6478 52.86 57.9878 54.46 57.9878 57.66C57.9878 58.94 58.4678 59.86 59.4278 60.42C60.4278 60.98 61.6278 61.26 63.0278 61.26C65.4678 61.26 67.3278 60.62 68.6078 59.34C69.9278 58.02 70.5878 56.2 70.5878 53.88ZM85.8161 66V37.2H106.036V42.96H93.0161V66H85.8161ZM109.156 51.48C109.156 47.04 110.656 43.42 113.656 40.62C116.656 37.78 120.376 36.36 124.816 36.36C129.256 36.36 132.976 37.78 135.976 40.62C138.976 43.42 140.476 47.04 140.476 51.48C140.476 55.96 138.956 59.64 135.916 62.52C132.916 65.4 129.216 66.84 124.816 66.84C120.416 66.84 116.696 65.4 113.656 62.52C110.656 59.64 109.156 55.96 109.156 51.48ZM118.636 45C117.196 46.84 116.476 49 116.476 51.48C116.476 53.96 117.196 56.14 118.636 58.02C120.076 59.9 122.136 60.84 124.816 60.84C127.496 60.84 129.556 59.9 130.996 58.02C132.436 56.14 133.156 53.96 133.156 51.48C133.156 49 132.436 46.84 130.996 45C129.556 43.16 127.496 42.24 124.816 42.24C122.136 42.24 120.076 43.16 118.636 45ZM147.054 66.36C145.134 66.36 143.694 66.2 142.734 65.88L143.274 60C143.874 60.2 144.514 60.3 145.194 60.3C147.034 60.3 148.434 59.36 149.394 57.48C150.354 55.6 150.834 52.26 150.834 47.46V37.2H174.414V66H167.214V42.96H157.734V49.08C157.734 55 156.874 59.36 155.154 62.16C153.434 64.96 150.734 66.36 147.054 66.36ZM181.402 51.48C181.402 47.04 182.902 43.42 185.902 40.62C188.902 37.78 192.622 36.36 197.062 36.36C201.502 36.36 205.222 37.78 208.222 40.62C211.222 43.42 212.722 47.04 212.722 51.48C212.722 55.96 211.202 59.64 208.162 62.52C205.162 65.4 201.462 66.84 197.062 66.84C192.662 66.84 188.942 65.4 185.902 62.52C182.902 59.64 181.402 55.96 181.402 51.48ZM190.882 45C189.442 46.84 188.722 49 188.722 51.48C188.722 53.96 189.442 56.14 190.882 58.02C192.322 59.9 194.382 60.84 197.062 60.84C199.742 60.84 201.802 59.9 203.242 58.02C204.682 56.14 205.402 53.96 205.402 51.48C205.402 49 204.682 46.84 203.242 45C201.802 43.16 199.742 42.24 197.062 42.24C194.382 42.24 192.322 43.16 190.882 45ZM219.703 66V37.2H234.583C236.303 37.2 237.843 37.38 239.203 37.74C240.603 38.1 241.863 38.88 242.983 40.08C244.103 41.24 244.663 42.78 244.663 44.7C244.663 46.18 244.203 47.48 243.283 48.6C242.403 49.68 241.243 50.4 239.803 50.76V50.88C241.603 51.16 243.063 51.92 244.183 53.16C245.343 54.36 245.923 55.92 245.923 57.84C245.923 60.4 244.923 62.4 242.923 63.84C240.923 65.28 238.283 66 235.003 66H219.703ZM226.903 60.84H233.683C237.003 60.84 238.663 59.68 238.663 57.36C238.663 55.04 237.063 53.88 233.863 53.88H226.903V60.84ZM226.903 48.72H233.743C236.383 48.72 237.703 47.66 237.703 45.54C237.703 43.38 236.203 42.3 233.203 42.3H226.903V48.72ZM251.187 51.48C251.187 47.04 252.687 43.42 255.687 40.62C258.687 37.78 262.407 36.36 266.847 36.36C271.287 36.36 275.007 37.78 278.007 40.62C281.007 43.42 282.507 47.04 282.507 51.48C282.507 55.96 280.987 59.64 277.947 62.52C274.947 65.4 271.247 66.84 266.847 66.84C262.447 66.84 258.727 65.4 255.687 62.52C252.687 59.64 251.187 55.96 251.187 51.48ZM260.667 45C259.227 46.84 258.507 49 258.507 51.48C258.507 53.96 259.227 56.14 260.667 58.02C262.107 59.9 264.167 60.84 266.847 60.84C269.527 60.84 271.587 59.9 273.027 58.02C274.467 56.14 275.187 53.96 275.187 51.48C275.187 49 274.467 46.84 273.027 45C271.587 43.16 269.527 42.24 266.847 42.24C264.167 42.24 262.107 43.16 260.667 45ZM289.488 66V37.2H296.688V49.98H296.868L307.968 37.2H317.088L304.428 50.76L318.048 66H308.808L296.868 52.32H296.688V66H289.488ZM349.486 66V32.28L341.086 39.18L336.886 34.2L350.146 23.52H356.686V66H349.486Z"
          fill="black"/>
    <rect x="13.5" y="293.5" width="49" height="49" fill="white" stroke="black"/>
    <rect x="75.5" y="293.5" width="49" height="49" fill="#FCE6D2" stroke="black"/>
    <rect x="137.5" y="293.5" width="49" height="49" fill="#F2994A" stroke="black"/>
    <rect x="199.5" y="293.5" width="49" height="49" fill="#D95D39" stroke="black"/>
    <rect x="261.5" y="293.5" width="49" height="49" fill="black" stroke="black"/>
    <rect x="323.5" y="293.5" width="49" height="49" fill="#583A2D" stroke="black"/>
    <rect x="385.5" y="293.5" width="49" height="49" fill="#D99768" stroke="black"/>
    <g clip-path="url(#clip0_135_367)">
        <path d="M599.873 181.582V184.228C599.873 185.319 598.98 186.212 597.889 186.212H595.243C594.152 186.212 593.259 185.319 593.259 184.228V181.582C593.259 180.491 594.152 179.598 595.243 179.598H597.889C598.98 179.598 599.873 180.491 599.873 181.582ZM597.889 171.661H596.566C595.475 171.661 594.582 172.554 594.582 173.646V174.968C594.582 176.06 595.475 176.952 596.566 176.952H597.889C598.98 176.952 599.873 176.06 599.873 174.968V173.646C599.873 172.554 598.98 171.661 597.889 171.661ZM590.594 182.845L589.291 184.075V171.992C589.291 171.443 588.848 171 588.299 171C587.75 171 587.307 171.443 587.307 171.992V184.075L586.004 182.845C585.607 182.468 584.979 182.488 584.602 182.885C584.225 183.282 584.245 183.91 584.642 184.287L586.659 186.192C587.095 186.628 587.677 186.873 588.299 186.873C588.921 186.873 589.496 186.635 589.913 186.212L591.956 184.287C592.353 183.91 592.373 183.282 591.996 182.885C591.619 182.488 590.991 182.468 590.594 182.845Z"
              fill="#583A2D"/>
    </g>
    <g clip-path="url(#clip1_135_367)">
        <path d="M588.568 212.498C588.059 212.496 587.564 212.333 587.154 212.032C586.735 211.737 586.422 211.314 586.262 210.827C586.102 210.341 586.104 209.815 586.267 209.329L587.047 206.916L584.993 205.415C584.582 205.114 584.276 204.691 584.119 204.206C583.963 203.72 583.964 203.198 584.122 202.713C584.28 202.229 584.588 201.806 585.001 201.507C585.413 201.208 585.91 201.047 586.42 201.047H588.933L589.697 198.667C589.853 198.18 590.161 197.755 590.574 197.453C590.988 197.151 591.487 196.989 591.999 196.989C592.511 196.989 593.009 197.151 593.423 197.453C593.837 197.755 594.144 198.18 594.301 198.667L595.067 201.047H597.58C598.09 201.047 598.587 201.208 598.999 201.507C599.412 201.807 599.72 202.229 599.878 202.714C600.036 203.198 600.037 203.721 599.88 204.206C599.724 204.691 599.418 205.114 599.006 205.415L596.953 206.916L597.733 209.329C597.891 209.816 597.89 210.34 597.73 210.826C597.571 211.312 597.261 211.735 596.846 212.034C596.431 212.333 595.932 212.492 595.421 212.49C594.909 212.487 594.412 212.322 594 212.019L592 210.548L590 212.02C589.586 212.328 589.084 212.496 588.568 212.498ZM586.42 203.047C586.332 203.047 586.246 203.075 586.175 203.126C586.104 203.178 586.051 203.251 586.023 203.335C585.996 203.418 585.996 203.508 586.023 203.592C586.05 203.676 586.102 203.749 586.173 203.801L588.811 205.728C588.981 205.853 589.107 206.027 589.172 206.227C589.237 206.427 589.237 206.643 589.172 206.843L588.172 209.943C588.144 210.027 588.144 210.118 588.171 210.202C588.199 210.286 588.252 210.36 588.324 210.412C588.395 210.464 588.482 210.491 588.57 210.491C588.659 210.491 588.745 210.462 588.816 210.41L591.409 208.502C591.581 208.376 591.788 208.308 592.001 208.308C592.215 208.308 592.422 208.376 592.594 208.502L595.187 210.409C595.258 210.462 595.344 210.491 595.433 210.492C595.522 210.492 595.608 210.464 595.68 210.412C595.752 210.36 595.805 210.287 595.833 210.202C595.86 210.117 595.859 210.026 595.831 209.942L594.831 206.842C594.766 206.642 594.766 206.427 594.831 206.227C594.896 206.026 595.022 205.852 595.192 205.728L597.829 203.8C597.9 203.748 597.952 203.675 597.979 203.592C598.006 203.508 598.006 203.418 597.979 203.334C597.952 203.251 597.899 203.178 597.827 203.126C597.756 203.074 597.671 203.046 597.583 203.046H594.333C594.122 203.046 593.915 202.979 593.744 202.854C593.573 202.729 593.446 202.553 593.381 202.352L592.4 199.278C592.373 199.194 592.32 199.12 592.249 199.068C592.177 199.016 592.091 198.988 592.003 198.988C591.914 198.988 591.828 199.016 591.757 199.068C591.685 199.12 591.632 199.194 591.605 199.278L590.617 202.352C590.552 202.554 590.425 202.729 590.255 202.854C590.084 202.979 589.878 203.047 589.667 203.047H586.42Z"
              fill="#583A2D"/>
    </g>
    <g clip-path="url(#clip2_135_367)">
        <path d="M592 230.873C594.209 230.873 596 229.082 596 226.873C596 224.664 594.209 222.873 592 222.873C589.791 222.873 588 224.664 588 226.873C588 229.082 589.791 230.873 592 230.873Z"
              fill="#583A2D"/>
        <path d="M592 232.206C588.688 232.21 586.004 234.894 586 238.206C586 238.575 586.298 238.873 586.667 238.873H597.333C597.701 238.873 598 238.575 598 238.206C597.996 234.894 595.312 232.21 592 232.206Z"
              fill="#583A2D"/>
    </g>
    <path d="M599.235 249.58C598.782 249.127 598.168 248.873 597.527 248.873C596.887 248.873 596.273 249.127 595.819 249.58L584.977 260.422C584.666 260.731 584.42 261.098 584.252 261.503C584.085 261.907 583.999 262.341 584 262.779V264.148C584 264.325 584.07 264.494 584.195 264.619C584.32 264.744 584.49 264.814 584.667 264.814H586.035C586.473 264.816 586.907 264.73 587.311 264.562C587.716 264.395 588.083 264.149 588.392 263.838L599.235 252.995C599.688 252.542 599.942 251.928 599.942 251.287C599.942 250.647 599.688 250.033 599.235 249.58ZM587.449 262.896C587.073 263.269 586.565 263.48 586.035 263.481H585.333V262.779C585.333 262.516 585.384 262.256 585.485 262.013C585.585 261.771 585.733 261.55 585.919 261.365L594.148 253.136L595.681 254.67L587.449 262.896ZM598.292 252.052L596.621 253.724L595.088 252.194L596.759 250.522C596.86 250.422 596.98 250.342 597.111 250.288C597.242 250.234 597.383 250.206 597.526 250.206C597.668 250.206 597.809 250.234 597.94 250.289C598.071 250.343 598.191 250.423 598.291 250.524C598.391 250.625 598.471 250.744 598.525 250.876C598.58 251.007 598.608 251.148 598.607 251.29C598.607 251.432 598.579 251.573 598.525 251.705C598.47 251.836 598.39 251.955 598.289 252.056L598.292 252.052Z"
          fill="#583A2D"/>
    <g clip-path="url(#clip3_135_367)">
        <path d="M596 274.814H589.333C588.686 274.815 588.052 275.005 587.51 275.36C586.968 275.715 586.542 276.221 586.283 276.814H585.333C585.157 276.814 584.987 276.885 584.862 277.01C584.737 277.135 584.667 277.304 584.667 277.481C584.667 277.658 584.737 277.827 584.862 277.952C584.987 278.077 585.157 278.148 585.333 278.148H586V279.481H585.333C585.157 279.481 584.987 279.551 584.862 279.676C584.737 279.801 584.667 279.971 584.667 280.148C584.667 280.325 584.737 280.494 584.862 280.619C584.987 280.744 585.157 280.814 585.333 280.814H586V282.148H585.333C585.157 282.148 584.987 282.218 584.862 282.343C584.737 282.468 584.667 282.638 584.667 282.814C584.667 282.991 584.737 283.161 584.862 283.286C584.987 283.411 585.157 283.481 585.333 283.481H586V284.814H585.333C585.157 284.814 584.987 284.885 584.862 285.01C584.737 285.135 584.667 285.304 584.667 285.481C584.667 285.658 584.737 285.827 584.862 285.952C584.987 286.077 585.157 286.148 585.333 286.148H586V287.481H585.333C585.157 287.481 584.987 287.551 584.862 287.676C584.737 287.801 584.667 287.971 584.667 288.148C584.667 288.325 584.737 288.494 584.862 288.619C584.987 288.744 585.157 288.814 585.333 288.814H586.283C586.542 289.408 586.968 289.914 587.51 290.269C588.052 290.624 588.686 290.814 589.333 290.814H596C596.884 290.813 597.731 290.462 598.356 289.837C598.981 289.212 599.332 288.365 599.333 287.481V278.148C599.332 277.264 598.981 276.417 598.356 275.792C597.731 275.167 596.884 274.815 596 274.814ZM598 287.481C598 288.011 597.789 288.52 597.414 288.895C597.039 289.27 596.531 289.481 596 289.481H589.333C588.803 289.481 588.294 289.27 587.919 288.895C587.544 288.52 587.333 288.011 587.333 287.481V278.148C587.333 277.617 587.544 277.109 587.919 276.734C588.294 276.358 588.803 276.148 589.333 276.148H596C596.531 276.148 597.039 276.358 597.414 276.734C597.789 277.109 598 277.617 598 278.148V287.481ZM592.667 282.814C593.197 282.814 593.706 282.604 594.081 282.229C594.456 281.854 594.667 281.345 594.667 280.814C594.667 280.284 594.456 279.775 594.081 279.4C593.706 279.025 593.197 278.814 592.667 278.814C592.136 278.814 591.628 279.025 591.253 279.4C590.877 279.775 590.667 280.284 590.667 280.814C590.667 281.345 590.877 281.854 591.253 282.229C591.628 282.604 592.136 282.814 592.667 282.814ZM596 286.814C596 286.991 595.93 287.161 595.805 287.286C595.68 287.411 595.51 287.481 595.333 287.481C595.157 287.481 594.987 287.411 594.862 287.286C594.737 287.161 594.667 286.991 594.667 286.814C594.667 286.284 594.456 285.775 594.081 285.4C593.706 285.025 593.197 284.814 592.667 284.814C592.136 284.814 591.628 285.025 591.253 285.4C590.877 285.775 590.667 286.284 590.667 286.814C590.667 286.991 590.597 287.161 590.471 287.286C590.346 287.411 590.177 287.481 590 287.481C589.823 287.481 589.654 287.411 589.529 287.286C589.404 287.161 589.333 286.991 589.333 286.814C589.474 282.409 595.861 282.41 596 286.814Z"
              fill="#583A2D"/>
    </g>
    <path d="M597.632 312.895C597.384 312.772 597.122 312.663 596.848 312.565C597.41 312.165 597.872 311.701 598.239 311.155C598.81 310.306 599.055 309.483 598.99 308.637C598.915 307.683 598.263 307.032 597.363 307.018C597.075 307.018 596.775 307.081 596.453 307.207L596.437 307.212C595.976 306.784 595.407 306.598 594.86 306.46C594.531 306.378 594.195 306.313 593.855 306.259C593.825 306.294 593.797 306.33 593.766 306.364C593.58 306.577 593.393 306.792 593.213 307.012C593.123 307.122 593.05 307.222 592.982 307.317C593.561 307.374 594.138 307.471 594.701 307.618C594.932 307.678 595.14 307.755 595.35 307.857C594.989 308.029 594.575 308.157 594.092 308.242C593.624 308.326 593.167 308.377 592.713 308.41C592.532 308.424 592.352 308.434 592.173 308.442C592.014 307.743 592.375 307.189 592.808 306.663C593.219 306.162 593.662 305.689 594.065 305.181C594.464 304.677 594.746 304.11 594.752 303.437C594.757 302.261 593.646 300.974 592.498 300.819C592.375 300.803 592.267 300.825 592.203 300.938C592.137 301.052 592.166 301.169 592.26 301.254C592.396 301.382 592.543 301.496 592.681 301.62C593.597 302.453 593.693 303.197 592.978 304.214C592.621 304.721 592.213 305.187 591.828 305.673C591.493 306.096 591.239 306.562 591.119 307.098C591.013 307.566 591.079 308.047 591.277 308.436C591.079 308.425 590.882 308.409 590.686 308.388C590.105 308.328 589.535 308.227 588.983 308.074C588.808 308.026 588.604 307.962 588.394 307.857C588.761 307.674 589.124 307.582 589.406 307.522C589.789 307.441 590.171 307.381 590.551 307.338C590.56 307.216 590.579 307.095 590.605 306.975C590.67 306.688 590.768 306.412 590.901 306.142C590.512 306.172 590.118 306.216 589.722 306.277C588.979 306.394 588.391 306.57 587.873 306.828C587.598 306.964 587.317 307.131 587.126 307.434C586.813 307.929 586.627 308.491 586.573 309.106C586.467 310.305 586.764 311.479 587.361 312.463C586.972 312.586 586.611 312.727 586.274 312.895C585.876 313.092 585.319 313.359 585.127 313.827C584.801 314.625 585.122 315.122 585.853 315.524C587.402 316.375 589.521 316.807 591.933 316.813V316.814C591.939 316.814 591.945 316.814 591.951 316.814C591.957 316.814 591.963 316.814 591.969 316.814V316.813C594.382 316.807 596.5 316.375 598.049 315.524C598.78 315.124 599.101 314.625 598.775 313.827C598.587 313.359 598.03 313.092 597.632 312.895ZM597.375 308.199C597.379 308.199 597.395 308.199 597.4 308.199C597.656 308.208 597.776 308.319 597.814 308.581C597.865 308.934 597.77 309.274 597.68 309.531C597.539 309.946 597.34 310.333 597.078 310.705C597.116 310.525 597.144 310.35 597.161 310.176C597.236 309.433 597.185 308.824 597 308.266C597.13 308.232 597.255 308.199 597.375 308.199ZM587.737 308.817C588.856 309.349 590.126 309.598 591.723 309.598C591.729 309.598 591.735 309.598 591.74 309.598C591.917 309.598 592.102 309.595 592.296 309.589C592.485 309.583 592.681 309.574 592.892 309.564C593.829 309.513 594.656 309.352 595.421 309.078C595.622 309.006 595.818 308.916 596.004 308.814C596.279 309.984 595.903 311.709 594.632 312.838C593.866 313.519 592.886 313.894 591.874 313.894C591.019 313.894 590.196 313.632 589.492 313.134C587.902 312.009 587.472 310.132 587.737 308.817ZM591.996 315.64C591.991 315.64 591.967 315.64 591.961 315.64C590.123 315.691 586.739 314.86 586.751 314.325C586.757 314.055 587.697 313.735 588.268 313.587C588.641 313.941 589.067 314.245 589.538 314.479C589.899 314.659 590.248 314.783 590.605 314.861C590.927 314.932 591.429 315.016 591.995 315.016C592.483 315.016 592.934 314.953 593.33 314.828C594.16 314.581 594.882 314.145 595.5 313.551C596.038 313.677 597.152 314.032 597.158 314.325C597.17 314.861 593.835 315.691 591.996 315.64Z"
          fill="#583A2D"/>
    <g clip-path="url(#clip4_135_367)">
        <path d="M594.667 332.148C594.542 332.023 594.372 331.953 594.195 331.953C594.019 331.953 593.849 332.023 593.724 332.148L592 333.872L590.276 332.148C590.15 332.026 589.982 331.959 589.807 331.961C589.632 331.962 589.465 332.032 589.342 332.156C589.218 332.279 589.148 332.447 589.146 332.621C589.145 332.796 589.212 332.965 589.333 333.09L591.057 334.814L589.333 336.538C589.212 336.664 589.145 336.833 589.146 337.007C589.148 337.182 589.218 337.349 589.342 337.473C589.465 337.597 589.632 337.667 589.807 337.668C589.982 337.67 590.15 337.603 590.276 337.481L592 335.757L593.724 337.481C593.85 337.603 594.018 337.67 594.193 337.668C594.368 337.667 594.535 337.597 594.659 337.473C594.782 337.349 594.852 337.182 594.854 337.007C594.855 336.833 594.788 336.664 594.667 336.538L592.943 334.814L594.667 333.09C594.792 332.965 594.862 332.796 594.862 332.619C594.862 332.442 594.792 332.273 594.667 332.148Z"
              fill="#583A2D"/>
        <path d="M592 326.814C590.418 326.814 588.871 327.284 587.555 328.163C586.24 329.042 585.214 330.291 584.609 331.753C584.003 333.215 583.845 334.823 584.154 336.375C584.462 337.927 585.224 339.352 586.343 340.471C587.462 341.59 588.887 342.352 590.439 342.661C591.991 342.969 593.6 342.811 595.061 342.205C596.523 341.6 597.773 340.575 598.652 339.259C599.531 337.943 600 336.397 600 334.814C599.998 332.693 599.154 330.66 597.654 329.16C596.155 327.66 594.121 326.817 592 326.814ZM592 341.481C590.681 341.481 589.393 341.09 588.296 340.358C587.2 339.625 586.345 338.584 585.841 337.366C585.336 336.147 585.204 334.807 585.461 333.514C585.719 332.221 586.354 331.033 587.286 330.1C588.218 329.168 589.406 328.533 590.699 328.276C591.993 328.019 593.333 328.151 594.551 328.655C595.769 329.16 596.811 330.014 597.543 331.111C598.276 332.207 598.667 333.496 598.667 334.814C598.665 336.582 597.962 338.276 596.712 339.526C595.462 340.776 593.768 341.479 592 341.481Z"
              fill="#583A2D"/>
    </g>
    <g clip-path="url(#clip5_135_367)">
        <path d="M568.333 146.667H559.667C558.695 146.668 557.763 147.054 557.075 147.742C556.388 148.429 556.001 149.361 556 150.333V157.667C556.001 158.639 556.388 159.571 557.075 160.258C557.763 160.946 558.695 161.332 559.667 161.333H568.333C569.305 161.332 570.237 160.946 570.925 160.258C571.612 159.571 571.999 158.639 572 157.667V150.333C571.999 149.361 571.612 148.429 570.925 147.742C570.237 147.054 569.305 146.668 568.333 146.667ZM568.333 148.667C568.738 148.668 569.127 148.818 569.429 149.087L565.095 153.421C564.801 153.702 564.41 153.859 564.003 153.859C563.596 153.859 563.204 153.702 562.91 153.421L558.577 149.087C558.877 148.819 559.264 148.669 559.667 148.667H568.333ZM568.333 159.333H559.667C559.225 159.333 558.801 159.158 558.488 158.845C558.176 158.533 558 158.109 558 157.667V151.345L561.493 154.837C561.822 155.167 562.213 155.428 562.643 155.606C563.073 155.784 563.534 155.876 564 155.876C564.465 155.876 564.926 155.784 565.357 155.606C565.787 155.428 566.177 155.167 566.507 154.837L570 151.345V157.667C570 158.109 569.824 158.533 569.512 158.845C569.199 159.158 568.775 159.333 568.333 159.333Z"
              fill="#583A2D"/>
    </g>
    <path d="M563.029 184.303C562.805 183.09 561.571 181.986 560.45 181.398C559.03 180.662 557.46 179.154 557.123 177.462C557.049 177.057 557.198 176.506 557.385 176.138C555.703 177.425 555.479 180.478 557.123 182.979C558.544 185.113 560.749 186.253 562.581 185.922C562.992 185.407 563.141 184.892 563.029 184.303Z"
          fill="#583A2D"/>
    <path d="M567.365 184.929C567.926 183.641 567.44 181.802 566.692 180.552C565.795 179.007 565.234 176.543 565.982 174.74C566.169 174.262 566.655 173.857 567.103 173.6C564.636 173.821 562.506 176.616 562.506 180.037C562.506 182.979 563.926 185.444 565.907 186.216C566.655 185.959 567.103 185.554 567.365 184.929Z"
          fill="#583A2D"/>
    <path d="M562.057 180C562.057 178.933 562.244 177.867 562.618 176.91C561.385 175.88 559.964 175.402 558.693 175.623C558.245 176.138 558.058 176.653 558.17 177.278C558.394 178.529 559.777 179.853 560.973 180.441C561.347 180.625 561.721 180.883 562.095 181.177C562.057 180.772 562.057 180.405 562.057 180Z"
          fill="#583A2D"/>
    <path d="M572 180C572 177.131 570.617 174.667 568.673 173.858C568.673 173.858 568.673 173.858 568.636 173.858C567.888 174.078 567.402 174.483 567.103 175.145C566.543 176.506 567.029 178.602 567.776 179.926C568.598 181.324 569.271 183.605 568.486 185.407C568.337 185.812 567.888 186.106 567.552 186.4C570.019 186.069 572 183.31 572 180Z"
          fill="#583A2D"/>
    <g clip-path="url(#clip6_135_367)">
        <path d="M564 214C568.418 214 572 210.418 572 206C572 201.582 568.418 198 564 198C559.582 198 556 201.582 556 206C556 210.418 559.582 214 564 214Z"
              fill="#583A2D"/>
        <path fill-rule="evenodd" clip-rule="evenodd"
              d="M559.621 205.916C561.953 204.899 563.508 204.23 564.287 203.906C566.508 202.982 566.97 202.821 567.271 202.816C567.337 202.815 567.485 202.831 567.581 202.909C567.662 202.975 567.684 203.063 567.695 203.126C567.705 203.188 567.719 203.33 567.708 203.441C567.588 204.706 567.067 207.775 566.802 209.192C566.69 209.792 566.469 209.993 566.255 210.012C565.79 210.055 565.438 209.705 564.988 209.41C564.284 208.949 563.886 208.662 563.202 208.211C562.412 207.691 562.925 207.405 563.375 206.937C563.492 206.815 565.539 204.953 565.579 204.784C565.584 204.763 565.589 204.684 565.542 204.643C565.495 204.601 565.426 204.615 565.376 204.627C565.306 204.643 564.181 205.386 562.002 206.857C561.682 207.076 561.393 207.183 561.134 207.177C560.848 207.171 560.299 207.016 559.891 206.883C559.39 206.72 558.991 206.634 559.026 206.358C559.044 206.213 559.242 206.066 559.621 205.916Z"
              fill="white"/>
    </g>
    <path d="M556 231.68C556 228.06 556 226.249 557.125 225.125C558.249 224 560.06 224 563.68 224H564.32C567.94 224 569.751 224 570.875 225.125C572 226.249 572 228.06 572 231.68V232.32C572 235.94 572 237.751 570.875 238.875C569.751 240 567.94 240 564.32 240H563.68C560.06 240 558.249 240 557.125 238.875C556 237.751 556 235.94 556 232.32V231.68Z"
          fill="#583A2D"/>
    <path d="M564.513 235.527C560.867 235.527 558.787 233.027 558.7 228.867H560.527C560.587 231.92 561.933 233.213 563 233.48V228.867H564.72V231.5C565.773 231.387 566.88 230.187 567.253 228.867H568.973C568.687 230.493 567.487 231.693 566.633 232.187C567.487 232.587 568.853 233.633 569.373 235.527H567.48C567.073 234.26 566.06 233.28 564.72 233.147V235.527H564.513Z"
          fill="white"/>
    <path d="M562.471 259.529C562.732 259.789 562.732 260.211 562.471 260.471L558.276 264.667H561.333C561.702 264.667 562 264.965 562 265.333C562 265.701 561.702 266 561.333 266H558C556.897 266 556 265.103 556 264V260.667C556 260.299 556.298 260 556.667 260C557.035 260 557.333 260.299 557.333 260.667V263.724L561.529 259.529C561.789 259.268 562.211 259.268 562.471 259.529ZM570 250H566.667C566.298 250 566 250.299 566 250.667C566 251.035 566.298 251.333 566.667 251.333H569.724L565.529 255.529C565.268 255.789 565.268 256.211 565.529 256.471C565.659 256.601 565.829 256.667 566 256.667C566.171 256.667 566.341 256.601 566.471 256.471L570.667 252.276V255.333C570.667 255.701 570.965 256 571.333 256C571.702 256 572 255.701 572 255.333V252C572 250.897 571.103 250 570 250Z"
          fill="#583A2D"/>
    <path d="M562 287.727L562 280.273C562.001 280.141 562.04 280.013 562.114 279.903C562.188 279.794 562.292 279.709 562.414 279.659C562.536 279.609 562.67 279.597 562.799 279.623C562.929 279.649 563.047 279.713 563.14 279.807L566.86 283.527C566.922 283.589 566.972 283.662 567.006 283.744C567.04 283.825 567.057 283.912 567.057 284C567.057 284.088 567.04 284.175 567.006 284.256C566.972 284.338 566.922 284.411 566.86 284.473L563.14 288.193C563.047 288.287 562.929 288.351 562.799 288.377C562.67 288.403 562.536 288.391 562.414 288.341C562.292 288.291 562.188 288.206 562.114 288.097C562.04 287.987 562.001 287.859 562 287.727Z"
          fill="#583A2D"/>
    <g clip-path="url(#clip7_135_367)">
        <path d="M560.667 318C561.403 318 562 317.403 562 316.667C562 315.93 561.403 315.333 560.667 315.333C559.93 315.333 559.333 315.93 559.333 316.667C559.333 317.403 559.93 318 560.667 318Z"
              fill="#583A2D"/>
        <path d="M567.333 318C568.07 318 568.667 317.403 568.667 316.667C568.667 315.93 568.07 315.333 567.333 315.333C566.597 315.333 566 315.93 566 316.667C566 317.403 566.597 318 567.333 318Z"
              fill="#583A2D"/>
        <path d="M571.323 306.012C570.853 305.563 570.225 305.319 569.576 305.333H559.769L559.594 303.959C559.53 303.419 559.271 302.922 558.865 302.561C558.459 302.2 557.935 302 557.391 302H557C556.735 302 556.48 302.105 556.293 302.293C556.105 302.48 556 302.735 556 303C556 303.265 556.105 303.52 556.293 303.707C556.48 303.895 556.735 304 557 304H557.391C557.446 304.001 557.498 304.021 557.538 304.058C557.579 304.095 557.604 304.146 557.609 304.2L558.609 312.039C558.672 312.579 558.931 313.077 559.337 313.439C559.743 313.8 560.268 314 560.811 314H567.559C568.362 314 569.142 313.736 569.781 313.249C570.419 312.762 570.88 312.079 571.093 311.305L571.923 308.285C572.034 307.887 572.037 307.466 571.931 307.067C571.826 306.667 571.616 306.303 571.323 306.012ZM569.167 310.775C569.069 311.127 568.859 311.437 568.569 311.658C568.279 311.879 567.924 311.999 567.559 312H560.811C560.757 312 560.704 311.979 560.664 311.942C560.624 311.905 560.599 311.854 560.595 311.8L560.025 307.333H569.676C569.727 307.333 569.778 307.344 569.825 307.367C569.871 307.39 569.911 307.423 569.943 307.463C569.974 307.504 569.996 307.552 570.006 307.602C570.016 307.653 570.014 307.705 570 307.755L569.167 310.775Z"
              fill="#583A2D"/>
    </g>
    <g clip-path="url(#clip8_135_367)">
        <path d="M560.667 344C561.403 344 562 343.403 562 342.667C562 341.93 561.403 341.333 560.667 341.333C559.93 341.333 559.333 341.93 559.333 342.667C559.333 343.403 559.93 344 560.667 344Z"
              fill="#583A2D"/>
        <path d="M567.333 344C568.07 344 568.667 343.403 568.667 342.667C568.667 341.93 568.07 341.333 567.333 341.333C566.597 341.333 566 341.93 566 342.667C566 343.403 566.597 344 567.333 344Z"
              fill="#583A2D"/>
        <path d="M571.333 330H570V328.667C570 328.49 569.93 328.32 569.805 328.195C569.68 328.07 569.51 328 569.333 328C569.157 328 568.987 328.07 568.862 328.195C568.737 328.32 568.667 328.49 568.667 328.667V330H567.333C567.157 330 566.987 330.07 566.862 330.195C566.737 330.32 566.667 330.49 566.667 330.667C566.667 330.843 566.737 331.013 566.862 331.138C566.987 331.263 567.157 331.333 567.333 331.333H568.667V332.667C568.667 332.843 568.737 333.013 568.862 333.138C568.987 333.263 569.157 333.333 569.333 333.333C569.51 333.333 569.68 333.263 569.805 333.138C569.93 333.013 570 332.843 570 332.667V331.333H571.333C571.51 331.333 571.68 331.263 571.805 331.138C571.93 331.013 572 330.843 572 330.667C572 330.49 571.93 330.32 571.805 330.195C571.68 330.07 571.51 330 571.333 330Z"
              fill="#583A2D"/>
        <path d="M570.514 334.484C570.428 334.468 570.339 334.469 570.254 334.487C570.168 334.506 570.086 334.541 570.014 334.591C569.942 334.641 569.881 334.705 569.834 334.779C569.787 334.852 569.754 334.935 569.739 335.021C569.656 335.483 569.414 335.9 569.054 336.201C568.694 336.502 568.24 336.667 567.771 336.667H559.612L558.985 331.333H564.667C564.843 331.333 565.013 331.263 565.138 331.138C565.263 331.013 565.333 330.843 565.333 330.667C565.333 330.49 565.263 330.32 565.138 330.195C565.013 330.07 564.843 330 564.667 330H558.828L558.8 329.765C558.743 329.279 558.509 328.831 558.143 328.505C557.777 328.18 557.304 328 556.815 328H556.667C556.49 328 556.32 328.07 556.195 328.195C556.07 328.32 556 328.49 556 328.667C556 328.843 556.07 329.013 556.195 329.138C556.32 329.263 556.49 329.333 556.667 329.333H556.815C556.978 329.333 557.136 329.393 557.258 329.502C557.38 329.61 557.458 329.76 557.477 329.922L558.394 337.722C558.489 338.533 558.879 339.281 559.489 339.824C560.1 340.367 560.888 340.667 561.705 340.667H568.667C568.843 340.667 569.013 340.596 569.138 340.471C569.263 340.346 569.333 340.177 569.333 340C569.333 339.823 569.263 339.654 569.138 339.529C569.013 339.404 568.843 339.333 568.667 339.333H561.705C561.291 339.333 560.888 339.205 560.55 338.966C560.212 338.728 559.957 338.39 559.819 338H567.771C568.553 338 569.309 337.726 569.909 337.225C570.509 336.723 570.913 336.028 571.052 335.259C571.068 335.172 571.066 335.084 571.047 334.998C571.029 334.913 570.993 334.832 570.944 334.76C570.894 334.688 570.83 334.627 570.756 334.579C570.683 334.532 570.6 334.5 570.514 334.484Z"
              fill="#583A2D"/>
    </g>
    <defs>
        <clipPath id="clip0_135_367">
            <rect width="15.873" height="15.873" fill="white" transform="translate(584 171)"/>
        </clipPath>
        <clipPath id="clip1_135_367">
            <rect width="16" height="16" fill="white" transform="translate(584 196.873)"/>
        </clipPath>
        <clipPath id="clip2_135_367">
            <rect width="16" height="16" fill="white" transform="translate(584 222.873)"/>
        </clipPath>
        <clipPath id="clip3_135_367">
            <rect width="16" height="16" fill="white" transform="translate(584 274.814)"/>
        </clipPath>
        <clipPath id="clip4_135_367">
            <rect width="16" height="16" fill="white" transform="translate(584 326.814)"/>
        </clipPath>
        <clipPath id="clip5_135_367">
            <rect width="16" height="16" fill="white" transform="translate(556 146)"/>
        </clipPath>
        <clipPath id="clip6_135_367">
            <rect width="16" height="16" fill="white" transform="translate(556 198)"/>
        </clipPath>
        <clipPath id="clip7_135_367">
            <rect width="16" height="16" fill="white" transform="translate(556 302)"/>
        </clipPath>
        <clipPath id="clip8_135_367">
            <rect width="16" height="16" fill="white" transform="translate(556 328)"/>
        </clipPath>
    </defs>
</svg>
