<svg width="68" height="68" viewBox="0 0 68 68" fill="none" xmlns="http://www.w3.org/2000/svg">
<rect width="68" height="68" fill="#FCE6D2"/>
<path fill-rule="evenodd" clip-rule="evenodd" d="M42.9549 50.325C43.3335 50.325 43.6364 50.6173 43.6364 50.9827C43.6364 52.2818 43.6364 55.0708 43.6364 55.0749V55.0789C43.607 56.9626 41.9621 58.5824 40.0355 58.6596C40.0313 58.6596 40.027 58.6596 40.0228 58.6596C33.9315 58.7367 27.8401 58.7367 21.7488 58.6596C21.7446 58.6596 21.7404 58.6596 21.732 58.6596C19.8936 58.5865 18.3119 57.125 18.1436 55.3712C18.1436 55.3672 18.1436 55.3631 18.1436 55.359C18.0469 53.9138 18.009 52.4564 18.0006 50.9827C18.0006 50.8081 18.0721 50.6417 18.1983 50.5199C18.3245 50.394 18.5012 50.325 18.6821 50.325C22.3083 50.325 39.3329 50.325 42.9549 50.325ZM45.4495 43.115C45.4495 42.6725 45.4537 42.5466 46.0343 42.4654C46.6484 42.3761 47.5865 42.2462 48.003 42.2218C48.1208 42.2178 48.1208 42.2178 48.2386 42.2218C50.6617 42.3274 52.7692 44.3207 52.8618 46.7362C52.9123 50.4224 51.4147 54.0478 47.881 55.489C47.3005 55.7122 46.3918 56.0776 45.7945 56.3171C45.6725 56.3699 45.5295 56.3496 45.4243 56.2725C45.3191 56.1953 45.2602 56.0695 45.2771 55.9396C45.3275 55.5336 45.3906 55.0261 45.4243 54.746C45.4411 54.6121 45.5337 54.4984 45.6641 54.4537C46.7242 54.0802 47.7716 53.7067 48.6256 53.0694C50.4934 51.6769 51.0823 49.3669 51.0487 46.7809C50.9898 45.2341 49.5006 43.7808 47.9273 43.9878L47.8768 43.9959C47.3426 44.1056 46.8125 44.2233 46.2825 44.341C46.0805 44.3857 45.9291 44.3897 45.7061 44.2152C45.4495 44.0203 45.4495 43.9026 45.4495 43.7036C45.4495 43.5047 45.4495 43.2977 45.4495 43.115ZM42.9549 40.4802C43.1358 40.4802 43.3083 40.5493 43.4387 40.671C43.5649 40.7969 43.6364 40.9633 43.6364 41.1379C43.6364 42.027 43.6364 43.5372 43.6364 43.7118C43.6364 43.7239 43.6364 43.7402 43.6322 43.7524C43.6322 43.7848 43.6322 43.8173 43.6322 43.8457C43.6322 43.862 43.6364 43.8741 43.6364 43.8904C43.6364 44.1177 43.6364 46.6794 43.6364 47.9136C43.6364 48.2749 43.3335 48.5672 42.9549 48.5672C39.3371 48.5712 22.3419 48.5753 18.6989 48.5753C18.518 48.5753 18.3413 48.5022 18.2151 48.3804C18.0889 48.2546 18.0174 48.0841 18.0216 47.9095C18.0553 45.6564 18.1184 43.391 18.131 41.1339C18.131 40.7725 18.4381 40.4802 18.8125 40.4802C22.4177 40.4802 39.3414 40.4802 42.9549 40.4802ZM44.7891 38.767C44.9868 38.7549 45.1845 38.7427 45.3822 38.7264C45.8828 38.6656 45.9081 37.6303 45.3654 37.5897C35.7236 37.3624 26.0775 37.5897 16.4315 37.5897C15.8762 37.6019 15.8467 38.6899 16.402 38.7305C16.6292 38.7346 16.8564 38.7386 17.0835 38.7467C17.1298 38.7386 17.1761 38.7305 17.2266 38.7305C17.3443 38.7305 17.5841 38.7305 17.5841 38.7305L44.2043 38.7143C44.2043 38.7143 44.4946 38.7264 44.6376 38.7346C44.6881 38.7427 44.7428 38.7549 44.7891 38.767ZM18.9766 16.5239C18.9892 16.5239 19.006 16.5239 19.0186 16.5239C19.0397 16.5239 19.0565 16.528 19.0775 16.528C19.0859 16.528 19.0986 16.528 19.1112 16.528C19.2332 16.528 19.9483 16.528 20.4573 16.528C20.7686 16.528 21.0336 16.7391 21.0925 17.0314C21.652 19.7149 24.2686 32.3121 24.8744 35.231C24.9038 35.3772 24.866 35.5315 24.765 35.6492C24.6641 35.7669 24.5168 35.8359 24.3612 35.8359C24.1971 35.8359 24.0499 35.7385 23.9952 35.5883C23.2506 33.6478 18.3371 20.7988 17.0246 17.3643C16.9531 17.1735 16.9826 16.9583 17.1004 16.7919C17.2223 16.6214 17.4201 16.5239 17.6346 16.5239C18.2067 16.5239 18.8504 16.5239 18.9766 16.5239ZM25.8209 16.528C26.1532 16.528 26.4351 16.7716 26.4645 17.0923C26.7422 19.8773 27.9621 32.1091 28.265 35.1499C28.2819 35.3244 28.223 35.499 28.101 35.6289C27.9748 35.7588 27.8023 35.8359 27.6172 35.8359C27.5373 35.8359 27.4573 35.8359 27.3816 35.8359C27.0703 35.8359 26.8053 35.6248 26.7464 35.3325C26.1953 32.6937 23.6544 20.4456 22.994 17.279C22.9561 17.0923 23.0066 16.9015 23.1286 16.7553C23.2548 16.6133 23.4357 16.528 23.6334 16.528C24.2939 16.528 25.2236 16.528 25.8209 16.528ZM32.6484 16.528C32.8335 16.528 33.006 16.6011 33.128 16.735C33.25 16.865 33.3131 17.0395 33.2963 17.2141C32.9934 20.2548 31.7734 32.4826 31.4958 35.2676C31.4621 35.5883 31.1845 35.8359 30.8522 35.8359C30.8143 35.8359 30.7806 35.8359 30.7428 35.8359C30.4105 35.8359 30.1328 35.5883 30.0992 35.2676C29.8215 32.4826 28.6016 20.2548 28.2987 17.2141C28.2819 17.0395 28.3407 16.865 28.4669 16.735C28.5889 16.6011 28.7614 16.528 28.9465 16.528C29.9225 16.528 31.6725 16.528 32.6484 16.528ZM37.9615 16.528C38.1593 16.528 38.3401 16.6133 38.4664 16.7553C38.5883 16.9015 38.6388 17.0923 38.601 17.279C37.9405 20.4456 35.3996 32.6897 34.8486 35.3285C34.7897 35.6208 34.5246 35.8319 34.2133 35.8319C34.1376 35.8319 34.0577 35.8319 33.9778 35.8319C33.7927 35.8319 33.6202 35.7588 33.494 35.6289C33.372 35.499 33.3131 35.3244 33.3299 35.1458C33.6328 32.1051 34.8528 19.8773 35.1304 17.0923C35.1599 16.7716 35.4417 16.528 35.774 16.528C36.3714 16.528 37.3011 16.528 37.9615 16.528ZM43.9603 16.5239C44.1707 16.5239 44.3726 16.6214 44.4946 16.7919C44.6124 16.9583 44.6418 17.1735 44.5703 17.3643C43.2578 20.7988 38.3444 33.6437 37.604 35.5883C37.5451 35.7344 37.3978 35.8319 37.238 35.8319C37.2338 35.8319 37.2338 35.8319 37.2338 35.8319C37.0781 35.8319 36.9309 35.7669 36.8299 35.6492C36.729 35.5315 36.6911 35.3772 36.7206 35.227C37.3263 32.3081 39.9429 19.7108 40.5024 17.0314C40.5613 16.7391 40.8263 16.528 41.1376 16.528C41.6466 16.528 42.3618 16.528 42.4838 16.528C42.4964 16.528 42.509 16.528 42.5174 16.528L42.5553 16.5239C42.5595 16.5239 42.5679 16.5239 42.5805 16.5239C42.5932 16.5239 42.6058 16.5239 42.6184 16.5239C42.7446 16.5239 43.3882 16.5239 43.9603 16.5239ZM46.0469 18.5538C46.0721 18.4848 46.1352 18.4401 46.2067 18.4279C46.4591 18.3833 47.0691 18.2859 47.3678 18.2696C47.4898 18.2696 47.4898 18.2696 47.6118 18.2696C50.0138 18.3752 51.9321 20.6364 51.3894 23.0438C51.1202 24.1115 50.8636 25.1792 50.384 26.1657C49.1557 28.703 46.8251 30.6923 44.0781 31.6707C43.2452 31.9549 41.8191 32.4299 41.0703 32.6775C40.982 32.7059 40.8852 32.6816 40.8221 32.6166C40.759 32.5516 40.738 32.4583 40.7716 32.3771C40.9736 31.8656 41.2891 31.0739 41.4027 30.7938C41.4279 30.7288 41.4826 30.6801 41.5499 30.6558C42.7109 30.2944 43.8636 29.9494 44.8858 29.3932C47.3678 28.0373 48.878 25.6055 49.6226 22.65C49.9339 21.2657 48.7602 19.8042 47.2037 20.0437C46.7957 20.1208 46.11 20.2832 45.6851 20.3847C45.6136 20.405 45.5379 20.3807 45.4874 20.3279C45.4369 20.271 45.4201 20.198 45.4453 20.129C45.6262 19.654 45.9375 18.842 46.0469 18.5538ZM43.8131 10C43.994 10 44.1581 10.0893 44.2464 10.2395C44.3389 10.3857 44.3432 10.5684 44.259 10.7186C43.6743 11.7497 42.631 13.5928 42.2061 14.3479C42.0883 14.5509 41.8654 14.6768 41.6214 14.6727C34.4069 14.5184 27.1881 14.5184 19.9736 14.6727C19.7296 14.6768 19.5066 14.5509 19.3888 14.3479C18.9892 13.6416 18.0469 11.9771 17.4537 10.9256C17.3443 10.7307 17.3486 10.4953 17.4663 10.3085C17.5841 10.1177 17.7945 10 18.0216 10C22.5481 10 39.7746 10 43.8131 10Z" fill="#D95D39"/>
</svg>
