<svg width="310" height="88" viewBox="0 0 310 88" fill="none" xmlns="http://www.w3.org/2000/svg">
<g filter="url(#filter0_d_115_348)">
<rect x="10" y="10" width="68" height="68" fill="#FCE6D2"/>
</g>
<path fill-rule="evenodd" clip-rule="evenodd" d="M52.9549 60.325C53.3335 60.325 53.6364 60.6173 53.6364 60.9827C53.6364 62.2818 53.6364 65.0708 53.6364 65.0749V65.0789C53.607 66.9626 51.9621 68.5824 50.0354 68.6596C50.0312 68.6596 50.027 68.6596 50.0228 68.6596C43.9315 68.7367 37.8401 68.7367 31.7488 68.6596C31.7446 68.6596 31.7404 68.6596 31.732 68.6596C29.8936 68.5865 28.3119 67.125 28.1436 65.3712C28.1436 65.3672 28.1436 65.3631 28.1436 65.359C28.0469 63.9138 28.009 62.4564 28.0006 60.9827C28.0006 60.8081 28.0721 60.6417 28.1983 60.5199C28.3245 60.394 28.5012 60.325 28.6821 60.325C32.3083 60.325 49.3329 60.325 52.9549 60.325ZM55.4495 53.115C55.4495 52.6725 55.4537 52.5466 56.0342 52.4654C56.6484 52.3761 57.5865 52.2462 58.003 52.2218C58.1208 52.2178 58.1208 52.2178 58.2386 52.2218C60.6617 52.3274 62.7692 54.3207 62.8618 56.7362C62.9123 60.4224 61.4147 64.0478 57.881 65.489C57.3005 65.7122 56.3918 66.0776 55.7945 66.3171C55.6725 66.3699 55.5294 66.3496 55.4243 66.2725C55.3191 66.1953 55.2602 66.0695 55.277 65.9396C55.3275 65.5336 55.3906 65.0261 55.4243 64.746C55.4411 64.6121 55.5336 64.4984 55.6641 64.4537C56.7242 64.0802 57.7716 63.7067 58.6256 63.0694C60.4934 61.6769 61.0823 59.3669 61.0487 56.7809C60.9898 55.2341 59.5006 53.7808 57.9273 53.9878L57.8768 53.9959C57.3425 54.1056 56.8125 54.2233 56.2824 54.341C56.0805 54.3857 55.9291 54.3897 55.7061 54.2152C55.4495 54.0203 55.4495 53.9026 55.4495 53.7036C55.4495 53.5047 55.4495 53.2977 55.4495 53.115ZM52.9549 50.4802C53.1358 50.4802 53.3083 50.5493 53.4387 50.671C53.5649 50.7969 53.6364 50.9633 53.6364 51.1379C53.6364 52.027 53.6364 53.5372 53.6364 53.7118C53.6364 53.7239 53.6364 53.7402 53.6322 53.7524C53.6322 53.7848 53.6322 53.8173 53.6322 53.8457C53.6322 53.862 53.6364 53.8741 53.6364 53.8904C53.6364 54.1177 53.6364 56.6794 53.6364 57.9136C53.6364 58.2749 53.3335 58.5672 52.9549 58.5672C49.3371 58.5712 32.3419 58.5753 28.6989 58.5753C28.518 58.5753 28.3413 58.5022 28.2151 58.3804C28.0889 58.2546 28.0174 58.0841 28.0216 57.9095C28.0553 55.6564 28.1184 53.391 28.131 51.1339C28.131 50.7725 28.4381 50.4802 28.8125 50.4802C32.4176 50.4802 49.3413 50.4802 52.9549 50.4802ZM54.7891 48.767C54.9868 48.7549 55.1845 48.7427 55.3822 48.7264C55.8828 48.6656 55.908 47.6303 55.3654 47.5897C45.7235 47.3624 36.0775 47.5897 26.4315 47.5897C25.8762 47.6019 25.8467 48.6899 26.402 48.7305C26.6292 48.7346 26.8563 48.7386 27.0835 48.7467C27.1298 48.7386 27.1761 48.7305 27.2265 48.7305C27.3443 48.7305 27.5841 48.7305 27.5841 48.7305L54.2043 48.7143C54.2043 48.7143 54.4946 48.7264 54.6376 48.7346C54.6881 48.7427 54.7428 48.7549 54.7891 48.767ZM28.9765 26.5239C28.9892 26.5239 29.006 26.5239 29.0186 26.5239C29.0396 26.5239 29.0565 26.528 29.0775 26.528C29.0859 26.528 29.0985 26.528 29.1112 26.528C29.2332 26.528 29.9483 26.528 30.4573 26.528C30.7686 26.528 31.0336 26.7391 31.0925 27.0314C31.652 29.7149 34.2686 42.3121 34.8744 45.231C34.9038 45.3772 34.866 45.5315 34.765 45.6492C34.664 45.7669 34.5168 45.8359 34.3612 45.8359C34.1971 45.8359 34.0499 45.7385 33.9952 45.5883C33.2506 43.6478 28.3371 30.7988 27.0246 27.3643C26.9531 27.1735 26.9825 26.9583 27.1003 26.7919C27.2223 26.6214 27.42 26.5239 27.6346 26.5239C28.2067 26.5239 28.8503 26.5239 28.9765 26.5239ZM35.8209 26.528C36.1532 26.528 36.4351 26.7716 36.4645 27.0923C36.7422 29.8773 37.9621 42.1091 38.265 45.1499C38.2818 45.3244 38.2229 45.499 38.1009 45.6289C37.9747 45.7588 37.8023 45.8359 37.6172 45.8359C37.5372 45.8359 37.4573 45.8359 37.3816 45.8359C37.0703 45.8359 36.8053 45.6248 36.7464 45.3325C36.1953 42.6937 33.6544 30.4456 32.994 27.279C32.9561 27.0923 33.0066 26.9015 33.1286 26.7553C33.2548 26.6133 33.4357 26.528 33.6334 26.528C34.2939 26.528 35.2235 26.528 35.8209 26.528ZM42.6484 26.528C42.8335 26.528 43.006 26.6011 43.128 26.735C43.25 26.865 43.3131 27.0395 43.2963 27.2141C42.9934 30.2548 41.7734 42.4826 41.4958 45.2676C41.4621 45.5883 41.1845 45.8359 40.8521 45.8359C40.8143 45.8359 40.7806 45.8359 40.7428 45.8359C40.4104 45.8359 40.1328 45.5883 40.0991 45.2676C39.8215 42.4826 38.6015 30.2548 38.2987 27.2141C38.2818 27.0395 38.3407 26.865 38.4669 26.735C38.5889 26.6011 38.7614 26.528 38.9465 26.528C39.9225 26.528 41.6725 26.528 42.6484 26.528ZM47.9615 26.528C48.1592 26.528 48.3401 26.6133 48.4663 26.7553C48.5883 26.9015 48.6388 27.0923 48.6009 27.279C47.9405 30.4456 45.3996 42.6897 44.8485 45.3285C44.7897 45.6208 44.5246 45.8319 44.2133 45.8319C44.1376 45.8319 44.0577 45.8319 43.9778 45.8319C43.7927 45.8319 43.6202 45.7588 43.494 45.6289C43.372 45.499 43.3131 45.3244 43.3299 45.1458C43.6328 42.1051 44.8528 29.8773 45.1304 27.0923C45.1598 26.7716 45.4417 26.528 45.774 26.528C46.3714 26.528 47.3011 26.528 47.9615 26.528ZM53.9603 26.5239C54.1707 26.5239 54.3726 26.6214 54.4946 26.7919C54.6124 26.9583 54.6418 27.1735 54.5703 27.3643C53.2578 30.7988 48.3443 43.6437 47.604 45.5883C47.5451 45.7344 47.3978 45.8319 47.238 45.8319C47.2338 45.8319 47.2338 45.8319 47.2338 45.8319C47.0781 45.8319 46.9309 45.7669 46.8299 45.6492C46.729 45.5315 46.6911 45.3772 46.7205 45.227C47.3263 42.3081 49.9429 29.7108 50.5024 27.0314C50.5613 26.7391 50.8263 26.528 51.1376 26.528C51.6466 26.528 52.3618 26.528 52.4838 26.528C52.4964 26.528 52.509 26.528 52.5174 26.528L52.5553 26.5239C52.5595 26.5239 52.5679 26.5239 52.5805 26.5239C52.5931 26.5239 52.6058 26.5239 52.6184 26.5239C52.7446 26.5239 53.3882 26.5239 53.9603 26.5239ZM56.0469 28.5538C56.0721 28.4848 56.1352 28.4401 56.2067 28.4279C56.4591 28.3833 57.0691 28.2859 57.3678 28.2696C57.4898 28.2696 57.4898 28.2696 57.6118 28.2696C60.0138 28.3752 61.9321 30.6364 61.3894 33.0438C61.1202 34.1115 60.8636 35.1792 60.384 36.1657C59.1556 38.703 56.8251 40.6923 54.0781 41.6707C53.2452 41.9549 51.8191 42.4299 51.0703 42.6775C50.982 42.7059 50.8852 42.6816 50.8221 42.6166C50.759 42.5516 50.738 42.4583 50.7716 42.3771C50.9736 41.8656 51.2891 41.0739 51.4026 40.7938C51.4279 40.7288 51.4826 40.6801 51.5499 40.6558C52.7109 40.2944 53.8636 39.9494 54.8858 39.3932C57.3678 38.0373 58.878 35.6055 59.6226 32.65C59.9339 31.2657 58.7602 29.8042 57.2037 30.0437C56.7957 30.1208 56.11 30.2832 55.6851 30.3847C55.6136 30.405 55.5379 30.3807 55.4874 30.3279C55.4369 30.271 55.4201 30.198 55.4453 30.129C55.6262 29.654 55.9375 28.842 56.0469 28.5538ZM53.8131 20C53.994 20 54.158 20.0893 54.2464 20.2395C54.3389 20.3857 54.3431 20.5684 54.259 20.7186C53.6743 21.7497 52.631 23.5928 52.2061 24.3479C52.0883 24.5509 51.8654 24.6768 51.6214 24.6727C44.4068 24.5184 37.1881 24.5184 29.9735 24.6727C29.7295 24.6768 29.5066 24.5509 29.3888 24.3479C28.9892 23.6416 28.0469 21.9771 27.4537 20.9256C27.3443 20.7307 27.3485 20.4953 27.4663 20.3085C27.5841 20.1177 27.7944 20 28.0216 20C32.5481 20 49.7746 20 53.8131 20Z" fill="#D95D39"/>
<path d="M104 54.64C100.4 54.64 97.6 53.48 95.6 51.16L98.48 48.36C99.04 49.1067 99.7733 49.72 100.68 50.2C101.613 50.68 102.6 50.92 103.64 50.92C106.173 50.92 107.44 50.1067 107.44 48.48C107.44 47.4933 107.04 46.8133 106.24 46.44C105.467 46.0667 104.387 45.88 103 45.88H101.48V42.44H103C105.64 42.44 106.96 41.6267 106.96 40C106.96 38.5867 105.88 37.88 103.72 37.88C101.773 37.88 100.24 38.6133 99.12 40.08L96.44 37.48C98.1467 35.32 100.76 34.24 104.28 34.24C106.547 34.24 108.36 34.7067 109.72 35.64C111.107 36.5733 111.8 37.8533 111.8 39.48C111.8 40.5733 111.44 41.5333 110.72 42.36C110 43.16 109.08 43.68 107.96 43.92V44C109.267 44.24 110.32 44.7733 111.12 45.6C111.92 46.4267 112.32 47.4533 112.32 48.68C112.32 50.5467 111.52 52.0133 109.92 53.08C108.347 54.12 106.373 54.64 104 54.64ZM120.779 42.48H130.619C130.619 41.1467 130.232 40.04 129.459 39.16C128.685 38.28 127.565 37.84 126.099 37.84C124.685 37.84 123.472 38.28 122.459 39.16C121.445 40.04 120.885 41.1467 120.779 42.48ZM135.419 44.64C135.419 45.2 135.405 45.6267 135.379 45.92H120.779C120.885 47.2533 121.472 48.3733 122.539 49.28C123.605 50.1867 124.845 50.64 126.259 50.64C128.472 50.64 130.165 49.8133 131.339 48.16L134.539 50.72C132.645 53.28 129.899 54.56 126.299 54.56C123.285 54.56 120.805 53.6533 118.859 51.84C116.939 50.0267 115.979 47.5867 115.979 44.52C115.979 41.4533 116.939 38.9733 118.859 37.08C120.779 35.1867 123.205 34.24 126.139 34.24C128.912 34.24 131.152 35.1333 132.859 36.92C134.565 38.7067 135.419 41.28 135.419 44.64ZM120.219 30.2C119.685 29.64 119.419 28.9867 119.419 28.24C119.419 27.4933 119.685 26.84 120.219 26.28C120.779 25.72 121.459 25.44 122.259 25.44C123.085 25.44 123.779 25.7067 124.339 26.24C124.899 26.7733 125.179 27.44 125.179 28.24C125.179 29.04 124.899 29.7067 124.339 30.24C123.779 30.7733 123.085 31.04 122.259 31.04C121.459 31.04 120.779 30.76 120.219 30.2ZM128.059 30.2C127.525 29.64 127.259 28.9867 127.259 28.24C127.259 27.4933 127.525 26.84 128.059 26.28C128.619 25.72 129.299 25.44 130.099 25.44C130.925 25.44 131.619 25.7067 132.179 26.24C132.739 26.7733 133.019 27.44 133.019 28.24C133.019 29.04 132.739 29.7067 132.179 30.24C131.619 30.7733 130.925 31.04 130.099 31.04C129.299 31.04 128.619 30.76 128.059 30.2ZM140.068 34.8H144.668V37.48H144.788C145.348 36.6 146.188 35.84 147.308 35.2C148.454 34.56 149.828 34.24 151.428 34.24C154.148 34.24 156.374 35.2 158.108 37.12C159.868 39.04 160.748 41.44 160.748 44.32C160.748 47.2 159.881 49.6267 158.148 51.6C156.441 53.5733 154.161 54.56 151.308 54.56C149.974 54.56 148.734 54.28 147.588 53.72C146.441 53.16 145.561 52.4 144.948 51.44H144.868V63.6H140.068V34.8ZM154.388 48.68C155.374 47.4267 155.868 45.9733 155.868 44.32C155.868 42.6667 155.374 41.2267 154.388 40C153.428 38.7733 152.081 38.16 150.348 38.16C148.668 38.16 147.308 38.8 146.268 40.08C145.228 41.36 144.708 42.8 144.708 44.4C144.708 46 145.228 47.4267 146.268 48.68C147.308 49.9333 148.668 50.56 150.348 50.56C152.081 50.56 153.428 49.9333 154.388 48.68ZM165.38 54V34.8H170.18V42.04H178.26V34.8H183.06V54H178.26V45.88H170.18V54H165.38ZM208.938 54V34.8H213.738V54H208.938ZM188.818 54V34.8H193.618V41.52H197.778C200.151 41.52 202.031 42.04 203.418 43.08C204.831 44.0933 205.538 45.64 205.538 47.72C205.538 49.7467 204.831 51.3067 203.418 52.4C202.004 53.4667 200.124 54 197.778 54H188.818ZM193.618 50.36H196.538C197.978 50.36 199.031 50.16 199.698 49.76C200.391 49.36 200.738 48.6933 200.738 47.76C200.738 46.8 200.418 46.12 199.778 45.72C199.138 45.32 198.058 45.12 196.538 45.12H193.618V50.36ZM219.482 54V34.8H224.282V50.08H231.442V34.8H236.242V50.08H243.362V34.8H248.162V54H219.482ZM254.169 54V34.8H258.969V43.32H259.089L266.489 34.8H272.569L264.129 43.84L273.209 54H267.049L259.089 44.88H258.969V54H254.169ZM273.713 44.32C273.713 41.36 274.713 38.9467 276.713 37.08C278.713 35.1867 281.193 34.24 284.153 34.24C287.113 34.24 289.593 35.1867 291.593 37.08C293.593 38.9467 294.593 41.36 294.593 44.32C294.593 47.3067 293.58 49.76 291.553 51.68C289.553 53.6 287.086 54.56 284.153 54.56C281.22 54.56 278.74 53.6 276.713 51.68C274.713 49.76 273.713 47.3067 273.713 44.32ZM280.033 40C279.073 41.2267 278.593 42.6667 278.593 44.32C278.593 45.9733 279.073 47.4267 280.033 48.68C280.993 49.9333 282.366 50.56 284.153 50.56C285.94 50.56 287.313 49.9333 288.273 48.68C289.233 47.4267 289.713 45.9733 289.713 44.32C289.713 42.6667 289.233 41.2267 288.273 40C287.313 38.7733 285.94 38.16 284.153 38.16C282.366 38.16 280.993 38.7733 280.033 40ZM299.327 53.36C298.687 52.7733 298.367 52.0533 298.367 51.2C298.367 50.3467 298.674 49.6133 299.287 49C299.927 48.3867 300.687 48.08 301.567 48.08C302.447 48.08 303.194 48.3733 303.807 48.96C304.447 49.5467 304.767 50.2667 304.767 51.12C304.767 51.9733 304.447 52.7067 303.807 53.32C303.194 53.9333 302.447 54.24 301.567 54.24C300.714 54.24 299.967 53.9467 299.327 53.36Z" fill="#FCE6D2"/>
<defs>
<filter id="filter0_d_115_348" x="0" y="0" width="88" height="88" filterUnits="userSpaceOnUse" color-interpolation-filters="sRGB">
<feFlood flood-opacity="0" result="BackgroundImageFix"/>
<feColorMatrix in="SourceAlpha" type="matrix" values="0 0 0 0 0 0 0 0 0 0 0 0 0 0 0 0 0 0 127 0" result="hardAlpha"/>
<feOffset/>
<feGaussianBlur stdDeviation="5"/>
<feComposite in2="hardAlpha" operator="out"/>
<feColorMatrix type="matrix" values="0 0 0 0 0.345098 0 0 0 0 0.227451 0 0 0 0 0.176471 0 0 0 0.4 0"/>
<feBlend mode="normal" in2="BackgroundImageFix" result="effect1_dropShadow_115_348"/>
<feBlend mode="normal" in="SourceGraphic" in2="effect1_dropShadow_115_348" result="shape"/>
</filter>
</defs>
</svg>
