<svg width="150" height="34" viewBox="0 0 150 34" fill="none" xmlns="http://www.w3.org/2000/svg">
<rect width="34" height="34" fill="#FCE6D2"/>
<path fill-rule="evenodd" clip-rule="evenodd" d="M21.4775 25.1625C21.6668 25.1625 21.8182 25.3087 21.8182 25.4913C21.8182 26.1409 21.8182 27.5354 21.8182 27.5374V27.5395C21.8035 28.4813 20.9811 29.2912 20.0177 29.3298C20.0156 29.3298 20.0135 29.3298 20.0114 29.3298C16.9657 29.3684 13.9201 29.3684 10.8744 29.3298C10.8723 29.3298 10.8702 29.3298 10.866 29.3298C9.94681 29.2933 9.15595 28.5625 9.07181 27.6856C9.07181 27.6836 9.07181 27.6816 9.07181 27.6795C9.02343 26.9569 9.0045 26.2282 9.0003 25.4913C9.0003 25.4041 9.03605 25.3208 9.09916 25.2599C9.16226 25.197 9.2506 25.1625 9.34104 25.1625C11.1541 25.1625 19.6665 25.1625 21.4775 25.1625ZM22.7248 21.5575C22.7248 21.3362 22.7269 21.2733 23.0171 21.2327C23.3242 21.1881 23.7933 21.1231 24.0015 21.1109C24.0604 21.1089 24.0604 21.1089 24.1193 21.1109C25.3308 21.1637 26.3846 22.1604 26.4309 23.3681C26.4561 25.2112 25.7073 27.0239 23.9405 27.7445C23.6502 27.8561 23.1959 28.0388 22.8972 28.1586C22.8362 28.185 22.7647 28.1748 22.7121 28.1362C22.6596 28.0977 22.6301 28.0347 22.6385 27.9698C22.6638 27.7668 22.6953 27.5131 22.7121 27.373C22.7206 27.306 22.7668 27.2492 22.832 27.2269C23.3621 27.0401 23.8858 26.8534 24.3128 26.5347C25.2467 25.8384 25.5412 24.6835 25.5243 23.3904C25.4949 22.6171 24.7503 21.8904 23.9636 21.9939L23.9384 21.998C23.6713 22.0528 23.4063 22.1116 23.1412 22.1705C23.0403 22.1928 22.9645 22.1949 22.8531 22.1076C22.7248 22.0101 22.7248 21.9513 22.7248 21.8518C22.7248 21.7524 22.7248 21.6488 22.7248 21.5575ZM21.4775 20.2401C21.5679 20.2401 21.6542 20.2746 21.7194 20.3355C21.7825 20.3984 21.8182 20.4817 21.8182 20.569C21.8182 21.0135 21.8182 21.7686 21.8182 21.8559C21.8182 21.862 21.8182 21.8701 21.8161 21.8762C21.8161 21.8924 21.8161 21.9087 21.8161 21.9229C21.8161 21.931 21.8182 21.9371 21.8182 21.9452C21.8182 22.0589 21.8182 23.3397 21.8182 23.9568C21.8182 24.1374 21.6668 24.2836 21.4775 24.2836C19.6686 24.2856 11.171 24.2876 9.34946 24.2876C9.25901 24.2876 9.17067 24.2511 9.10757 24.1902C9.04447 24.1273 9.00871 24.042 9.01081 23.9547C9.02764 22.8282 9.05919 21.6955 9.0655 20.5669C9.0655 20.3863 9.21905 20.2401 9.40625 20.2401C11.2088 20.2401 19.6707 20.2401 21.4775 20.2401ZM22.3945 19.3835C22.4934 19.3774 22.5923 19.3713 22.6911 19.3632C22.9414 19.3328 22.954 18.8152 22.6827 18.7949C17.8618 18.6812 13.0388 18.7949 8.21574 18.7949C7.9381 18.801 7.92337 19.345 8.20102 19.3653C8.3146 19.3673 8.42818 19.3693 8.54176 19.3734C8.5649 19.3693 8.58804 19.3653 8.61328 19.3653C8.67217 19.3653 8.79206 19.3653 8.79206 19.3653L22.1022 19.3571C22.1022 19.3571 22.2473 19.3632 22.3188 19.3673C22.3441 19.3713 22.3714 19.3774 22.3945 19.3835ZM9.48828 8.26197C9.49459 8.26197 9.503 8.26197 9.50931 8.26197C9.51983 8.26197 9.52824 8.264 9.53876 8.264C9.54297 8.264 9.54928 8.264 9.55559 8.264C9.61658 8.264 9.97416 8.264 10.2287 8.264C10.3843 8.264 10.5168 8.36955 10.5463 8.5157C10.826 9.85743 12.1343 16.1561 12.4372 17.6155C12.4519 17.6886 12.433 17.7657 12.3825 17.8246C12.332 17.8835 12.2584 17.918 12.1806 17.918C12.0986 17.918 12.0249 17.8693 11.9976 17.7941C11.6253 16.8239 9.16857 10.3994 8.51232 8.68215C8.47656 8.58675 8.49128 8.47916 8.55018 8.39594C8.61117 8.31069 8.71003 8.26197 8.8173 8.26197C9.10336 8.26197 9.42518 8.26197 9.48828 8.26197ZM12.9105 8.264C13.0766 8.264 13.2175 8.38579 13.2323 8.54615C13.3711 9.93863 13.9811 16.0546 14.1325 17.5749C14.1409 17.6622 14.1115 17.7495 14.0505 17.8144C13.9874 17.8794 13.9011 17.918 13.8086 17.918C13.7686 17.918 13.7287 17.918 13.6908 17.918C13.5352 17.918 13.4026 17.8124 13.3732 17.6663C13.0977 16.3469 11.8272 10.2228 11.497 8.63952C11.4781 8.54615 11.5033 8.45075 11.5643 8.37767C11.6274 8.30663 11.7178 8.264 11.8167 8.264C12.1469 8.264 12.6118 8.264 12.9105 8.264ZM16.3242 8.264C16.4168 8.264 16.503 8.30054 16.564 8.36752C16.625 8.43248 16.6566 8.51976 16.6481 8.60704C16.4967 10.1274 15.8867 16.2413 15.7479 17.6338C15.7311 17.7941 15.5922 17.918 15.4261 17.918C15.4072 17.918 15.3903 17.918 15.3714 17.918C15.2052 17.918 15.0664 17.7941 15.0496 17.6338C14.9108 16.2413 14.3008 10.1274 14.1493 8.60704C14.1409 8.51976 14.1704 8.43248 14.2335 8.36752C14.2945 8.30054 14.3807 8.264 14.4733 8.264C14.9612 8.264 15.8362 8.264 16.3242 8.264ZM18.9808 8.264C19.0796 8.264 19.1701 8.30663 19.2332 8.37767C19.2942 8.45075 19.3194 8.54615 19.3005 8.63952C18.9703 10.2228 17.6998 16.3448 17.4243 17.6642C17.3948 17.8104 17.2623 17.9159 17.1067 17.9159C17.0688 17.9159 17.0288 17.9159 16.9889 17.9159C16.8963 17.9159 16.8101 17.8794 16.747 17.8144C16.686 17.7495 16.6566 17.6622 16.665 17.5729C16.8164 16.0525 17.4264 9.93863 17.5652 8.54615C17.5799 8.38579 17.7209 8.264 17.887 8.264C18.1857 8.264 18.6505 8.264 18.9808 8.264ZM21.9802 8.26197C22.0853 8.26197 22.1863 8.31069 22.2473 8.39594C22.3062 8.47916 22.3209 8.58675 22.2852 8.68215C21.6289 10.3994 19.1722 16.8219 18.802 17.7941C18.7725 17.8672 18.6989 17.9159 18.619 17.9159C18.6169 17.9159 18.6169 17.9159 18.6169 17.9159C18.5391 17.9159 18.4654 17.8835 18.415 17.8246C18.3645 17.7657 18.3456 17.6886 18.3603 17.6135C18.6632 16.154 19.9715 9.8554 20.2512 8.5157C20.2807 8.36955 20.4132 8.264 20.5688 8.264C20.8233 8.264 21.1809 8.264 21.2419 8.264C21.2482 8.264 21.2545 8.264 21.2587 8.264L21.2776 8.26197C21.2798 8.26197 21.284 8.26197 21.2903 8.26197C21.2966 8.26197 21.3029 8.26197 21.3092 8.26197C21.3723 8.26197 21.6941 8.26197 21.9802 8.26197ZM23.0234 9.2769C23.0361 9.24239 23.0676 9.22006 23.1034 9.21397C23.2296 9.19164 23.5346 9.14293 23.6839 9.13481C23.7449 9.13481 23.7449 9.13481 23.8059 9.13481C25.0069 9.18758 25.9661 10.3182 25.6947 11.5219C25.5601 12.0558 25.4318 12.5896 25.192 13.0829C24.5778 14.3515 23.4126 15.3461 22.0391 15.8353C21.6226 15.9774 20.9096 16.2149 20.5352 16.3387C20.491 16.353 20.4426 16.3408 20.4111 16.3083C20.3795 16.2758 20.369 16.2291 20.3858 16.1885C20.4868 15.9328 20.6445 15.537 20.7013 15.3969C20.7139 15.3644 20.7413 15.3401 20.7749 15.3279C21.3555 15.1472 21.9318 14.9747 22.4429 14.6966C23.6839 14.0186 24.439 12.8027 24.8113 11.325C24.967 10.6328 24.3801 9.90209 23.6019 10.0219C23.3978 10.0604 23.055 10.1416 22.8426 10.1924C22.8068 10.2025 22.7689 10.1903 22.7437 10.1639C22.7185 10.1355 22.71 10.099 22.7227 10.0645C22.8131 9.82699 22.9688 9.42101 23.0234 9.2769ZM21.9066 5C21.997 5 22.079 5.04466 22.1232 5.11976C22.1695 5.19284 22.1716 5.28418 22.1295 5.35928C21.8371 5.87487 21.3155 6.79642 21.1031 7.17397C21.0442 7.27546 20.9327 7.33839 20.8107 7.33636C17.2034 7.25922 13.594 7.25922 9.98678 7.33636C9.86478 7.33839 9.7533 7.27546 9.69441 7.17397C9.49459 6.82078 9.02343 5.98854 8.72686 5.46281C8.67217 5.36537 8.67428 5.24764 8.73317 5.15427C8.79206 5.05887 8.89723 5 9.01081 5C11.274 5 19.8873 5 21.9066 5Z" fill="#D95D39"/>
<path d="M47 22.32C45.2 22.32 43.8 21.74 42.8 20.58L44.24 19.18C44.52 19.5533 44.8867 19.86 45.34 20.1C45.8067 20.34 46.3 20.46 46.82 20.46C48.0867 20.46 48.72 20.0533 48.72 19.24C48.72 18.7467 48.52 18.4067 48.12 18.22C47.7333 18.0333 47.1933 17.94 46.5 17.94H45.74V16.22H46.5C47.82 16.22 48.48 15.8133 48.48 15C48.48 14.2933 47.94 13.94 46.86 13.94C45.8867 13.94 45.12 14.3067 44.56 15.04L43.22 13.74C44.0733 12.66 45.38 12.12 47.14 12.12C48.2733 12.12 49.18 12.3533 49.86 12.82C50.5533 13.2867 50.9 13.9267 50.9 14.74C50.9 15.2867 50.72 15.7667 50.36 16.18C50 16.58 49.54 16.84 48.98 16.96V17C49.6333 17.12 50.16 17.3867 50.56 17.8C50.96 18.2133 51.16 18.7267 51.16 19.34C51.16 20.2733 50.76 21.0067 49.96 21.54C49.1733 22.06 48.1867 22.32 47 22.32ZM55.3894 16.24H60.3094C60.3094 15.5733 60.116 15.02 59.7294 14.58C59.3427 14.14 58.7827 13.92 58.0494 13.92C57.3427 13.92 56.736 14.14 56.2294 14.58C55.7227 15.02 55.4427 15.5733 55.3894 16.24ZM62.7094 17.32C62.7094 17.6 62.7027 17.8133 62.6894 17.96H55.3894C55.4427 18.6267 55.736 19.1867 56.2694 19.64C56.8027 20.0933 57.4227 20.32 58.1294 20.32C59.236 20.32 60.0827 19.9067 60.6694 19.08L62.2694 20.36C61.3227 21.64 59.9494 22.28 58.1494 22.28C56.6427 22.28 55.4027 21.8267 54.4294 20.92C53.4694 20.0133 52.9894 18.7933 52.9894 17.26C52.9894 15.7267 53.4694 14.4867 54.4294 13.54C55.3894 12.5933 56.6027 12.12 58.0694 12.12C59.456 12.12 60.576 12.5667 61.4294 13.46C62.2827 14.3533 62.7094 15.64 62.7094 17.32ZM55.1094 10.1C54.8427 9.82 54.7094 9.49333 54.7094 9.12C54.7094 8.74667 54.8427 8.42 55.1094 8.14C55.3894 7.86 55.7294 7.72 56.1294 7.72C56.5427 7.72 56.8894 7.85333 57.1694 8.12C57.4494 8.38667 57.5894 8.72 57.5894 9.12C57.5894 9.52 57.4494 9.85333 57.1694 10.12C56.8894 10.3867 56.5427 10.52 56.1294 10.52C55.7294 10.52 55.3894 10.38 55.1094 10.1ZM59.0294 10.1C58.7627 9.82 58.6294 9.49333 58.6294 9.12C58.6294 8.74667 58.7627 8.42 59.0294 8.14C59.3094 7.86 59.6494 7.72 60.0494 7.72C60.4627 7.72 60.8094 7.85333 61.0894 8.12C61.3694 8.38667 61.5094 8.72 61.5094 9.12C61.5094 9.52 61.3694 9.85333 61.0894 10.12C60.8094 10.3867 60.4627 10.52 60.0494 10.52C59.6494 10.52 59.3094 10.38 59.0294 10.1ZM65.0338 12.4H67.3338V13.74H67.3938C67.6738 13.3 68.0938 12.92 68.6538 12.6C69.2271 12.28 69.9138 12.12 70.7138 12.12C72.0738 12.12 73.1871 12.6 74.0538 13.56C74.9338 14.52 75.3738 15.72 75.3738 17.16C75.3738 18.6 74.9404 19.8133 74.0738 20.8C73.2204 21.7867 72.0804 22.28 70.6538 22.28C69.9871 22.28 69.3671 22.14 68.7938 21.86C68.2204 21.58 67.7804 21.2 67.4738 20.72H67.4338V26.8H65.0338V12.4ZM72.1938 19.34C72.6871 18.7133 72.9338 17.9867 72.9338 17.16C72.9338 16.3333 72.6871 15.6133 72.1938 15C71.7138 14.3867 71.0404 14.08 70.1738 14.08C69.3338 14.08 68.6538 14.4 68.1338 15.04C67.6138 15.68 67.3538 16.4 67.3538 17.2C67.3538 18 67.6138 18.7133 68.1338 19.34C68.6538 19.9667 69.3338 20.28 70.1738 20.28C71.0404 20.28 71.7138 19.9667 72.1938 19.34ZM77.69 22V12.4H80.09V16.02H84.13V12.4H86.53V22H84.13V17.94H80.09V22H77.69ZM99.4688 22V12.4H101.869V22H99.4688ZM89.4088 22V12.4H91.8088V15.76H93.8888C95.0754 15.76 96.0154 16.02 96.7088 16.54C97.4154 17.0467 97.7688 17.82 97.7688 18.86C97.7688 19.8733 97.4154 20.6533 96.7088 21.2C96.0021 21.7333 95.0621 22 93.8888 22H89.4088ZM91.8088 20.18H93.2688C93.9888 20.18 94.5154 20.08 94.8488 19.88C95.1954 19.68 95.3688 19.3467 95.3688 18.88C95.3688 18.4 95.2088 18.06 94.8888 17.86C94.5688 17.66 94.0288 17.56 93.2688 17.56H91.8088V20.18ZM104.741 22V12.4H107.141V20.04H110.721V12.4H113.121V20.04H116.681V12.4H119.081V22H104.741ZM122.085 22V12.4H124.485V16.66H124.545L128.245 12.4H131.285L127.065 16.92L131.605 22H128.525L124.545 17.44H124.485V22H122.085ZM131.857 17.16C131.857 15.68 132.357 14.4733 133.357 13.54C134.357 12.5933 135.597 12.12 137.077 12.12C138.557 12.12 139.797 12.5933 140.797 13.54C141.797 14.4733 142.297 15.68 142.297 17.16C142.297 18.6533 141.79 19.88 140.777 20.84C139.777 21.8 138.543 22.28 137.077 22.28C135.61 22.28 134.37 21.8 133.357 20.84C132.357 19.88 131.857 18.6533 131.857 17.16ZM135.017 15C134.537 15.6133 134.297 16.3333 134.297 17.16C134.297 17.9867 134.537 18.7133 135.017 19.34C135.497 19.9667 136.183 20.28 137.077 20.28C137.97 20.28 138.657 19.9667 139.137 19.34C139.617 18.7133 139.857 17.9867 139.857 17.16C139.857 16.3333 139.617 15.6133 139.137 15C138.657 14.3867 137.97 14.08 137.077 14.08C136.183 14.08 135.497 14.3867 135.017 15ZM144.664 21.68C144.344 21.3867 144.184 21.0267 144.184 20.6C144.184 20.1733 144.337 19.8067 144.644 19.5C144.964 19.1933 145.344 19.04 145.784 19.04C146.224 19.04 146.597 19.1867 146.904 19.48C147.224 19.7733 147.384 20.1333 147.384 20.56C147.384 20.9867 147.224 21.3533 146.904 21.66C146.597 21.9667 146.224 22.12 145.784 22.12C145.357 22.12 144.984 21.9733 144.664 21.68Z" fill="#FCE6D2"/>
</svg>
