<svg width="80" height="22" viewBox="0 0 80 22" fill="none" xmlns="http://www.w3.org/2000/svg">
    <ellipse cx="26.2069" cy="11" rx="4.13793" ry="4.125" fill="#D95D39"/>
    <path d="M43.6379 11C43.6379 13.0006 42.0106 14.625 40 14.625C37.9893 14.625 36.3621 13.0006 36.3621 11C36.3621 8.99944 37.9893 7.375 40 7.375C42.0106 7.375 43.6379 8.99944 43.6379 11Z"
          fill="#FCE6D2" stroke="#D99768"/>
    <path d="M57.431 11C57.431 13.0006 55.8038 14.625 53.7931 14.625C51.7825 14.625 50.1552 13.0006 50.1552 11C50.1552 8.99944 51.7825 7.375 53.7931 7.375C55.8038 7.375 57.431 8.99944 57.431 11Z"
          fill="#FCE6D2" stroke="#D99768"/>
    <path d="M13.7931 16.1242L13.7931 5.87583C13.7924 5.69454 13.7377 5.51754 13.636 5.36722C13.5344 5.21691 13.3903 5.10001 13.222 5.03133C13.0536 4.96265 12.8687 4.94526 12.6905 4.98137C12.5123 5.01747 12.3488 5.10544 12.2207 5.23416L7.08967 10.3492C7.00349 10.4344 6.93508 10.5358 6.88839 10.6475C6.84171 10.7592 6.81767 10.879 6.81767 11C6.81767 11.121 6.84171 11.2408 6.88839 11.3525C6.93508 11.4642 7.00349 11.5656 7.08967 11.6508L12.2207 16.7658C12.3488 16.8946 12.5123 16.9825 12.6905 17.0186C12.8687 17.0547 13.0536 17.0373 13.222 16.9687C13.3903 16.9 13.5344 16.7831 13.636 16.6328C13.7377 16.4825 13.7924 16.3055 13.7931 16.1242Z"
          fill="#D99768"/>
    <path d="M66.2069 16.1242L66.2069 5.87583C66.2076 5.69454 66.2623 5.51754 66.364 5.36722C66.4656 5.21691 66.6097 5.10001 66.778 5.03133C66.9464 4.96265 67.1313 4.94526 67.3095 4.98137C67.4877 5.01747 67.6512 5.10544 67.7793 5.23416L72.9103 10.3492C72.9965 10.4344 73.0649 10.5358 73.1116 10.6475C73.1583 10.7592 73.1823 10.879 73.1823 11C73.1823 11.121 73.1583 11.2408 73.1116 11.3525C73.0649 11.4642 72.9965 11.5656 72.9103 11.6508L67.7793 16.7658C67.6512 16.8946 67.4877 16.9825 67.3095 17.0186C67.1313 17.0547 66.9464 17.0373 66.778 16.9687C66.6097 16.9 66.4656 16.7831 66.364 16.6328C66.2623 16.4825 66.2076 16.3055 66.2069 16.1242Z"
          fill="#D99768"/>
</svg>
